<svg width="64" height="64" viewBox="0 0 64 64" fill="none" xmlns="http://www.w3.org/2000/svg">
<path d="M44.728 0.032028C44.592 -0.119972 39.692 0.0920281 35.428 4.72003C31.164 9.34403 31.82 14.648 31.916 14.784C32.012 14.92 37.996 15.132 41.816 9.75203C45.636 4.37203 44.864 0.188028 44.728 0.032028ZM57.984 46.964C57.792 46.58 48.684 42.028 49.532 33.276C50.38 24.52 56.232 22.12 56.324 21.86C56.416 21.6 53.936 18.7 51.308 17.232C49.3785 16.197 47.2429 15.6041 45.056 15.496C44.624 15.484 43.124 15.116 40.04 15.96C38.008 16.516 33.428 18.316 32.168 18.388C30.904 18.46 27.144 16.3 23.1 15.728C20.512 15.228 17.768 16.252 15.804 17.04C13.844 17.824 10.116 20.056 7.50801 25.988C4.90001 31.916 6.26401 41.308 7.24001 44.228C8.21601 47.144 9.74001 51.924 12.332 55.412C14.636 59.348 17.692 62.08 18.968 63.008C20.244 63.936 23.844 64.552 26.34 63.276C28.348 62.044 31.972 61.336 33.404 61.388C34.832 61.44 37.648 62.004 40.532 63.544C42.816 64.332 44.976 64.004 47.14 63.124C49.304 62.24 52.436 58.888 56.092 52.092C57.48 48.932 58.112 47.224 57.984 46.964Z" fill="#1E1E1E"/>
<path d="M44.728 0.032028C44.592 -0.119972 39.692 0.0920281 35.428 4.72003C31.164 9.34403 31.82 14.648 31.916 14.784C32.012 14.92 37.996 15.132 41.816 9.75203C45.636 4.37203 44.864 0.188028 44.728 0.032028ZM57.984 46.964C57.792 46.58 48.684 42.028 49.532 33.276C50.38 24.52 56.232 22.12 56.324 21.86C56.416 21.6 53.936 18.7 51.308 17.232C49.3785 16.197 47.2429 15.6041 45.056 15.496C44.624 15.484 43.124 15.116 40.04 15.96C38.008 16.516 33.428 18.316 32.168 18.388C30.904 18.46 27.144 16.3 23.1 15.728C20.512 15.228 17.768 16.252 15.804 17.04C13.844 17.824 10.116 20.056 7.50801 25.988C4.90001 31.916 6.26401 41.308 7.24001 44.228C8.21601 47.144 9.74001 51.924 12.332 55.412C14.636 59.348 17.692 62.08 18.968 63.008C20.244 63.936 23.844 64.552 26.34 63.276C28.348 62.044 31.972 61.336 33.404 61.388C34.832 61.44 37.648 62.004 40.532 63.544C42.816 64.332 44.976 64.004 47.14 63.124C49.304 62.24 52.436 58.888 56.092 52.092C57.48 48.932 58.112 47.224 57.984 46.964Z" fill="#1E1E1E"/>
</svg>
