<svg width="640" height="400" viewBox="0 0 640 400" fill="none" xmlns="http://www.w3.org/2000/svg">
<g clip-path="url(#clip0_889_49)">
<rect x="210" y="180" width="220" height="40" rx="20" fill="#266FDB"/>
<path d="M439.206 63.5513C454.344 66.398 464.354 80.732 461.564 95.5673C464.354 80.732 478.888 71.0134 494.026 73.86C509.164 76.7067 519.174 91.0407 516.384 105.876C512.179 128.238 496.133 138.109 451.867 161.909C450.158 163.305 447.586 162.821 446.501 160.9C413.904 122.646 402.54 107.621 406.745 85.2586C409.535 70.4233 424.068 60.7047 439.206 63.5513Z" fill="#FF5353"/>
<path d="M186.049 100.662C186.518 98.5809 189.482 98.5809 189.951 100.662L195.995 127.493C196.165 128.247 196.753 128.835 197.507 129.005L224.338 135.049C226.419 135.518 226.419 138.482 224.338 138.951L197.507 144.995C196.753 145.165 196.165 145.753 195.995 146.507L189.951 173.338C189.482 175.419 186.518 175.419 186.049 173.338L180.005 146.507C179.835 145.753 179.247 145.165 178.493 144.995L151.662 138.951C149.581 138.482 149.581 135.518 151.662 135.049L178.493 129.005C179.247 128.835 179.835 128.247 180.005 127.493L186.049 100.662Z" fill="#EED760"/>
<path d="M141.549 71.6615C142.018 69.5809 144.982 69.5809 145.451 71.6615L148.646 85.8428C148.815 86.5963 149.404 87.1847 150.157 87.3544L164.338 90.5489C166.419 91.0176 166.419 93.9824 164.338 94.4511L150.157 97.6456C149.404 97.8153 148.815 98.4037 148.646 99.1572L145.451 113.338C144.982 115.419 142.018 115.419 141.549 113.338L138.354 99.1572C138.185 98.4037 137.596 97.8153 136.843 97.6456L122.662 94.4511C120.581 93.9824 120.581 91.0176 122.662 90.5489L136.843 87.3544C137.596 87.1847 138.185 86.5963 138.354 85.8428L141.549 71.6615Z" fill="#EED760"/>
<path d="M216.049 50.6615C216.518 48.5809 219.482 48.5809 219.951 50.6615L223.238 65.2509C223.407 66.0043 223.996 66.5927 224.749 66.7625L239.338 70.0489C241.419 70.5176 241.419 73.4824 239.338 73.9511L224.749 77.2375C223.996 77.4073 223.407 77.9957 223.238 78.7491L219.951 93.3385C219.482 95.4191 216.518 95.4191 216.049 93.3385L212.762 78.7491C212.593 77.9957 212.004 77.4073 211.251 77.2375L196.662 73.9511C194.581 73.4824 194.581 70.5176 196.662 70.0489L211.251 66.7625C212.004 66.5927 212.593 66.0043 212.762 65.2509L216.049 50.6615Z" fill="#EED760"/>
<path d="M152.597 321.18C150.709 321.18 148.772 321.079 146.812 320.874C139.279 320.085 132.859 317.88 129.837 315.071C115.824 318.526 106.228 317.604 100.533 312.254C95.1837 313.012 90.8458 312.944 87.6347 312.052C84.6209 311.215 82.6742 308.868 81.382 307.297C80.1695 307.455 78.2458 307.403 76.3529 306.107C73.5979 304.22 71.9309 300.419 72.0022 296.188L72.1389 259.838C72.1401 259.522 72.2461 259.22 72.4329 259.001C72.6194 258.781 72.8688 258.666 73.1303 258.673L231.663 264.954C232.168 264.975 232.574 265.468 232.591 266.084L233.42 295.489C233.424 295.621 233.409 295.753 233.377 295.878C231.396 303.598 222.422 308.387 205.945 310.511C205.147 313.233 203.359 315.485 200.622 317.215C192.574 322.299 177.174 321.883 168.508 318.137C164.285 320.128 158.694 321.18 152.597 321.18ZM130.089 312.644C130.317 312.644 130.54 312.743 130.716 312.928C133.227 315.567 139.61 317.771 146.977 318.542C155.146 319.398 162.858 318.399 168.133 315.801C168.355 315.692 168.603 315.687 168.827 315.789C176.88 319.431 192.136 319.939 199.738 315.137C202.233 313.56 203.765 311.538 204.289 309.126C204.392 308.655 204.723 308.311 205.12 308.262C220.783 306.33 229.655 301.991 231.495 295.363L230.703 267.258L74.0545 261.052L73.9222 296.217C73.8652 299.603 75.1571 302.603 77.2934 304.066C78.9603 305.207 80.6869 305.083 81.5677 304.906C81.8699 304.846 82.1776 304.965 82.396 305.226C82.4967 305.347 82.6017 305.475 82.7113 305.608C83.9157 307.072 85.5652 309.077 88.0613 309.77C91.1357 310.624 95.388 310.658 100.7 309.873C100.96 309.834 101.221 309.927 101.423 310.128C106.658 315.339 115.971 316.168 129.895 312.668C129.959 312.652 130.024 312.644 130.089 312.644Z" fill="#05046A"/>
<path d="M90.0041 255.351C83.2903 254.141 77.6094 254.643 73.8097 258.262C73.0157 259.019 72.8493 260.402 73.4515 261.387C74.6472 263.343 77.1963 264.701 80.8031 265.591C78.488 266.866 77.4312 268.384 78.0777 270.229C78.3564 271.025 78.9078 271.631 79.5624 271.966C85.3334 274.915 92.6899 275.82 100.816 275.733C99.676 281.384 112.461 280.367 128.729 277.683C126.478 286.894 151.707 288.124 192.937 284.709C195.701 284.48 198.383 283.322 200.566 281.243C201.277 280.566 201.909 279.829 202.473 279.039C203.183 278.044 204.188 277.437 205.268 277.342C234.024 274.825 237.813 264.695 223.76 259.738L90.0041 255.351Z" fill="#F4F2FC"/>
<path d="M157.842 287.617C135.688 287.617 130.31 284.415 128.473 281.615C127.962 280.837 127.682 279.965 127.637 279.042C110.622 281.784 102.725 281.651 100.487 278.615C100.118 278.115 99.8927 277.539 99.8153 276.908C99.7967 276.908 99.7783 276.908 99.7597 276.908C90.8914 276.908 84.3352 275.674 79.1909 273.045C78.271 272.574 77.5621 271.738 77.1946 270.689C76.7478 269.413 76.6858 267.704 78.3099 266.057C75.5699 265.092 73.7186 263.783 72.6814 262.086C71.7639 260.585 71.9999 258.501 73.2184 257.34C76.8905 253.842 82.4092 252.81 90.0872 254.182L223.785 258.568C223.867 258.571 223.948 258.586 224.026 258.614C229.857 260.671 232.907 263.68 232.612 267.088C232.112 272.873 222.17 277.035 205.336 278.509C204.501 278.582 203.742 279.043 203.197 279.807C202.583 280.667 201.896 281.461 201.157 282.165C198.874 284.339 196.054 285.623 193.002 285.876C178.085 287.112 166.64 287.617 157.842 287.617ZM128.729 276.513C129.007 276.513 129.274 276.66 129.458 276.922C129.67 277.224 129.742 277.636 129.649 278.017C129.449 278.833 129.552 279.512 129.973 280.153C131.202 282.026 135.537 284.402 149.211 285.085C159.57 285.603 174.259 285.083 192.872 283.541C195.539 283.319 197.995 282.206 199.975 280.321C200.618 279.709 201.214 279.019 201.748 278.271C202.628 277.037 203.854 276.292 205.199 276.175C224.843 274.455 230.473 269.5 230.702 266.843C230.841 265.242 229.047 262.846 223.61 260.904L89.9783 256.52C89.9398 256.519 89.9017 256.515 89.8636 256.508C82.7037 255.218 77.6458 256.094 74.4008 259.184C74.0114 259.555 73.9326 260.215 74.2213 260.688C75.217 262.316 77.4955 263.58 80.9936 264.443C81.4019 264.544 81.7103 264.955 81.7571 265.459C81.8038 265.964 81.5782 266.448 81.1986 266.657C78.4086 268.194 78.8096 269.339 78.9606 269.77C79.1285 270.249 79.4832 270.656 79.9337 270.886C84.9631 273.457 91.7889 274.666 100.807 274.562C101.103 274.575 101.385 274.723 101.569 275.006C101.753 275.29 101.819 275.661 101.748 276.012C101.635 276.573 101.761 276.843 101.915 277.05C104.462 280.505 122.629 277.507 128.6 276.523C128.643 276.516 128.686 276.513 128.729 276.513Z" fill="#05046A"/>
<path d="M80.7877 306.325C79.0078 295.598 78.7314 284.665 78.8828 273.784C78.8862 273.569 79.0322 273.397 79.2089 273.401C79.3803 273.405 79.5176 273.574 79.5229 273.781C79.7955 284.528 80.4961 295.376 82.6586 305.798C82.9416 307.337 81.0944 307.873 80.7877 306.325Z" fill="#05046A"/>
<path d="M101.776 275.772C101.456 281.765 101.393 287.787 101.833 293.774C101.858 294.103 101.659 294.395 101.388 294.425C101.129 294.454 100.898 294.229 100.858 293.92C100.099 287.894 99.8465 281.784 99.8565 275.693C99.8576 275.046 100.288 274.523 100.819 274.524C101.371 274.523 101.814 275.101 101.776 275.772Z" fill="#05046A"/>
<path d="M129.668 277.923C128.994 281.623 129.415 285.666 129.697 289.477C130.021 293.437 130.365 297.451 130.269 301.478C130.252 301.997 129.607 302.015 129.589 301.478C129.478 297.526 128.937 293.618 128.408 289.682C127.899 285.63 127.253 281.625 127.789 277.443C128.052 275.869 129.945 276.342 129.668 277.923Z" fill="#05046A"/>
<path d="M171.214 319.126C167.19 317.946 166.952 311.926 166.904 307.891C166.868 303.852 167.035 299.862 167.007 295.839C167.006 295.539 167.204 295.294 167.45 295.292C167.688 295.29 167.884 295.518 167.898 295.804C167.993 297.815 168.052 299.828 168.103 301.835C168.251 305.698 168.153 309.855 169.04 313.523C169.456 315.187 170.263 316.564 171.684 316.856C172.934 317.258 172.477 319.495 171.214 319.126Z" fill="#05046A"/>
<path d="M198.305 283.205C199.017 288.613 198.932 294.074 198.576 299.492C198.564 299.666 198.439 299.796 198.296 299.782C198.16 299.769 198.057 299.628 198.057 299.465C198.062 296.779 197.994 294.096 197.8 291.437C197.606 288.78 197.285 286.144 196.773 283.585C196.554 282.307 198.093 281.917 198.305 283.205Z" fill="#05046A"/>
<path d="M203.152 311.881C203.509 311.207 203.628 310.086 203.693 309.207C203.771 308.152 203.776 307.052 203.764 305.952C203.618 299.257 203.013 292.549 202.772 285.838C202.754 285.216 203.516 285.12 203.582 285.765C203.945 290.222 204.414 294.663 204.853 299.125C205.177 303.103 205.765 307.132 205.328 311.161C205.232 311.787 205.107 312.447 204.764 313.153C204.051 314.502 202.432 313.231 203.152 311.881Z" fill="#05046A"/>
<g opacity="0.3">
<path d="M153.928 319.386C157.825 319.871 161.564 316.754 163.672 312.682C165.779 308.611 166.549 303.722 167.112 298.94C166.82 304.236 167.271 309.595 168.439 314.705C168.553 315.2 168.673 315.728 168.55 316.22C168.339 317.068 167.535 317.413 166.836 317.617C162.697 318.825 158.424 319.336 154.173 319.131" fill="#05046A"/>
</g>
<g opacity="0.3">
<path d="M204.34 293.088C204.391 297.099 205.928 301.048 208.446 303.633C210.963 306.217 214.417 307.393 217.669 306.772C213.999 307.517 210.328 308.263 206.658 309.008C205.981 309.146 205.17 309.229 204.721 308.595C204.429 308.183 204.395 307.593 204.375 307.048C204.204 302.428 204.034 297.808 203.864 293.188" fill="#05046A"/>
</g>
<g opacity="0.3">
<path d="M132.39 309.496C130.808 305.497 130.34 301.028 129.891 296.645C129.894 297.069 129.896 297.493 129.899 297.917C129.872 297.633 129.846 297.349 129.818 297.065C129.889 301.55 129.156 306.052 127.686 310.164C127.031 311.996 126.026 313.943 124.413 314.303L123.769 314.711C125.503 314.703 127.235 314.503 128.939 314.115C129.418 314.006 129.929 313.859 130.255 313.417C130.291 313.369 130.32 313.317 130.35 313.264C130.424 313.507 130.512 313.744 130.62 313.972C131.436 315.718 133.129 316.64 134.784 317.024C136.44 317.408 138.152 317.37 139.803 317.78L140.557 317.811C136.885 317.015 133.972 313.494 132.39 309.496Z" fill="#05046A"/>
</g>
<g opacity="0.3">
<path d="M92.9397 311.476C96.0195 310.447 98.327 307.18 99.5363 303.577C100.746 299.975 101.025 296.026 101.291 292.147C101.723 295.657 101.303 299.228 101.238 302.776C101.172 306.324 101.524 310.081 103.258 312.932C102.566 311.791 101.477 311.021 100.322 310.853C97.9933 310.515 95.5447 312.491 93.3966 311.344" fill="#05046A"/>
</g>
<g filter="url(#filter0_d_889_49)">
<path d="M374.53 275.775L365.394 293.237C364.744 294.477 363.049 294.675 362.132 293.617L346.59 275.703C346.59 275.703 367.011 271.439 366.943 271.847C366.874 272.255 374.53 275.775 374.53 275.775Z" fill="#B5D1DB"/>
<path d="M332.89 232.29C343.889 238.924 379.3 260.879 392.701 269.195C394.471 270.293 393.9 272.999 391.839 273.295L374.53 275.775L365.422 293.182C365.056 293.881 364.365 294.257 363.661 294.271C363.09 294.282 364.79 279.127 364.79 279.127C364.79 279.127 345.369 289.042 336.161 293.719C333.893 294.871 331.199 293.267 331.133 290.724C330.801 277.735 329.971 245.259 329.687 234.157C329.644 232.487 331.46 231.428 332.89 232.29Z" fill="white"/>
<path d="M363.661 294.27C363.09 294.281 364.79 279.127 364.79 279.127L340.881 247.714C340.719 247.502 340.999 247.237 341.203 247.409L374.531 275.775L365.423 293.182C365.056 293.881 364.365 294.256 363.661 294.27Z" fill="#D6E2EA"/>
</g>
<path d="M368.972 299.761C406.188 327.522 471.228 343.687 511.247 311.013C527.397 297.828 536.863 277.816 532.873 256.348C527.831 229.219 499.747 229.467 488.494 253.6C470.008 293.245 492.883 350.051 524.463 374.32C542.715 388.346 566.597 392.505 586.724 379.477" stroke="white" stroke-width="2" stroke-miterlimit="10" stroke-dasharray="5 5"/>
<g opacity="0.2">
<path fill-rule="evenodd" clip-rule="evenodd" d="M138.838 259.774C157.424 259.774 172.492 262.488 172.492 265.835C172.492 269.182 157.424 271.896 138.838 271.896C120.251 271.896 105.184 269.182 105.184 265.835C105.184 262.488 120.251 259.774 138.838 259.774Z" fill="#010074"/>
</g>
<path d="M109.612 238.35C109.229 238.35 108.916 238.043 108.909 237.659C108.813 232.206 109.38 227.681 110.593 224.209C110.721 223.842 111.123 223.649 111.489 223.777C111.856 223.905 112.049 224.306 111.921 224.673C110.763 227.987 110.222 232.348 110.316 237.634C110.322 238.023 110.013 238.343 109.625 238.35C109.621 238.35 109.616 238.35 109.612 238.35Z" fill="#010074"/>
<path fill-rule="evenodd" clip-rule="evenodd" d="M168.532 235.056C168.434 247.747 162.356 262.857 139.247 262.929C117.465 262.998 109.237 249.559 109.598 235.443C95.0832 247.803 94.1982 229.781 113.247 214.877C112.007 201.182 116.283 191.488 126.073 185.796C141.23 173.483 146.888 171.493 143.046 179.826C150.538 174.471 152.713 176.148 149.569 184.857C161.21 189.776 166.352 199.912 164.994 215.264C186.35 234.012 180.343 245.916 168.532 235.056Z" fill="#575D93"/>
<path d="M139.078 263.633C129.105 263.633 121.355 260.879 116.042 255.445C111.533 250.834 109.021 244.303 108.889 236.929C105.328 239.711 102.403 240.782 100.383 240.032C99.5468 239.721 98.4879 238.948 98.1894 237.027C97.7984 234.511 98.9022 230.853 101.218 226.991C103.04 223.951 106.472 219.347 112.513 214.559C111.37 200.853 115.796 190.981 125.672 185.216C139.647 173.867 142.907 173.4 144.249 174.444C145.024 175.045 145.129 176.162 144.547 177.967C147.562 176.08 149.544 175.616 150.712 176.5C152.054 177.517 151.974 180.058 150.45 184.473C161.834 189.559 166.972 199.816 165.725 214.971C170.774 219.438 174.726 223.936 177.166 227.993C179.328 231.588 180.265 234.787 179.806 237.003C179.524 238.362 178.713 239.321 177.521 239.705C175.424 240.38 172.437 239.241 169.196 236.568C168.962 241.78 167.634 248.613 163.062 254.171C157.924 260.416 149.913 263.599 139.249 263.632C139.192 263.633 139.135 263.633 139.078 263.633ZM109.598 234.739C109.701 234.739 109.804 234.762 109.901 234.808C110.151 234.927 110.308 235.183 110.301 235.46C110.106 243.065 112.502 249.813 117.048 254.462C122.086 259.614 129.498 262.226 139.078 262.226C139.134 262.226 139.189 262.226 139.245 262.226C164.855 262.145 167.766 243.194 167.829 235.05C167.831 234.772 167.997 234.521 168.252 234.411C168.507 234.3 168.804 234.35 169.008 234.538C172.826 238.049 175.687 238.818 177.09 238.366C177.799 238.138 178.249 237.583 178.429 236.717C179.191 233.044 175.188 225.149 164.53 215.793C164.361 215.645 164.273 215.425 164.293 215.202C165.633 200.05 160.727 190.335 149.295 185.505C148.951 185.359 148.781 184.97 148.908 184.618C150.938 178.993 150.152 177.841 149.862 177.621C149.575 177.404 148.264 176.961 143.455 180.398C143.195 180.583 142.844 180.571 142.598 180.367C142.352 180.164 142.274 179.821 142.407 179.531C143.997 176.083 143.393 175.559 143.387 175.554C143.309 175.494 142.518 175.036 138.609 177.415C135.692 179.19 131.623 182.193 126.516 186.342C126.488 186.365 126.458 186.386 126.426 186.404C116.939 191.92 112.741 201.478 113.947 214.813C113.969 215.051 113.868 215.283 113.68 215.431C107.622 220.17 104.215 224.727 102.424 227.714C100.306 231.246 99.2428 234.647 99.5792 236.811C99.7348 237.812 100.17 238.452 100.872 238.713C101.668 239.009 104.067 239.229 109.142 234.907C109.272 234.796 109.434 234.739 109.598 234.739Z" fill="#010074"/>
<g opacity="0.5">
<path fill-rule="evenodd" clip-rule="evenodd" d="M143.934 179.207C150.705 174.621 152.585 176.504 149.569 184.857C161.211 189.776 166.352 199.912 164.994 215.264C179.544 228.037 181.39 237.63 177.356 239.015C178.121 233.703 173.78 225.583 164.113 215.542C164.294 197.447 156.601 186.441 141.833 183.918C143.541 183.25 145.661 183.213 148.191 183.808C151.245 176.635 149.605 175.584 143.271 180.657C143.477 180.164 143.699 179.681 143.934 179.207Z" fill="white"/>
</g>
<g opacity="0.5">
<path fill-rule="evenodd" clip-rule="evenodd" d="M99.4131 238.389C97.1516 234.912 101.234 224.276 113.247 214.877C112.008 201.182 116.283 191.488 126.073 185.796C140.546 174.039 146.357 171.695 143.507 178.761C143.187 178.982 142.85 179.209 142.495 179.441C145.064 174.73 141.857 175.818 132.875 182.703C134.972 182.476 135.995 182.826 135.944 183.753C122.273 185.926 114.128 196.673 113.967 215.294C103.921 226.093 99.6599 234.22 100.741 239.18C100.292 238.924 99.8502 238.66 99.4131 238.389Z" fill="white"/>
</g>
<path fill-rule="evenodd" clip-rule="evenodd" d="M154.702 259.807C150.688 261.746 145.616 262.91 139.247 262.929C133.286 262.948 128.342 261.954 124.309 260.212C111.385 252.62 108.531 227.863 122.04 213.108C113.531 199.214 126.876 185.083 139.178 194.2C151.481 185.083 164.826 199.214 156.317 213.108C169.595 227.611 167.064 251.776 154.702 259.807Z" fill="white"/>
<path d="M168.502 237.04C168.499 237.04 168.497 237.04 168.495 237.04C168.106 237.036 167.795 236.718 167.799 236.329C167.83 233.308 167.198 229.503 165.921 225.02C165.814 224.647 166.031 224.257 166.405 224.151C166.778 224.045 167.167 224.261 167.274 224.635C168.588 229.247 169.238 233.187 169.205 236.344C169.201 236.73 168.887 237.04 168.502 237.04Z" fill="#010074"/>
<path d="M124.576 187.43C124.336 187.43 124.103 187.308 123.971 187.088C123.772 186.755 123.881 186.323 124.214 186.123C128.024 183.844 131.831 182.55 135.531 182.276C135.922 182.25 136.256 182.538 136.285 182.925C136.313 183.313 136.022 183.65 135.635 183.679C132.156 183.936 128.556 185.165 124.936 187.33C124.823 187.398 124.699 187.43 124.576 187.43Z" fill="#000072"/>
<path d="M151.478 186.444C151.373 186.444 151.267 186.42 151.167 186.371C148.196 184.9 145.187 184.05 142.224 183.845C141.837 183.818 141.545 183.482 141.572 183.094C141.598 182.707 141.931 182.414 142.322 182.441C145.469 182.66 148.655 183.558 151.79 185.11C152.139 185.282 152.281 185.704 152.109 186.052C151.986 186.3 151.737 186.444 151.478 186.444Z" fill="#000072"/>
<path fill-rule="evenodd" clip-rule="evenodd" d="M130.562 202.742C132.297 202.83 133.601 204.923 133.475 207.416C133.349 209.91 131.84 211.86 130.105 211.773C128.37 211.685 127.066 209.592 127.192 207.099C127.318 204.605 128.827 202.654 130.562 202.742Z" fill="#010074"/>
<path fill-rule="evenodd" clip-rule="evenodd" d="M131.881 204.718C132.398 204.744 132.781 205.488 132.736 206.378C132.691 207.269 132.235 207.97 131.718 207.944C131.201 207.917 130.818 207.174 130.863 206.283C130.908 205.393 131.364 204.692 131.881 204.718Z" fill="white"/>
<g opacity="0.35">
<path fill-rule="evenodd" clip-rule="evenodd" d="M128.36 206.975C128.613 206.922 128.965 207.588 129.144 208.462C129.324 209.336 129.264 210.086 129.01 210.138C128.756 210.19 128.405 209.524 128.226 208.651C128.046 207.777 128.106 207.027 128.36 206.975Z" fill="white"/>
</g>
<path fill-rule="evenodd" clip-rule="evenodd" d="M147.502 202.742C145.767 202.83 144.462 204.923 144.589 207.416C144.715 209.91 146.223 211.86 147.959 211.773C149.694 211.685 150.998 209.592 150.872 207.099C150.746 204.605 149.237 202.654 147.502 202.742Z" fill="#010074"/>
<path fill-rule="evenodd" clip-rule="evenodd" d="M146.182 204.718C145.665 204.744 145.282 205.488 145.327 206.378C145.372 207.269 145.828 207.97 146.345 207.944C146.863 207.917 147.245 207.174 147.2 206.283C147.155 205.393 146.7 204.692 146.182 204.718Z" fill="white"/>
<g opacity="0.35">
<path fill-rule="evenodd" clip-rule="evenodd" d="M149.704 206.975C149.45 206.922 149.099 207.588 148.92 208.462C148.74 209.336 148.8 210.086 149.054 210.138C149.308 210.19 149.659 209.524 149.838 208.651C150.018 207.777 149.958 207.027 149.704 206.975Z" fill="white"/>
</g>
<path d="M139.078 263.633C129.105 263.633 121.355 260.879 116.042 255.445C111.533 250.834 109.021 244.303 108.889 236.929C105.328 239.711 102.403 240.782 100.383 240.032C99.5468 239.721 98.4879 238.948 98.1894 237.027C97.7984 234.511 98.9022 230.853 101.218 226.991C103.04 223.951 106.472 219.347 112.513 214.559C111.37 200.853 115.796 190.981 125.672 185.216C139.647 173.867 142.907 173.4 144.249 174.444C145.024 175.045 145.129 176.162 144.547 177.967C147.562 176.08 149.544 175.616 150.712 176.5C152.054 177.517 151.974 180.058 150.45 184.473C161.834 189.559 166.972 199.816 165.725 214.971C170.774 219.438 174.726 223.936 177.166 227.993C179.328 231.588 180.265 234.787 179.806 237.003C179.524 238.362 178.713 239.321 177.521 239.705C175.424 240.38 172.437 239.241 169.196 236.568C168.962 241.78 167.634 248.613 163.062 254.171C157.924 260.416 149.913 263.599 139.249 263.632C139.192 263.633 139.135 263.633 139.078 263.633ZM109.598 234.739C109.701 234.739 109.804 234.762 109.901 234.808C110.151 234.927 110.308 235.183 110.301 235.46C110.106 243.065 112.502 249.813 117.048 254.462C122.086 259.614 129.498 262.226 139.078 262.226C139.134 262.226 139.189 262.226 139.245 262.226C164.855 262.145 167.766 243.194 167.829 235.05C167.831 234.772 167.997 234.521 168.252 234.411C168.507 234.3 168.804 234.35 169.008 234.538C172.826 238.049 175.687 238.818 177.09 238.366C177.799 238.138 178.249 237.583 178.429 236.717C179.191 233.044 175.188 225.149 164.53 215.793C164.361 215.645 164.273 215.425 164.293 215.202C165.633 200.05 160.727 190.335 149.295 185.505C148.951 185.359 148.781 184.97 148.908 184.618C150.938 178.993 150.152 177.841 149.862 177.621C149.575 177.404 148.264 176.961 143.455 180.398C143.195 180.583 142.844 180.571 142.598 180.367C142.352 180.164 142.274 179.821 142.407 179.531C143.997 176.083 143.393 175.559 143.387 175.554C143.309 175.494 142.518 175.036 138.609 177.415C135.692 179.19 131.623 182.193 126.516 186.342C126.488 186.365 126.458 186.386 126.426 186.404C116.939 191.92 112.741 201.478 113.947 214.813C113.969 215.051 113.868 215.283 113.68 215.431C107.622 220.17 104.215 224.727 102.424 227.714C100.306 231.246 99.2428 234.647 99.5792 236.811C99.7348 237.812 100.17 238.452 100.872 238.713C101.668 239.009 104.067 239.229 109.142 234.907C109.272 234.796 109.434 234.739 109.598 234.739Z" fill="#000072"/>
<g opacity="0.3">
<path fill-rule="evenodd" clip-rule="evenodd" d="M168.532 235.056C168.434 247.747 162.356 262.857 139.247 262.929C117.465 262.998 109.237 249.559 109.598 235.442C106.68 237.927 104.314 239.183 102.549 239.484C101.278 239.555 100.178 239.095 99.2506 238.105L99.2456 238.097C103.087 238.348 106.876 233.67 110.614 224.062C111.205 223.456 111.641 223.545 111.92 224.33C112.085 248.437 119.771 257.977 139.231 258.103C158.268 258.084 165.677 248.808 165.842 224.7C166.101 223.973 166.563 223.843 167.226 224.309C171.613 234.488 175.382 239.111 178.536 238.178C177.049 240.099 173.255 239.399 168.532 235.056Z" fill="#000072"/>
</g>
<path d="M161.86 268.015C160.651 268.015 158.919 267.337 156.498 265.936C152.468 267.66 150.244 267.928 149.31 266.808C148.419 265.741 148.98 263.839 151.129 260.641C151.346 260.319 151.782 260.233 152.105 260.45C152.427 260.667 152.513 261.104 152.296 261.426C149.849 265.068 150.327 265.832 150.39 265.907C150.462 265.994 151.246 266.696 156.265 264.505C156.472 264.415 156.709 264.429 156.903 264.544C161.148 267.048 162.154 266.619 162.313 266.508C162.519 266.364 162.564 265.863 162.434 265.169C162.393 264.948 162.459 264.72 162.613 264.557C162.768 264.393 162.989 264.314 163.214 264.342C166.573 264.769 167.478 264.32 167.653 264.199C167.414 263.542 164.358 261.349 156.172 259.644C155.792 259.565 155.548 259.193 155.627 258.813C155.707 258.432 156.079 258.188 156.459 258.268C163.016 259.633 169.453 262.076 169.055 264.456C168.85 265.679 167.121 266.141 163.912 265.835C163.917 266.675 163.652 267.287 163.12 267.66C162.784 267.896 162.368 268.015 161.86 268.015Z" fill="#010074"/>
<path fill-rule="evenodd" clip-rule="evenodd" d="M151.713 261.034C147.765 266.909 149.376 268.28 156.546 265.15C161.492 268.068 163.685 268.031 163.125 265.04C172.247 266.2 169.148 261.629 156.316 258.956C154.86 259.797 153.302 260.49 151.713 261.034Z" fill="#FDAF1D"/>
<path d="M161.86 268.015C160.651 268.015 158.919 267.338 156.498 265.936C152.468 267.66 150.244 267.928 149.31 266.808C148.419 265.741 148.98 263.839 151.129 260.641C151.214 260.514 151.34 260.418 151.485 260.368C153.078 259.823 154.585 259.143 155.964 258.347C156.114 258.261 156.29 258.233 156.459 258.268C163.016 259.633 169.453 262.076 169.055 264.456C168.85 265.679 167.121 266.141 163.912 265.835C163.917 266.675 163.652 267.287 163.12 267.66C162.784 267.896 162.368 268.015 161.86 268.015ZM156.546 264.447C156.67 264.447 156.793 264.479 156.903 264.544C161.148 267.048 162.154 266.619 162.313 266.508C162.519 266.364 162.564 265.863 162.434 265.169C162.393 264.948 162.459 264.72 162.614 264.557C162.768 264.393 162.989 264.314 163.214 264.342C166.573 264.769 167.478 264.32 167.653 264.199C167.416 263.549 164.422 261.396 156.432 259.699C155.106 260.445 153.673 261.091 152.167 261.621C149.866 265.096 150.328 265.833 150.39 265.907C150.462 265.994 151.246 266.696 156.265 264.505C156.355 264.466 156.451 264.447 156.546 264.447Z" fill="#010074"/>
<g opacity="0.73">
<path fill-rule="evenodd" clip-rule="evenodd" d="M163.239 265.053C171.833 266.112 169.338 261.998 157.907 259.309C157.362 259.48 156.807 259.661 156.238 259.854C165.905 262.799 168.422 264.438 162.965 264.708C163.056 264.825 163.148 264.94 163.239 265.053Z" fill="white"/>
</g>
<g opacity="0.3">
<path fill-rule="evenodd" clip-rule="evenodd" d="M151.713 261.034C147.765 266.909 149.376 268.28 156.546 265.15C161.492 268.068 163.685 268.031 163.125 265.04C163.365 265.07 163.595 265.096 163.818 265.118C163.478 264.723 163.091 264.361 162.655 264.043C163.075 266.028 161.025 266.05 156.506 264.111C151.455 265.085 150.948 263.749 154.986 260.103C154.886 260.005 154.785 259.91 154.681 259.819C153.716 260.284 152.721 260.689 151.713 261.034Z" fill="#010074"/>
</g>
<path d="M163.028 267.434C162.963 267.434 162.898 267.425 162.833 267.406C162.459 267.299 162.244 266.909 162.352 266.536C162.732 265.22 162.074 263.916 160.342 262.55C160.037 262.309 159.984 261.867 160.225 261.562C160.465 261.257 160.908 261.205 161.212 261.445C163.414 263.181 164.252 265.025 163.703 266.926C163.614 267.234 163.333 267.434 163.028 267.434Z" fill="#000072"/>
<path d="M161.86 268.015C160.651 268.015 158.919 267.338 156.498 265.936C152.468 267.66 150.244 267.928 149.31 266.808C148.419 265.741 148.98 263.839 151.129 260.641C151.214 260.514 151.34 260.418 151.485 260.368C153.078 259.823 154.585 259.143 155.964 258.347C156.114 258.261 156.29 258.233 156.459 258.268C163.016 259.633 169.453 262.076 169.055 264.456C168.85 265.679 167.121 266.141 163.912 265.835C163.917 266.675 163.652 267.287 163.12 267.66C162.784 267.896 162.368 268.015 161.86 268.015ZM156.546 264.447C156.67 264.447 156.793 264.479 156.903 264.544C161.148 267.048 162.154 266.619 162.313 266.508C162.519 266.364 162.564 265.863 162.434 265.169C162.393 264.948 162.459 264.72 162.614 264.557C162.768 264.393 162.989 264.314 163.214 264.342C166.573 264.769 167.478 264.32 167.653 264.199C167.416 263.549 164.422 261.396 156.432 259.699C155.106 260.445 153.673 261.091 152.167 261.621C149.866 265.096 150.328 265.833 150.39 265.907C150.462 265.994 151.246 266.696 156.265 264.505C156.355 264.466 156.451 264.447 156.546 264.447Z" fill="#000072"/>
<path d="M116.039 268.015C115.531 268.015 115.115 267.896 114.78 267.66C114.248 267.287 113.983 266.675 113.988 265.835C110.778 266.141 109.05 265.679 108.845 264.456C108.447 262.076 114.884 259.633 121.441 258.268C121.821 258.188 122.194 258.433 122.273 258.813C122.352 259.193 122.108 259.565 121.728 259.645C113.542 261.349 110.486 263.542 110.247 264.199C110.422 264.32 111.327 264.769 114.686 264.342C114.91 264.314 115.132 264.393 115.287 264.557C115.441 264.721 115.508 264.948 115.466 265.169C115.336 265.863 115.381 266.364 115.587 266.508C115.745 266.62 116.751 267.048 120.996 264.544C121.19 264.429 121.428 264.415 121.635 264.505C126.653 266.696 127.437 265.993 127.51 265.907C127.573 265.832 128.051 265.068 125.603 261.426C125.387 261.104 125.472 260.667 125.794 260.45C126.117 260.233 126.554 260.319 126.77 260.641C128.919 263.839 129.481 265.74 128.59 266.808C127.655 267.928 125.432 267.661 121.401 265.937C118.981 267.338 117.249 268.015 116.039 268.015Z" fill="#010074"/>
<path fill-rule="evenodd" clip-rule="evenodd" d="M126.187 261.034C130.135 266.909 128.523 268.28 121.353 265.15C116.407 268.068 114.214 268.031 114.775 265.04C105.652 266.2 108.751 261.629 121.584 258.956C123.04 259.797 124.598 260.49 126.187 261.034Z" fill="#FDAF1D"/>
<path d="M116.039 268.015C115.531 268.015 115.115 267.896 114.78 267.66C114.248 267.287 113.983 266.675 113.988 265.835C110.778 266.141 109.05 265.679 108.845 264.456C108.447 262.076 114.884 259.633 121.441 258.268C121.61 258.233 121.786 258.261 121.936 258.347C123.315 259.143 124.822 259.823 126.415 260.368C126.56 260.418 126.685 260.514 126.771 260.641C128.919 263.839 129.481 265.74 128.59 266.808C127.655 267.928 125.432 267.661 121.401 265.936C118.981 267.338 117.249 268.015 116.039 268.015ZM114.775 264.336C114.967 264.336 115.153 264.415 115.287 264.557C115.441 264.721 115.508 264.948 115.466 265.169C115.336 265.863 115.381 266.364 115.587 266.508C115.745 266.62 116.751 267.048 120.996 264.544C121.19 264.429 121.428 264.415 121.635 264.505C126.653 266.696 127.437 265.993 127.51 265.907C127.572 265.833 128.034 265.096 125.733 261.621C124.227 261.091 122.795 260.445 121.468 259.699C113.478 261.396 110.484 263.549 110.247 264.199C110.422 264.32 111.327 264.769 114.686 264.342C114.716 264.338 114.746 264.336 114.775 264.336Z" fill="#010074"/>
<g opacity="0.73">
<path fill-rule="evenodd" clip-rule="evenodd" d="M114.661 265.053C106.067 266.112 108.562 261.998 119.993 259.309C120.537 259.48 121.092 259.661 121.661 259.854C111.994 262.799 109.478 264.438 114.935 264.708C114.844 264.825 114.752 264.94 114.661 265.053Z" fill="white"/>
</g>
<g opacity="0.3">
<path fill-rule="evenodd" clip-rule="evenodd" d="M126.187 261.034C130.135 266.909 128.523 268.28 121.353 265.15C116.407 268.068 114.214 268.031 114.775 265.04C114.534 265.07 114.305 265.096 114.082 265.118C114.421 264.723 114.809 264.361 115.244 264.043C114.825 266.028 116.875 266.05 121.394 264.111C126.445 265.085 126.951 263.749 122.914 260.103C123.013 260.005 123.115 259.91 123.219 259.819C124.183 260.284 125.179 260.689 126.187 261.034Z" fill="#010074"/>
</g>
<path d="M114.871 267.434C114.566 267.434 114.285 267.234 114.196 266.926C113.648 265.025 114.486 263.182 116.687 261.445C116.992 261.205 117.434 261.257 117.675 261.562C117.915 261.867 117.863 262.309 117.558 262.55C115.826 263.916 115.168 265.22 115.547 266.536C115.655 266.909 115.439 267.299 115.066 267.407C115.001 267.425 114.936 267.434 114.871 267.434Z" fill="#000072"/>
<path d="M145.403 214.164C145.384 214.238 145.341 214.291 145.272 214.321L140.71 221.04C139.929 222.189 138.234 222.175 137.473 221.014L133.081 214.321C133.005 214.286 132.962 214.224 132.947 214.138C132.773 213.181 136.089 209.261 139.176 209.261C142.29 209.261 145.64 213.257 145.403 214.164Z" fill="#FDAF1D"/>
<g opacity="0.3">
<path d="M145.403 214.164C145.384 214.238 145.341 214.291 145.272 214.32L140.71 221.04C139.929 222.188 138.234 222.175 137.473 221.014L133.081 214.32C133.005 214.286 132.962 214.224 132.947 214.138C133.029 213.939 133.081 213.822 133.081 213.822L139.016 215.577L145.334 213.985L145.403 214.164Z" fill="#000072"/>
</g>
<path d="M139.211 210.472C138.072 210.472 137.145 211.193 136.648 211.681C136.559 211.768 136.659 211.912 136.773 211.862C138.065 211.296 139.211 211.296 139.211 211.296C139.212 211.296 140.342 211.319 141.676 211.887C141.79 211.935 141.887 211.792 141.799 211.705C141.309 211.217 140.37 210.472 139.211 210.472Z" fill="white"/>
<path d="M134.661 214.277L138.431 219.588C138.774 220.07 139.291 220.07 139.633 219.588L143.205 214.564L139.032 215.403L134.661 214.277Z" fill="#010074"/>
<path d="M136.884 215.246L138.766 217.897C138.937 218.138 139.195 218.138 139.366 217.897L141.149 215.389L139.066 215.808L136.884 215.246Z" fill="#F23860"/>
<path d="M139.016 216.281C138.949 216.281 138.882 216.271 138.817 216.252L132.882 214.497C132.509 214.387 132.297 213.995 132.407 213.623C132.517 213.251 132.909 213.038 133.281 213.148L139.031 214.849L145.162 213.304C145.538 213.209 145.921 213.437 146.016 213.814C146.111 214.191 145.882 214.573 145.506 214.668L139.188 216.26C139.131 216.274 139.074 216.281 139.016 216.281Z" fill="#010074"/>
<path d="M139.099 222.597C139.092 222.597 139.085 222.597 139.078 222.597C138.191 222.59 137.371 222.142 136.884 221.401L132.566 214.819C132.328 214.614 132.164 214.263 132.27 213.76C132.59 212.252 135.885 208.559 139.176 208.559C142.425 208.559 145.784 212.304 146.086 213.774C146.189 214.277 146.02 214.625 145.778 214.827L141.291 221.436C140.796 222.164 139.978 222.597 139.099 222.597ZM133.673 213.941L138.06 220.629C138.292 220.982 138.667 221.187 139.089 221.19C139.093 221.19 139.096 221.19 139.1 221.19C139.518 221.19 139.892 220.992 140.127 220.646L144.679 213.941C144.355 213.006 141.681 209.965 139.176 209.965C136.663 209.965 133.991 213.01 133.673 213.941Z" fill="#010074"/>
<path d="M116.039 268.015C115.531 268.015 115.115 267.896 114.78 267.66C114.248 267.287 113.983 266.675 113.988 265.835C110.778 266.141 109.05 265.679 108.845 264.456C108.447 262.076 114.884 259.633 121.441 258.268C121.61 258.233 121.786 258.261 121.936 258.347C123.315 259.143 124.822 259.823 126.415 260.368C126.56 260.418 126.685 260.514 126.771 260.641C128.919 263.839 129.481 265.74 128.59 266.808C127.655 267.928 125.432 267.661 121.401 265.936C118.981 267.338 117.249 268.015 116.039 268.015ZM114.775 264.336C114.967 264.336 115.153 264.415 115.287 264.557C115.441 264.721 115.508 264.948 115.466 265.169C115.336 265.863 115.381 266.364 115.587 266.508C115.745 266.62 116.751 267.048 120.996 264.544C121.19 264.429 121.428 264.415 121.635 264.505C126.653 266.696 127.437 265.993 127.51 265.907C127.572 265.833 128.034 265.096 125.733 261.621C124.227 261.091 122.795 260.445 121.468 259.699C113.478 261.396 110.484 263.549 110.247 264.199C110.422 264.32 111.327 264.769 114.686 264.342C114.716 264.338 114.746 264.336 114.775 264.336Z" fill="#000072"/>
</g>
<defs>
<filter id="filter0_d_889_49" x="319.686" y="221.983" width="84.0699" height="82.3196" filterUnits="userSpaceOnUse" color-interpolation-filters="sRGB">
<feFlood flood-opacity="0" result="BackgroundImageFix"/>
<feColorMatrix in="SourceAlpha" type="matrix" values="0 0 0 0 0 0 0 0 0 0 0 0 0 0 0 0 0 0 127 0" result="hardAlpha"/>
<feOffset/>
<feGaussianBlur stdDeviation="5"/>
<feComposite in2="hardAlpha" operator="out"/>
<feColorMatrix type="matrix" values="0 0 0 0 0 0 0 0 0 0 0 0 0 0 0 0 0 0 0.1 0"/>
<feBlend mode="normal" in2="BackgroundImageFix" result="effect1_dropShadow_889_49"/>
<feBlend mode="normal" in="SourceGraphic" in2="effect1_dropShadow_889_49" result="shape"/>
</filter>
<clipPath id="clip0_889_49">
<rect width="640" height="400" fill="white"/>
</clipPath>
</defs>
</svg>
