<svg width="640" height="400" viewBox="0 0 640 400" fill="none" xmlns="http://www.w3.org/2000/svg">
<rect width="640" height="400" fill="white"/>
<path d="M155 39C155 33.4772 159.477 29 165 29H589C593.418 29 597 32.5817 597 37V361C597 366.523 592.523 371 587 371H165C159.477 371 155 366.523 155 361V39Z" fill="#1E1E1E"/>
<path d="M155 39C155 33.4772 159.477 29 165 29H387C392.523 29 397 33.4772 397 39V361C397 366.523 392.523 371 387 371H165C159.477 371 155 366.523 155 361V39Z" fill="#2C2C2C"/>
<rect x="171" y="329" width="210" height="26" rx="13" fill="#444444"/>
<path d="M256.977 337.273V346H255.955L251.199 339.148H251.114V346H250.057V337.273H251.08L255.852 344.142H255.938V337.273H256.977ZM261.7 346.136C261.069 346.136 260.525 345.997 260.068 345.719C259.613 345.438 259.262 345.045 259.015 344.543C258.771 344.037 258.649 343.449 258.649 342.778C258.649 342.108 258.771 341.517 259.015 341.006C259.262 340.491 259.606 340.091 260.047 339.804C260.49 339.514 261.007 339.369 261.598 339.369C261.939 339.369 262.275 339.426 262.608 339.54C262.94 339.653 263.243 339.838 263.515 340.094C263.788 340.347 264.005 340.682 264.167 341.099C264.329 341.517 264.41 342.031 264.41 342.642V343.068H259.365V342.199H263.387C263.387 341.83 263.314 341.5 263.166 341.21C263.021 340.92 262.814 340.692 262.544 340.524C262.277 340.357 261.961 340.273 261.598 340.273C261.197 340.273 260.85 340.372 260.558 340.571C260.268 340.767 260.045 341.023 259.889 341.338C259.733 341.653 259.654 341.991 259.654 342.352V342.932C259.654 343.426 259.74 343.845 259.91 344.189C260.083 344.53 260.324 344.79 260.63 344.969C260.937 345.145 261.294 345.233 261.7 345.233C261.964 345.233 262.203 345.196 262.416 345.122C262.632 345.045 262.818 344.932 262.974 344.781C263.13 344.628 263.251 344.437 263.336 344.21L264.308 344.483C264.206 344.812 264.034 345.102 263.792 345.352C263.551 345.599 263.252 345.793 262.897 345.932C262.542 346.068 262.143 346.136 261.7 346.136ZM267.423 346L265.429 339.455H266.485L267.9 344.466H267.968L269.366 339.455H270.44L271.821 344.449H271.889L273.304 339.455H274.36L272.366 346H271.377L269.946 340.972H269.843L268.412 346H267.423ZM280.071 342.062V346H279.065V339.455H280.037V340.477H280.122C280.275 340.145 280.508 339.878 280.821 339.676C281.133 339.472 281.537 339.369 282.031 339.369C282.474 339.369 282.862 339.46 283.194 339.642C283.527 339.821 283.785 340.094 283.97 340.46C284.154 340.824 284.247 341.284 284.247 341.841V346H283.241V341.909C283.241 341.395 283.108 340.994 282.841 340.707C282.574 340.418 282.207 340.273 281.741 340.273C281.42 340.273 281.133 340.342 280.88 340.482C280.63 340.621 280.433 340.824 280.288 341.091C280.143 341.358 280.071 341.682 280.071 342.062ZM288.744 346.136C288.153 346.136 287.634 345.996 287.188 345.714C286.745 345.433 286.398 345.04 286.148 344.534C285.901 344.028 285.778 343.437 285.778 342.761C285.778 342.08 285.901 341.484 286.148 340.976C286.398 340.467 286.745 340.072 287.188 339.791C287.634 339.51 288.153 339.369 288.744 339.369C289.335 339.369 289.852 339.51 290.295 339.791C290.741 340.072 291.087 340.467 291.335 340.976C291.585 341.484 291.71 342.08 291.71 342.761C291.71 343.437 291.585 344.028 291.335 344.534C291.087 345.04 290.741 345.433 290.295 345.714C289.852 345.996 289.335 346.136 288.744 346.136ZM288.744 345.233C289.192 345.233 289.562 345.118 289.852 344.888C290.141 344.658 290.356 344.355 290.495 343.98C290.634 343.605 290.704 343.199 290.704 342.761C290.704 342.324 290.634 341.916 290.495 341.538C290.356 341.161 290.141 340.855 289.852 340.622C289.562 340.389 289.192 340.273 288.744 340.273C288.295 340.273 287.925 340.389 287.636 340.622C287.346 340.855 287.131 341.161 286.992 341.538C286.853 341.916 286.783 342.324 286.783 342.761C286.783 343.199 286.853 343.605 286.992 343.98C287.131 344.355 287.346 344.658 287.636 344.888C287.925 345.118 288.295 345.233 288.744 345.233ZM296.091 339.455V340.307H292.699V339.455H296.091ZM293.688 337.886H294.694V344.125C294.694 344.409 294.735 344.622 294.817 344.764C294.902 344.903 295.01 344.997 295.141 345.045C295.275 345.091 295.415 345.114 295.563 345.114C295.674 345.114 295.765 345.108 295.836 345.097C295.907 345.082 295.963 345.071 296.006 345.062L296.211 345.966C296.142 345.991 296.047 346.017 295.925 346.043C295.803 346.071 295.648 346.085 295.461 346.085C295.176 346.085 294.898 346.024 294.625 345.902C294.355 345.78 294.131 345.594 293.952 345.344C293.776 345.094 293.688 344.778 293.688 344.398V337.886ZM300.278 346.136C299.647 346.136 299.103 345.997 298.646 345.719C298.191 345.438 297.841 345.045 297.593 344.543C297.349 344.037 297.227 343.449 297.227 342.778C297.227 342.108 297.349 341.517 297.593 341.006C297.841 340.491 298.184 340.091 298.625 339.804C299.068 339.514 299.585 339.369 300.176 339.369C300.517 339.369 300.853 339.426 301.186 339.54C301.518 339.653 301.821 339.838 302.093 340.094C302.366 340.347 302.583 340.682 302.745 341.099C302.907 341.517 302.988 342.031 302.988 342.642V343.068H297.943V342.199H301.966C301.966 341.83 301.892 341.5 301.744 341.21C301.599 340.92 301.392 340.692 301.122 340.524C300.855 340.357 300.539 340.273 300.176 340.273C299.775 340.273 299.429 340.372 299.136 340.571C298.846 340.767 298.623 341.023 298.467 341.338C298.311 341.653 298.233 341.991 298.233 342.352V342.932C298.233 343.426 298.318 343.845 298.488 344.189C298.662 344.53 298.902 344.79 299.208 344.969C299.515 345.145 299.872 345.233 300.278 345.233C300.542 345.233 300.781 345.196 300.994 345.122C301.21 345.045 301.396 344.932 301.552 344.781C301.708 344.628 301.829 344.437 301.914 344.21L302.886 344.483C302.784 344.812 302.612 345.102 302.37 345.352C302.129 345.599 301.831 345.793 301.475 345.932C301.12 346.068 300.721 346.136 300.278 346.136Z" fill="white"/>
<rect x="97" y="193" width="240" height="32" rx="10" fill="#3C3C3C"/>
<rect x="113" y="85" width="240" height="32" rx="10" fill="#3C3C3C"/>
<rect x="129" y="135" width="240" height="40" rx="10" fill="#3C3C3C"/>
<path d="M158.828 147.722C158.961 147.722 159.088 147.774 159.182 147.868L164.132 152.818C164.327 153.013 164.327 153.33 164.132 153.525C163.651 154.005 163.06 154.113 162.629 154.113C162.452 154.113 162.294 154.095 162.168 154.074L159.035 157.208C159.042 157.236 159.049 157.265 159.056 157.296C159.11 157.53 159.17 157.855 159.195 158.221C159.242 158.923 159.163 159.908 158.475 160.596C158.28 160.791 157.963 160.791 157.768 160.596L154.939 157.768L151.757 160.95C151.562 161.145 150.538 161.852 150.343 161.657C150.148 161.462 150.855 160.438 151.05 160.243L154.232 157.061L151.404 154.232C151.208 154.037 151.208 153.72 151.404 153.525C152.092 152.837 153.077 152.758 153.779 152.805C154.144 152.83 154.47 152.89 154.704 152.944C154.735 152.951 154.764 152.958 154.792 152.965L157.926 149.832C157.904 149.706 157.886 149.548 157.886 149.371C157.886 148.94 157.994 148.349 158.475 147.868C158.569 147.774 158.696 147.722 158.828 147.722Z" fill="white"/>
<path d="M139.977 204.273V213H138.955L134.199 206.148H134.114V213H133.057V204.273H134.08L138.852 211.142H138.938V204.273H139.977ZM144.7 213.136C144.069 213.136 143.525 212.997 143.068 212.719C142.613 212.438 142.262 212.045 142.015 211.543C141.771 211.037 141.649 210.449 141.649 209.778C141.649 209.108 141.771 208.517 142.015 208.006C142.262 207.491 142.606 207.091 143.047 206.804C143.49 206.514 144.007 206.369 144.598 206.369C144.939 206.369 145.275 206.426 145.608 206.54C145.94 206.653 146.243 206.838 146.515 207.094C146.788 207.347 147.005 207.682 147.167 208.099C147.329 208.517 147.41 209.031 147.41 209.642V210.068H142.365V209.199H146.387C146.387 208.83 146.314 208.5 146.166 208.21C146.021 207.92 145.814 207.692 145.544 207.524C145.277 207.357 144.961 207.273 144.598 207.273C144.197 207.273 143.85 207.372 143.558 207.571C143.268 207.767 143.045 208.023 142.889 208.338C142.733 208.653 142.654 208.991 142.654 209.352V209.932C142.654 210.426 142.74 210.845 142.91 211.189C143.083 211.53 143.324 211.79 143.63 211.969C143.937 212.145 144.294 212.233 144.7 212.233C144.964 212.233 145.203 212.196 145.416 212.122C145.632 212.045 145.818 211.932 145.974 211.781C146.13 211.628 146.251 211.437 146.336 211.21L147.308 211.483C147.206 211.812 147.034 212.102 146.792 212.352C146.551 212.599 146.252 212.793 145.897 212.932C145.542 213.068 145.143 213.136 144.7 213.136ZM150.423 213L148.429 206.455H149.485L150.9 211.466H150.968L152.366 206.455H153.44L154.821 211.449H154.889L156.304 206.455H157.36L155.366 213H154.377L152.946 207.972H152.843L151.412 213H150.423ZM162.065 213V206.455H163.071V213H162.065ZM162.576 205.364C162.38 205.364 162.211 205.297 162.069 205.163C161.93 205.03 161.86 204.869 161.86 204.682C161.86 204.494 161.93 204.334 162.069 204.2C162.211 204.067 162.38 204 162.576 204C162.772 204 162.94 204.067 163.079 204.2C163.221 204.334 163.292 204.494 163.292 204.682C163.292 204.869 163.221 205.03 163.079 205.163C162.94 205.297 162.772 205.364 162.576 205.364ZM167.384 213.136C166.839 213.136 166.357 212.999 165.94 212.723C165.522 212.445 165.195 212.053 164.96 211.547C164.724 211.038 164.606 210.438 164.606 209.744C164.606 209.057 164.724 208.46 164.96 207.955C165.195 207.449 165.523 207.058 165.944 206.783C166.364 206.507 166.85 206.369 167.401 206.369C167.827 206.369 168.164 206.44 168.411 206.582C168.661 206.722 168.852 206.881 168.982 207.06C169.116 207.236 169.219 207.381 169.293 207.494H169.379V204.273H170.384V213H169.413V211.994H169.293C169.219 212.114 169.114 212.264 168.978 212.446C168.842 212.625 168.647 212.786 168.394 212.928C168.141 213.067 167.805 213.136 167.384 213.136ZM167.521 212.233C167.924 212.233 168.265 212.128 168.543 211.918C168.822 211.705 169.033 211.411 169.178 211.036C169.323 210.658 169.396 210.222 169.396 209.727C169.396 209.239 169.325 208.811 169.183 208.445C169.04 208.075 168.83 207.788 168.552 207.584C168.273 207.376 167.93 207.273 167.521 207.273C167.094 207.273 166.739 207.382 166.455 207.601C166.174 207.817 165.962 208.111 165.82 208.483C165.681 208.852 165.612 209.267 165.612 209.727C165.612 210.193 165.683 210.616 165.825 210.997C165.969 211.375 166.183 211.676 166.464 211.901C166.748 212.122 167.1 212.233 167.521 212.233ZM175.11 213.136C174.479 213.136 173.935 212.997 173.478 212.719C173.023 212.438 172.673 212.045 172.425 211.543C172.181 211.037 172.059 210.449 172.059 209.778C172.059 209.108 172.181 208.517 172.425 208.006C172.673 207.491 173.016 207.091 173.457 206.804C173.9 206.514 174.417 206.369 175.008 206.369C175.349 206.369 175.685 206.426 176.018 206.54C176.35 206.653 176.653 206.838 176.925 207.094C177.198 207.347 177.415 207.682 177.577 208.099C177.739 208.517 177.82 209.031 177.82 209.642V210.068H172.775V209.199H176.798C176.798 208.83 176.724 208.5 176.576 208.21C176.431 207.92 176.224 207.692 175.954 207.524C175.687 207.357 175.371 207.273 175.008 207.273C174.607 207.273 174.261 207.372 173.968 207.571C173.678 207.767 173.455 208.023 173.299 208.338C173.143 208.653 173.065 208.991 173.065 209.352V209.932C173.065 210.426 173.15 210.845 173.32 211.189C173.494 211.53 173.734 211.79 174.04 211.969C174.347 212.145 174.704 212.233 175.11 212.233C175.374 212.233 175.613 212.196 175.826 212.122C176.042 212.045 176.228 211.932 176.384 211.781C176.54 211.628 176.661 211.437 176.746 211.21L177.718 211.483C177.616 211.812 177.444 212.102 177.202 212.352C176.961 212.599 176.663 212.793 176.308 212.932C175.952 213.068 175.553 213.136 175.11 213.136ZM181.276 213.153C180.862 213.153 180.485 213.075 180.147 212.919C179.809 212.76 179.54 212.531 179.342 212.233C179.143 211.932 179.043 211.568 179.043 211.142C179.043 210.767 179.117 210.463 179.265 210.23C179.413 209.994 179.61 209.81 179.857 209.676C180.104 209.543 180.377 209.443 180.675 209.378C180.977 209.31 181.279 209.256 181.583 209.216C181.981 209.165 182.303 209.126 182.55 209.101C182.8 209.072 182.982 209.026 183.096 208.96C183.212 208.895 183.271 208.781 183.271 208.619V208.585C183.271 208.165 183.156 207.838 182.925 207.605C182.698 207.372 182.353 207.256 181.89 207.256C181.41 207.256 181.033 207.361 180.761 207.571C180.488 207.781 180.296 208.006 180.185 208.244L179.231 207.903C179.401 207.506 179.629 207.196 179.913 206.974C180.2 206.75 180.512 206.594 180.85 206.506C181.191 206.415 181.526 206.369 181.856 206.369C182.066 206.369 182.308 206.395 182.58 206.446C182.856 206.494 183.121 206.595 183.377 206.749C183.636 206.902 183.85 207.134 184.021 207.443C184.191 207.753 184.276 208.168 184.276 208.688V213H183.271V212.114H183.219C183.151 212.256 183.038 212.408 182.879 212.57C182.719 212.732 182.508 212.869 182.244 212.983C181.979 213.097 181.657 213.153 181.276 213.153ZM181.43 212.25C181.827 212.25 182.163 212.172 182.435 212.016C182.711 211.859 182.918 211.658 183.058 211.411C183.2 211.163 183.271 210.903 183.271 210.631V209.71C183.228 209.761 183.134 209.808 182.989 209.851C182.847 209.891 182.683 209.926 182.495 209.957C182.31 209.986 182.13 210.011 181.954 210.034C181.781 210.054 181.64 210.071 181.532 210.085C181.271 210.119 181.026 210.175 180.799 210.251C180.575 210.325 180.393 210.437 180.254 210.588C180.117 210.736 180.049 210.937 180.049 211.193C180.049 211.543 180.178 211.807 180.437 211.986C180.698 212.162 181.029 212.25 181.43 212.25Z" fill="#EAEAEA"/>
<path d="M155.642 105L153.256 96.2727H154.33L156.153 103.381H156.239L158.097 96.2727H159.29L161.148 103.381H161.233L163.057 96.2727H164.131L161.744 105H160.653L158.727 98.0455H158.659L156.733 105H155.642ZM167.361 105.136C166.77 105.136 166.251 104.996 165.805 104.714C165.362 104.433 165.016 104.04 164.766 103.534C164.518 103.028 164.395 102.437 164.395 101.761C164.395 101.08 164.518 100.484 164.766 99.9759C165.016 99.4673 165.362 99.0724 165.805 98.7912C166.251 98.5099 166.77 98.3693 167.361 98.3693C167.952 98.3693 168.469 98.5099 168.912 98.7912C169.358 99.0724 169.705 99.4673 169.952 99.9759C170.202 100.484 170.327 101.08 170.327 101.761C170.327 102.437 170.202 103.028 169.952 103.534C169.705 104.04 169.358 104.433 168.912 104.714C168.469 104.996 167.952 105.136 167.361 105.136ZM167.361 104.233C167.81 104.233 168.179 104.118 168.469 103.888C168.759 103.658 168.973 103.355 169.112 102.98C169.251 102.605 169.321 102.199 169.321 101.761C169.321 101.324 169.251 100.916 169.112 100.538C168.973 100.161 168.759 99.8551 168.469 99.6222C168.179 99.3892 167.81 99.2727 167.361 99.2727C166.912 99.2727 166.543 99.3892 166.253 99.6222C165.963 99.8551 165.749 100.161 165.609 100.538C165.47 100.916 165.401 101.324 165.401 101.761C165.401 102.199 165.47 102.605 165.609 102.98C165.749 103.355 165.963 103.658 166.253 103.888C166.543 104.118 166.912 104.233 167.361 104.233ZM171.862 105V98.4545H172.833V99.4432H172.902C173.021 99.1193 173.237 98.8565 173.549 98.6548C173.862 98.4531 174.214 98.3523 174.606 98.3523C174.68 98.3523 174.772 98.3537 174.883 98.3565C174.994 98.3594 175.078 98.3636 175.135 98.3693V99.392C175.1 99.3835 175.022 99.3707 174.9 99.3537C174.781 99.3338 174.654 99.3239 174.521 99.3239C174.203 99.3239 173.919 99.3906 173.669 99.5241C173.422 99.6548 173.225 99.8366 173.081 100.07C172.939 100.3 172.868 100.562 172.868 100.858V105H171.862ZM177.264 102.614L177.247 101.369H177.452L180.315 98.4545H181.56L178.509 101.54H178.423L177.264 102.614ZM176.327 105V96.2727H177.332V105H176.327ZM180.486 105L177.929 101.761L178.645 101.062L181.764 105H180.486Z" fill="#EAEAEA"/>
<path d="M174.011 160V148.364H181.716V150.392H176.472V153.165H181.205V155.193H176.472V160H174.011ZM188.375 156.284V151.273H190.795V160H188.472V158.415H188.381C188.184 158.926 187.856 159.337 187.398 159.648C186.943 159.958 186.388 160.114 185.733 160.114C185.15 160.114 184.636 159.981 184.193 159.716C183.75 159.451 183.403 159.074 183.153 158.585C182.907 158.097 182.782 157.511 182.778 156.83V151.273H185.199V156.398C185.203 156.913 185.341 157.32 185.614 157.619C185.886 157.919 186.252 158.068 186.71 158.068C187.002 158.068 187.275 158.002 187.528 157.869C187.782 157.733 187.987 157.532 188.142 157.267C188.301 157.002 188.379 156.674 188.375 156.284ZM197.374 151.273V153.091H192.118V151.273H197.374ZM193.311 149.182H195.732V157.318C195.732 157.542 195.766 157.716 195.834 157.841C195.902 157.962 195.997 158.047 196.118 158.097C196.243 158.146 196.387 158.17 196.55 158.17C196.663 158.17 196.777 158.161 196.891 158.142C197.004 158.119 197.091 158.102 197.152 158.091L197.533 159.892C197.411 159.93 197.241 159.973 197.021 160.023C196.802 160.076 196.535 160.108 196.22 160.119C195.637 160.142 195.125 160.064 194.686 159.886C194.25 159.708 193.911 159.432 193.669 159.057C193.427 158.682 193.307 158.208 193.311 157.636V149.182ZM204.547 156.284V151.273H206.967V160H204.643V158.415H204.553C204.356 158.926 204.028 159.337 203.57 159.648C203.115 159.958 202.56 160.114 201.905 160.114C201.321 160.114 200.808 159.981 200.365 159.716C199.922 159.451 199.575 159.074 199.325 158.585C199.079 158.097 198.954 157.511 198.95 156.83V151.273H201.371V156.398C201.375 156.913 201.513 157.32 201.786 157.619C202.058 157.919 202.424 158.068 202.882 158.068C203.174 158.068 203.446 158.002 203.7 157.869C203.954 157.733 204.159 157.532 204.314 157.267C204.473 157.002 204.551 156.674 204.547 156.284ZM208.903 160V151.273H211.25V152.795H211.341C211.5 152.254 211.767 151.845 212.142 151.568C212.517 151.288 212.949 151.148 213.438 151.148C213.559 151.148 213.689 151.155 213.83 151.17C213.97 151.186 214.093 151.206 214.199 151.233V153.381C214.085 153.347 213.928 153.316 213.727 153.29C213.527 153.263 213.343 153.25 213.176 153.25C212.82 153.25 212.502 153.328 212.222 153.483C211.945 153.634 211.725 153.847 211.562 154.119C211.403 154.392 211.324 154.706 211.324 155.062V160H208.903ZM219.021 160.17C218.124 160.17 217.351 159.989 216.703 159.625C216.059 159.258 215.563 158.739 215.214 158.068C214.866 157.394 214.692 156.597 214.692 155.676C214.692 154.778 214.866 153.991 215.214 153.312C215.563 152.634 216.054 152.106 216.686 151.727C217.322 151.348 218.069 151.159 218.925 151.159C219.5 151.159 220.036 151.252 220.533 151.438C221.033 151.619 221.468 151.894 221.839 152.261C222.214 152.629 222.506 153.091 222.714 153.648C222.923 154.201 223.027 154.848 223.027 155.591V156.256H215.658V154.756H220.749C220.749 154.407 220.673 154.098 220.521 153.83C220.37 153.561 220.16 153.35 219.891 153.199C219.625 153.044 219.317 152.966 218.964 152.966C218.597 152.966 218.271 153.051 217.987 153.222C217.707 153.388 217.487 153.614 217.328 153.898C217.169 154.178 217.088 154.491 217.084 154.835V156.261C217.084 156.693 217.163 157.066 217.322 157.381C217.485 157.695 217.714 157.938 218.01 158.108C218.305 158.278 218.656 158.364 219.061 158.364C219.33 158.364 219.576 158.326 219.8 158.25C220.023 158.174 220.214 158.061 220.374 157.909C220.533 157.758 220.654 157.572 220.737 157.352L222.976 157.5C222.862 158.038 222.629 158.508 222.277 158.909C221.929 159.307 221.478 159.617 220.925 159.841C220.375 160.061 219.741 160.17 219.021 160.17ZM228.31 163.273V151.273H230.696V152.739H230.804C230.91 152.504 231.063 152.265 231.264 152.023C231.469 151.777 231.734 151.572 232.06 151.409C232.389 151.242 232.798 151.159 233.287 151.159C233.923 151.159 234.51 151.326 235.048 151.659C235.586 151.989 236.016 152.487 236.338 153.153C236.66 153.816 236.821 154.648 236.821 155.648C236.821 156.621 236.664 157.443 236.349 158.114C236.039 158.78 235.615 159.286 235.077 159.631C234.543 159.972 233.944 160.142 233.281 160.142C232.812 160.142 232.412 160.064 232.082 159.909C231.757 159.754 231.49 159.559 231.281 159.324C231.073 159.085 230.914 158.845 230.804 158.602H230.73V163.273H228.31ZM230.679 155.636C230.679 156.155 230.751 156.608 230.895 156.994C231.039 157.381 231.247 157.682 231.52 157.898C231.793 158.11 232.124 158.216 232.514 158.216C232.908 158.216 233.241 158.108 233.514 157.892C233.787 157.672 233.993 157.369 234.134 156.983C234.277 156.593 234.349 156.144 234.349 155.636C234.349 155.133 234.279 154.689 234.139 154.307C233.999 153.924 233.793 153.625 233.52 153.409C233.247 153.193 232.912 153.085 232.514 153.085C232.12 153.085 231.787 153.189 231.514 153.398C231.245 153.606 231.039 153.902 230.895 154.284C230.751 154.667 230.679 155.117 230.679 155.636ZM240.855 148.364V160H238.435V148.364H240.855ZM245.283 160.165C244.726 160.165 244.23 160.068 243.794 159.875C243.358 159.678 243.014 159.388 242.76 159.006C242.51 158.619 242.385 158.138 242.385 157.562C242.385 157.078 242.474 156.67 242.652 156.341C242.83 156.011 243.072 155.746 243.379 155.545C243.686 155.345 244.035 155.193 244.425 155.091C244.819 154.989 245.232 154.917 245.663 154.875C246.171 154.822 246.58 154.773 246.891 154.727C247.201 154.678 247.427 154.606 247.567 154.511C247.707 154.417 247.777 154.277 247.777 154.091V154.057C247.777 153.697 247.663 153.419 247.436 153.222C247.213 153.025 246.894 152.926 246.482 152.926C246.046 152.926 245.699 153.023 245.442 153.216C245.184 153.405 245.014 153.644 244.93 153.932L242.692 153.75C242.805 153.22 243.029 152.761 243.362 152.375C243.696 151.985 244.125 151.686 244.652 151.477C245.182 151.265 245.796 151.159 246.493 151.159C246.978 151.159 247.442 151.216 247.885 151.33C248.332 151.443 248.728 151.619 249.072 151.858C249.421 152.097 249.696 152.403 249.896 152.778C250.097 153.15 250.197 153.595 250.197 154.114V160H247.902V158.79H247.834C247.694 159.062 247.506 159.303 247.271 159.511C247.036 159.716 246.754 159.877 246.425 159.994C246.095 160.108 245.714 160.165 245.283 160.165ZM245.976 158.494C246.332 158.494 246.646 158.424 246.919 158.284C247.192 158.14 247.406 157.947 247.561 157.705C247.716 157.462 247.794 157.187 247.794 156.881V155.955C247.718 156.004 247.614 156.049 247.482 156.091C247.353 156.129 247.207 156.165 247.044 156.199C246.881 156.229 246.718 156.258 246.555 156.284C246.393 156.307 246.245 156.328 246.112 156.347C245.828 156.388 245.58 156.455 245.368 156.545C245.156 156.636 244.991 156.759 244.874 156.915C244.756 157.066 244.697 157.256 244.697 157.483C244.697 157.812 244.817 158.064 245.055 158.239C245.298 158.409 245.605 158.494 245.976 158.494ZM254.496 154.955V160H252.075V151.273H254.382V152.812H254.484C254.678 152.305 255.001 151.903 255.456 151.608C255.911 151.309 256.462 151.159 257.109 151.159C257.715 151.159 258.244 151.292 258.695 151.557C259.145 151.822 259.496 152.201 259.746 152.693C259.996 153.182 260.121 153.765 260.121 154.443V160H257.7V154.875C257.704 154.341 257.568 153.924 257.291 153.625C257.015 153.322 256.634 153.17 256.149 153.17C255.823 153.17 255.536 153.241 255.286 153.381C255.039 153.521 254.846 153.725 254.706 153.994C254.57 154.259 254.5 154.58 254.496 154.955ZM269.29 153.761L267.074 153.898C267.036 153.708 266.955 153.538 266.83 153.386C266.705 153.231 266.54 153.108 266.335 153.017C266.134 152.922 265.894 152.875 265.614 152.875C265.239 152.875 264.922 152.955 264.665 153.114C264.407 153.269 264.278 153.477 264.278 153.739C264.278 153.947 264.362 154.123 264.528 154.267C264.695 154.411 264.981 154.527 265.386 154.614L266.966 154.932C267.814 155.106 268.447 155.386 268.864 155.773C269.28 156.159 269.489 156.667 269.489 157.295C269.489 157.867 269.32 158.369 268.983 158.801C268.65 159.233 268.191 159.57 267.608 159.812C267.028 160.051 266.36 160.17 265.602 160.17C264.447 160.17 263.527 159.93 262.841 159.449C262.159 158.964 261.759 158.305 261.642 157.472L264.023 157.347C264.095 157.699 264.269 157.968 264.545 158.153C264.822 158.335 265.176 158.426 265.608 158.426C266.032 158.426 266.373 158.345 266.631 158.182C266.892 158.015 267.025 157.801 267.028 157.54C267.025 157.32 266.932 157.14 266.75 157C266.568 156.856 266.288 156.746 265.909 156.67L264.398 156.369C263.545 156.199 262.911 155.903 262.494 155.483C262.081 155.062 261.875 154.527 261.875 153.875C261.875 153.314 262.027 152.831 262.33 152.426C262.636 152.021 263.066 151.708 263.619 151.489C264.176 151.269 264.828 151.159 265.574 151.159C266.676 151.159 267.544 151.392 268.176 151.858C268.813 152.324 269.184 152.958 269.29 153.761Z" fill="white"/>
<path d="M119.371 203.541C119.471 203.541 119.566 203.581 119.636 203.651L123.349 207.364C123.495 207.51 123.495 207.747 123.349 207.894C122.988 208.254 122.545 208.335 122.222 208.335C122.089 208.335 121.97 208.322 121.876 208.306L119.526 210.656C119.531 210.677 119.537 210.699 119.542 210.722C119.582 210.897 119.628 211.142 119.646 211.415C119.681 211.942 119.622 212.681 119.106 213.197C118.96 213.344 118.722 213.344 118.576 213.197L116.454 211.076L114.068 213.462C113.921 213.609 113.154 214.139 113.007 213.993C112.861 213.846 113.391 213.078 113.538 212.932L115.924 210.546L113.803 208.424C113.656 208.278 113.656 208.04 113.803 207.894C114.319 207.378 115.058 207.319 115.584 207.354C115.858 207.372 116.103 207.418 116.278 207.458C116.301 207.463 116.323 207.469 116.344 207.474L118.694 205.124C118.678 205.03 118.665 204.911 118.665 204.778C118.665 204.455 118.746 204.012 119.106 203.651C119.176 203.581 119.272 203.541 119.371 203.541ZM119.462 205.126L119.462 205.124L119.462 205.126ZM119.462 205.124L119.462 205.126C119.506 205.26 119.471 205.407 119.371 205.507L116.72 208.159C116.619 208.259 116.471 208.294 116.336 208.25L116.335 208.249L116.325 208.246C116.315 208.243 116.301 208.239 116.281 208.233C116.241 208.222 116.183 208.206 116.109 208.189C115.961 208.155 115.758 208.117 115.535 208.102C115.218 208.081 114.908 208.108 114.654 208.214L118.786 212.346C118.892 212.092 118.919 211.782 118.898 211.465C118.883 211.242 118.845 211.039 118.811 210.891C118.794 210.817 118.778 210.758 118.767 210.719C118.761 210.699 118.757 210.684 118.754 210.675L118.751 210.665L118.75 210.664C118.705 210.529 118.74 210.381 118.841 210.28L121.493 207.629C121.593 207.528 121.741 207.493 121.876 207.538C121.878 207.539 121.884 207.54 121.892 207.542C121.907 207.547 121.932 207.553 121.964 207.559C122.029 207.572 122.119 207.585 122.222 207.585C122.307 207.585 122.394 207.576 122.479 207.554L119.445 204.521C119.423 204.606 119.415 204.693 119.415 204.778C119.415 204.88 119.428 204.971 119.441 205.036C119.447 205.068 119.453 205.093 119.457 205.108C119.46 205.116 119.461 205.121 119.462 205.124Z" fill="#EAEAEA"/>
<path d="M140.371 95.5414C140.471 95.5414 140.566 95.5809 140.636 95.6512L144.349 99.3635C144.495 99.51 144.495 99.7474 144.349 99.8939C143.988 100.254 143.545 100.335 143.222 100.335C143.089 100.335 142.97 100.322 142.876 100.306L140.526 102.656C140.531 102.677 140.537 102.699 140.542 102.722C140.582 102.897 140.628 103.142 140.646 103.415C140.681 103.942 140.622 104.681 140.106 105.197C139.96 105.344 139.722 105.344 139.576 105.197L137.454 103.076L135.068 105.462C134.921 105.609 134.154 106.139 134.007 105.993C133.861 105.846 134.391 105.078 134.538 104.932L136.924 102.546L134.803 100.424C134.656 100.278 134.656 100.04 134.803 99.8939C135.319 99.3777 136.058 99.3188 136.584 99.354C136.858 99.3722 137.103 99.4176 137.278 99.458C137.301 99.4634 137.323 99.4687 137.344 99.4739L139.694 97.1237C139.678 97.0298 139.665 96.9112 139.665 96.7782C139.665 96.4552 139.746 96.0115 140.106 95.6512C140.176 95.5809 140.272 95.5414 140.371 95.5414ZM140.462 97.1256L140.462 97.1239L140.462 97.1256ZM140.462 97.1239L140.462 97.1256C140.506 97.2598 140.471 97.4074 140.371 97.5074L137.72 100.159C137.619 100.259 137.471 100.294 137.336 100.25L137.335 100.249L137.325 100.246C137.315 100.243 137.301 100.239 137.281 100.233C137.241 100.222 137.183 100.206 137.109 100.189C136.961 100.155 136.758 100.117 136.535 100.102C136.218 100.081 135.908 100.108 135.654 100.214L139.786 104.346C139.892 104.092 139.919 103.782 139.898 103.465C139.883 103.242 139.845 103.039 139.811 102.891C139.794 102.817 139.778 102.758 139.767 102.719C139.761 102.699 139.757 102.684 139.754 102.675L139.751 102.665L139.75 102.664C139.705 102.529 139.74 102.381 139.841 102.28L142.493 99.6287C142.593 99.5284 142.741 99.4933 142.876 99.5379C142.878 99.5387 142.884 99.5403 142.892 99.5424C142.907 99.5466 142.932 99.5529 142.964 99.5593C143.029 99.5723 143.119 99.5851 143.222 99.5851C143.307 99.5851 143.394 99.5765 143.479 99.5544L140.445 96.521C140.423 96.6059 140.415 96.693 140.415 96.7782C140.415 96.8804 140.428 96.9712 140.441 97.0361C140.447 97.0682 140.453 97.0929 140.457 97.1083C140.46 97.116 140.461 97.1212 140.462 97.1239Z" fill="#EAEAEA"/>
<path d="M419 344.445C434.86 345.605 456.397 345.429 464.095 339.109C471.997 332.623 470.955 324.977 470.955 318" stroke="#EAEAEA" stroke-width="2" stroke-linecap="round"/>
<path d="M462.807 277C461.501 279.743 460.244 282.502 459.07 285.307C458.537 286.58 457.64 288.713 457.188 290.172C457.142 290.323 456.782 290.971 457.201 290.998C458.397 291.074 459.898 289.032 460.876 288.483C462.749 287.431 464.242 288.178 465.83 289.321C466.574 289.857 467.123 290.388 468 290.033" stroke="#EAEAEA" stroke-width="2" stroke-linecap="round"/>
<path d="M456 284C458.689 285.731 461.264 284.713 464 284.598" stroke="#EAEAEA" stroke-width="2" stroke-linecap="round"/>
<path d="M473.362 278C472.75 280.278 472.113 282.549 471.481 284.822C471.026 286.458 469.182 290.999 470.422 289.801C472.012 288.265 473.109 286.266 474.633 284.656C475.925 283.289 476.103 283.992 475.957 285.513C475.826 286.871 475.306 288.188 475.03 289.52" stroke="#EAEAEA" stroke-width="2" stroke-linecap="round"/>
<path d="M479.581 284.937C480.725 285.534 483.373 285.028 483.605 283.525C483.836 282.037 480.769 284.171 480.625 284.315C480.007 284.931 478.231 286.728 479.377 287.642C480.897 288.854 484.574 286.655 486 286.014" stroke="#EAEAEA" stroke-width="2" stroke-linecap="round"/>
<path d="M449.662 296C449.075 299.44 448.477 302.884 447.765 306.3C447.628 306.96 447.395 308.797 447.084 308.201C446.62 307.311 448.2 305.14 448.786 304.648C450.27 303.402 452.703 303.46 452.969 305.716C453.105 306.874 452.819 308.26 451.692 308.798C449.983 309.613 449.265 307.77 448.349 306.735" stroke="#EAEAEA" stroke-width="2" stroke-linecap="round"/>
<path d="M458.158 304C457.938 305.367 457.873 306.523 458.466 307.837C459.142 309.335 459.977 309.361 460.802 308.059C461.488 306.977 462 305.86 462 304.6" stroke="#EAEAEA" stroke-width="2" stroke-linecap="round"/>
<path d="M468.186 297C467.527 300.236 466.637 303.421 466.046 306.672C465.768 308.202 466.795 308.202 467.826 307.702C468.992 307.137 469.719 306.398 471 306.873" stroke="#EAEAEA" stroke-width="2" stroke-linecap="round"/>
<path d="M477.034 298C476.586 300.36 476.175 302.747 476.023 305.166C475.946 306.399 476.012 306.887 477.034 306.964C478.016 307.037 479.017 306.977 480 306.977" stroke="#EAEAEA" stroke-width="2" stroke-linecap="round"/>
<path d="M464 302C469.339 301.953 474.714 301.94 480 301" stroke="#EAEAEA" stroke-width="2" stroke-linecap="round"/>
<path d="M483.5 302C482.968 303.423 482.325 306.884 484.707 306.997C485.846 307.051 487.132 306.363 487.633 305.356C489.097 302.414 485.849 301.261 483.724 302.875" stroke="#EAEAEA" stroke-width="2" stroke-linecap="round"/>
<path d="M491.682 302C491.623 303.164 490.418 306.325 491.356 305.485C492.273 304.665 493.121 303.434 494.369 302.982C496.402 302.246 496.294 305.456 495.347 306" stroke="#EAEAEA" stroke-width="2" stroke-linecap="round"/>
<path d="M422.748 353.379C420.192 352.027 410.442 345.047 413.636 341.853C416.244 339.245 419.887 338.145 422.748 336" stroke="#EAEAEA" stroke-width="2" stroke-linecap="round"/>
</svg>
