<svg width="640" height="400" viewBox="0 0 640 400" fill="none" xmlns="http://www.w3.org/2000/svg">
<rect width="640" height="400" fill="#EAEAEA"/>
<path d="M43 39C43 33.4772 47.4772 29 53 29H477C481.418 29 485 32.5817 485 37V361C485 366.523 480.523 371 475 371H53C47.4772 371 43 366.523 43 361V39Z" fill="#1E1E1E"/>
<path d="M109.568 110.392V108.364H119.125V110.392H115.562V120H113.131V110.392H109.568ZM123.331 120.17C122.448 120.17 121.685 119.983 121.041 119.608C120.401 119.229 119.907 118.703 119.558 118.028C119.21 117.35 119.036 116.564 119.036 115.67C119.036 114.769 119.21 113.981 119.558 113.307C119.907 112.629 120.401 112.102 121.041 111.727C121.685 111.348 122.448 111.159 123.331 111.159C124.214 111.159 124.975 111.348 125.615 111.727C126.259 112.102 126.755 112.629 127.104 113.307C127.452 113.981 127.626 114.769 127.626 115.67C127.626 116.564 127.452 117.35 127.104 118.028C126.755 118.703 126.259 119.229 125.615 119.608C124.975 119.983 124.214 120.17 123.331 120.17ZM123.342 118.295C123.744 118.295 124.079 118.182 124.348 117.955C124.617 117.723 124.82 117.409 124.956 117.011C125.096 116.614 125.166 116.161 125.166 115.653C125.166 115.146 125.096 114.693 124.956 114.295C124.82 113.898 124.617 113.583 124.348 113.352C124.079 113.121 123.744 113.006 123.342 113.006C122.937 113.006 122.596 113.121 122.32 113.352C122.047 113.583 121.84 113.898 121.7 114.295C121.564 114.693 121.496 115.146 121.496 115.653C121.496 116.161 121.564 116.614 121.7 117.011C121.84 117.409 122.047 117.723 122.32 117.955C122.596 118.182 122.937 118.295 123.342 118.295ZM136.119 120.142C135.456 120.142 134.856 119.972 134.318 119.631C133.784 119.286 133.36 118.78 133.045 118.114C132.735 117.443 132.58 116.621 132.58 115.648C132.58 114.648 132.741 113.816 133.062 113.153C133.384 112.487 133.813 111.989 134.347 111.659C134.884 111.326 135.473 111.159 136.114 111.159C136.602 111.159 137.009 111.242 137.335 111.409C137.665 111.572 137.93 111.777 138.131 112.023C138.335 112.265 138.491 112.504 138.597 112.739H138.67V108.364H141.085V120H138.699V118.602H138.597C138.483 118.845 138.322 119.085 138.114 119.324C137.909 119.559 137.642 119.754 137.312 119.909C136.987 120.064 136.589 120.142 136.119 120.142ZM136.886 118.216C137.277 118.216 137.606 118.11 137.875 117.898C138.148 117.682 138.356 117.381 138.5 116.994C138.648 116.608 138.722 116.155 138.722 115.636C138.722 115.117 138.65 114.667 138.506 114.284C138.362 113.902 138.153 113.606 137.881 113.398C137.608 113.189 137.277 113.085 136.886 113.085C136.489 113.085 136.153 113.193 135.881 113.409C135.608 113.625 135.402 113.924 135.261 114.307C135.121 114.689 135.051 115.133 135.051 115.636C135.051 116.144 135.121 116.593 135.261 116.983C135.405 117.369 135.612 117.672 135.881 117.892C136.153 118.108 136.489 118.216 136.886 118.216ZM147.018 120.17C146.136 120.17 145.373 119.983 144.729 119.608C144.089 119.229 143.594 118.703 143.246 118.028C142.897 117.35 142.723 116.564 142.723 115.67C142.723 114.769 142.897 113.981 143.246 113.307C143.594 112.629 144.089 112.102 144.729 111.727C145.373 111.348 146.136 111.159 147.018 111.159C147.901 111.159 148.662 111.348 149.303 111.727C149.946 112.102 150.443 112.629 150.791 113.307C151.14 113.981 151.314 114.769 151.314 115.67C151.314 116.564 151.14 117.35 150.791 118.028C150.443 118.703 149.946 119.229 149.303 119.608C148.662 119.983 147.901 120.17 147.018 120.17ZM147.03 118.295C147.431 118.295 147.767 118.182 148.036 117.955C148.304 117.723 148.507 117.409 148.643 117.011C148.784 116.614 148.854 116.161 148.854 115.653C148.854 115.146 148.784 114.693 148.643 114.295C148.507 113.898 148.304 113.583 148.036 113.352C147.767 113.121 147.431 113.006 147.03 113.006C146.625 113.006 146.284 113.121 146.007 113.352C145.734 113.583 145.528 113.898 145.388 114.295C145.251 114.693 145.183 115.146 145.183 115.653C145.183 116.161 145.251 116.614 145.388 117.011C145.528 117.409 145.734 117.723 146.007 117.955C146.284 118.182 146.625 118.295 147.03 118.295ZM154.303 120.148C153.928 120.148 153.606 120.015 153.337 119.75C153.071 119.481 152.939 119.159 152.939 118.784C152.939 118.413 153.071 118.095 153.337 117.83C153.606 117.564 153.928 117.432 154.303 117.432C154.666 117.432 154.984 117.564 155.257 117.83C155.53 118.095 155.666 118.413 155.666 118.784C155.666 119.034 155.602 119.263 155.473 119.472C155.348 119.676 155.183 119.841 154.979 119.966C154.774 120.087 154.549 120.148 154.303 120.148ZM154.303 114.034C153.928 114.034 153.606 113.902 153.337 113.636C153.071 113.371 152.939 113.049 152.939 112.67C152.939 112.299 153.071 111.983 153.337 111.722C153.606 111.456 153.928 111.324 154.303 111.324C154.666 111.324 154.984 111.456 155.257 111.722C155.53 111.983 155.666 112.299 155.666 112.67C155.666 112.924 155.602 113.155 155.473 113.364C155.348 113.568 155.183 113.731 154.979 113.852C154.774 113.973 154.549 114.034 154.303 114.034ZM131.472 127.364V139H129.71V129.125H129.642L126.858 130.943V129.261L129.761 127.364H131.472ZM135.089 139.108C134.779 139.108 134.512 138.998 134.288 138.778C134.065 138.555 133.953 138.286 133.953 137.972C133.953 137.661 134.065 137.396 134.288 137.176C134.512 136.953 134.779 136.841 135.089 136.841C135.4 136.841 135.667 136.953 135.891 137.176C136.114 137.396 136.226 137.661 136.226 137.972C136.226 138.18 136.173 138.371 136.067 138.545C135.964 138.716 135.828 138.852 135.658 138.955C135.487 139.057 135.298 139.108 135.089 139.108ZM149.031 130.42C148.971 129.883 148.721 129.466 148.281 129.17C147.842 128.871 147.289 128.722 146.622 128.722C146.145 128.722 145.732 128.797 145.384 128.949C145.035 129.097 144.764 129.301 144.571 129.562C144.382 129.82 144.287 130.114 144.287 130.443C144.287 130.72 144.351 130.958 144.48 131.159C144.613 131.36 144.785 131.528 144.997 131.665C145.213 131.797 145.444 131.909 145.69 132C145.937 132.087 146.173 132.159 146.401 132.216L147.537 132.511C147.908 132.602 148.289 132.725 148.679 132.881C149.069 133.036 149.431 133.241 149.764 133.494C150.098 133.748 150.366 134.062 150.571 134.438C150.779 134.812 150.884 135.261 150.884 135.784C150.884 136.443 150.713 137.028 150.372 137.54C150.035 138.051 149.545 138.455 148.901 138.75C148.26 139.045 147.486 139.193 146.577 139.193C145.705 139.193 144.952 139.055 144.315 138.778C143.679 138.502 143.181 138.11 142.821 137.602C142.461 137.091 142.262 136.485 142.224 135.784H143.986C144.02 136.205 144.156 136.555 144.395 136.835C144.637 137.112 144.946 137.318 145.321 137.455C145.7 137.587 146.115 137.653 146.565 137.653C147.062 137.653 147.503 137.576 147.889 137.42C148.279 137.261 148.586 137.042 148.81 136.761C149.033 136.477 149.145 136.146 149.145 135.767C149.145 135.422 149.046 135.14 148.849 134.92C148.656 134.701 148.393 134.519 148.06 134.375C147.73 134.231 147.357 134.104 146.94 133.994L145.565 133.619C144.634 133.366 143.895 132.992 143.349 132.5C142.808 132.008 142.537 131.356 142.537 130.545C142.537 129.875 142.719 129.29 143.082 128.79C143.446 128.29 143.938 127.902 144.56 127.625C145.181 127.345 145.882 127.205 146.662 127.205C147.45 127.205 148.145 127.343 148.747 127.619C149.353 127.896 149.83 128.277 150.179 128.761C150.527 129.242 150.709 129.795 150.724 130.42H149.031ZM156.919 130.273V131.636H152.152V130.273H156.919ZM153.43 128.182H155.129V136.438C155.129 136.767 155.179 137.015 155.277 137.182C155.375 137.345 155.502 137.456 155.658 137.517C155.817 137.574 155.989 137.602 156.175 137.602C156.311 137.602 156.43 137.593 156.533 137.574C156.635 137.555 156.714 137.54 156.771 137.528L157.078 138.932C156.98 138.97 156.839 139.008 156.658 139.045C156.476 139.087 156.249 139.11 155.976 139.114C155.529 139.121 155.112 139.042 154.726 138.875C154.339 138.708 154.027 138.451 153.788 138.102C153.55 137.754 153.43 137.316 153.43 136.79V128.182ZM164.327 135.381V130.273H166.031V139H164.361V137.489H164.27C164.069 137.955 163.747 138.343 163.304 138.653C162.865 138.96 162.317 139.114 161.662 139.114C161.101 139.114 160.605 138.991 160.173 138.744C159.745 138.494 159.408 138.125 159.162 137.636C158.92 137.148 158.798 136.544 158.798 135.824V130.273H160.497V135.619C160.497 136.214 160.662 136.687 160.991 137.04C161.321 137.392 161.749 137.568 162.276 137.568C162.594 137.568 162.91 137.489 163.224 137.33C163.543 137.17 163.806 136.93 164.014 136.608C164.226 136.286 164.33 135.877 164.327 135.381ZM171.581 139.17C170.876 139.17 170.248 138.991 169.695 138.631C169.145 138.267 168.714 137.75 168.399 137.08C168.089 136.405 167.933 135.597 167.933 134.653C167.933 133.71 168.09 132.903 168.405 132.233C168.723 131.562 169.159 131.049 169.712 130.693C170.265 130.337 170.892 130.159 171.592 130.159C172.134 130.159 172.57 130.25 172.899 130.432C173.232 130.61 173.49 130.818 173.672 131.057C173.857 131.295 174.001 131.506 174.104 131.688H174.206V127.364H175.905V139H174.246V137.642H174.104C174.001 137.828 173.854 138.04 173.661 138.278C173.471 138.517 173.21 138.725 172.876 138.903C172.543 139.081 172.111 139.17 171.581 139.17ZM171.956 137.722C172.445 137.722 172.857 137.593 173.195 137.335C173.536 137.074 173.793 136.712 173.967 136.25C174.145 135.788 174.234 135.25 174.234 134.636C174.234 134.03 174.147 133.5 173.973 133.045C173.799 132.591 173.543 132.237 173.206 131.983C172.869 131.729 172.452 131.602 171.956 131.602C171.445 131.602 171.018 131.735 170.678 132C170.337 132.265 170.079 132.627 169.905 133.085C169.734 133.544 169.649 134.061 169.649 134.636C169.649 135.22 169.736 135.744 169.911 136.21C170.085 136.676 170.342 137.045 170.683 137.318C171.028 137.587 171.452 137.722 171.956 137.722ZM179.403 142.273C179.15 142.273 178.919 142.252 178.71 142.21C178.502 142.172 178.347 142.131 178.244 142.085L178.653 140.693C178.964 140.777 179.241 140.813 179.483 140.801C179.725 140.79 179.939 140.699 180.125 140.528C180.314 140.358 180.481 140.08 180.625 139.693L180.835 139.114L177.642 130.273H179.46L181.67 137.045H181.761L183.972 130.273H185.795L182.199 140.165C182.032 140.619 181.82 141.004 181.562 141.318C181.305 141.636 180.998 141.875 180.642 142.034C180.286 142.193 179.873 142.273 179.403 142.273ZM127.057 158V156.727L130.994 152.648C131.415 152.205 131.761 151.816 132.034 151.483C132.311 151.146 132.517 150.826 132.653 150.523C132.79 150.22 132.858 149.898 132.858 149.557C132.858 149.17 132.767 148.837 132.585 148.557C132.403 148.273 132.155 148.055 131.841 147.903C131.527 147.748 131.172 147.67 130.778 147.67C130.362 147.67 129.998 147.756 129.688 147.926C129.377 148.097 129.138 148.337 128.972 148.648C128.805 148.958 128.722 149.322 128.722 149.739H127.045C127.045 149.03 127.208 148.411 127.534 147.881C127.86 147.35 128.307 146.939 128.875 146.648C129.443 146.352 130.089 146.205 130.812 146.205C131.544 146.205 132.188 146.35 132.744 146.642C133.305 146.93 133.742 147.324 134.057 147.824C134.371 148.32 134.528 148.881 134.528 149.506C134.528 149.938 134.447 150.36 134.284 150.773C134.125 151.186 133.847 151.646 133.449 152.153C133.051 152.657 132.498 153.269 131.79 153.989L129.477 156.409V156.494H134.716V158H127.057ZM138.011 158.108C137.701 158.108 137.434 157.998 137.21 157.778C136.987 157.555 136.875 157.286 136.875 156.972C136.875 156.661 136.987 156.396 137.21 156.176C137.434 155.953 137.701 155.841 138.011 155.841C138.322 155.841 138.589 155.953 138.812 156.176C139.036 156.396 139.148 156.661 139.148 156.972C139.148 157.18 139.095 157.371 138.989 157.545C138.886 157.716 138.75 157.852 138.58 157.955C138.409 158.057 138.22 158.108 138.011 158.108ZM152.936 149.273L149.771 158H147.953L144.783 149.273H146.607L148.817 155.989H148.908L151.112 149.273H152.936ZM154.533 158V149.273H156.232V158H154.533ZM155.391 147.926C155.095 147.926 154.841 147.828 154.629 147.631C154.421 147.43 154.317 147.191 154.317 146.915C154.317 146.634 154.421 146.396 154.629 146.199C154.841 145.998 155.095 145.898 155.391 145.898C155.686 145.898 155.938 145.998 156.146 146.199C156.358 146.396 156.464 146.634 156.464 146.915C156.464 147.191 156.358 147.43 156.146 147.631C155.938 147.828 155.686 147.926 155.391 147.926ZM165.057 151.403L163.517 151.676C163.453 151.479 163.35 151.292 163.21 151.114C163.074 150.936 162.888 150.79 162.653 150.676C162.419 150.562 162.125 150.506 161.773 150.506C161.292 150.506 160.89 150.614 160.568 150.83C160.246 151.042 160.085 151.316 160.085 151.653C160.085 151.945 160.193 152.18 160.409 152.358C160.625 152.536 160.973 152.682 161.455 152.795L162.841 153.114C163.644 153.299 164.242 153.585 164.636 153.972C165.03 154.358 165.227 154.86 165.227 155.477C165.227 156 165.076 156.466 164.773 156.875C164.473 157.28 164.055 157.598 163.517 157.83C162.983 158.061 162.364 158.176 161.659 158.176C160.682 158.176 159.884 157.968 159.267 157.551C158.65 157.131 158.271 156.534 158.131 155.761L159.773 155.511C159.875 155.939 160.085 156.263 160.403 156.483C160.722 156.699 161.136 156.807 161.648 156.807C162.205 156.807 162.65 156.691 162.983 156.46C163.316 156.225 163.483 155.939 163.483 155.602C163.483 155.33 163.381 155.1 163.176 154.915C162.975 154.729 162.667 154.589 162.25 154.494L160.773 154.17C159.958 153.985 159.356 153.689 158.966 153.284C158.58 152.879 158.386 152.366 158.386 151.744C158.386 151.229 158.53 150.778 158.818 150.392C159.106 150.006 159.504 149.705 160.011 149.489C160.519 149.269 161.1 149.159 161.756 149.159C162.699 149.159 163.441 149.364 163.983 149.773C164.525 150.178 164.883 150.722 165.057 151.403ZM167.095 158V149.273H168.794V158H167.095ZM167.953 147.926C167.658 147.926 167.404 147.828 167.192 147.631C166.983 147.43 166.879 147.191 166.879 146.915C166.879 146.634 166.983 146.396 167.192 146.199C167.404 145.998 167.658 145.898 167.953 145.898C168.249 145.898 168.5 145.998 168.709 146.199C168.921 146.396 169.027 146.634 169.027 146.915C169.027 147.191 168.921 147.43 168.709 147.631C168.5 147.828 168.249 147.926 167.953 147.926ZM175.153 149.273V150.636H170.386V149.273H175.153ZM171.665 147.182H173.364V155.438C173.364 155.767 173.413 156.015 173.511 156.182C173.61 156.345 173.737 156.456 173.892 156.517C174.051 156.574 174.223 156.602 174.409 156.602C174.545 156.602 174.665 156.593 174.767 156.574C174.869 156.555 174.949 156.54 175.006 156.528L175.312 157.932C175.214 157.97 175.074 158.008 174.892 158.045C174.71 158.087 174.483 158.11 174.21 158.114C173.763 158.121 173.347 158.042 172.96 157.875C172.574 157.708 172.261 157.451 172.023 157.102C171.784 156.754 171.665 156.316 171.665 155.79V147.182ZM183.159 146.364V158H181.403V146.364H183.159ZM189.256 158.176C188.411 158.176 187.684 157.985 187.074 157.602C186.468 157.216 186.002 156.684 185.676 156.006C185.35 155.328 185.188 154.551 185.188 153.676C185.188 152.79 185.354 152.008 185.688 151.33C186.021 150.648 186.491 150.116 187.097 149.733C187.703 149.35 188.417 149.159 189.239 149.159C189.902 149.159 190.492 149.282 191.011 149.528C191.53 149.771 191.949 150.112 192.267 150.551C192.589 150.991 192.78 151.504 192.841 152.091H191.188C191.097 151.682 190.888 151.33 190.562 151.034C190.241 150.739 189.809 150.591 189.267 150.591C188.794 150.591 188.379 150.716 188.023 150.966C187.67 151.212 187.396 151.564 187.199 152.023C187.002 152.477 186.903 153.015 186.903 153.636C186.903 154.273 187 154.822 187.193 155.284C187.386 155.746 187.659 156.104 188.011 156.358C188.367 156.612 188.786 156.739 189.267 156.739C189.589 156.739 189.881 156.68 190.142 156.562C190.407 156.441 190.629 156.269 190.807 156.045C190.989 155.822 191.116 155.553 191.188 155.239H192.841C192.78 155.803 192.597 156.307 192.29 156.75C191.983 157.193 191.572 157.542 191.057 157.795C190.545 158.049 189.945 158.176 189.256 158.176ZM198.419 158.176C197.559 158.176 196.819 157.992 196.197 157.625C195.58 157.254 195.103 156.733 194.766 156.062C194.432 155.388 194.266 154.598 194.266 153.693C194.266 152.799 194.432 152.011 194.766 151.33C195.103 150.648 195.572 150.116 196.175 149.733C196.781 149.35 197.489 149.159 198.3 149.159C198.792 149.159 199.269 149.241 199.732 149.403C200.194 149.566 200.608 149.822 200.976 150.17C201.343 150.519 201.633 150.972 201.845 151.528C202.057 152.081 202.163 152.754 202.163 153.545V154.148H195.226V152.875H200.499C200.499 152.428 200.408 152.032 200.226 151.688C200.044 151.339 199.788 151.064 199.459 150.864C199.133 150.663 198.75 150.562 198.311 150.562C197.834 150.562 197.417 150.68 197.061 150.915C196.709 151.146 196.436 151.449 196.243 151.824C196.054 152.195 195.959 152.598 195.959 153.034V154.028C195.959 154.612 196.061 155.108 196.266 155.517C196.474 155.926 196.764 156.239 197.135 156.455C197.506 156.667 197.94 156.773 198.436 156.773C198.758 156.773 199.052 156.727 199.317 156.636C199.582 156.542 199.811 156.402 200.004 156.216C200.197 156.03 200.345 155.801 200.447 155.528L202.055 155.818C201.927 156.292 201.696 156.706 201.362 157.062C201.033 157.415 200.618 157.689 200.118 157.886C199.622 158.08 199.055 158.176 198.419 158.176ZM208.122 149.273V150.636H203.355V149.273H208.122ZM204.634 147.182H206.332V155.438C206.332 155.767 206.382 156.015 206.48 156.182C206.579 156.345 206.705 156.456 206.861 156.517C207.02 156.574 207.192 156.602 207.378 156.602C207.514 156.602 207.634 156.593 207.736 156.574C207.838 156.555 207.918 156.54 207.974 156.528L208.281 157.932C208.183 157.97 208.043 158.008 207.861 158.045C207.679 158.087 207.452 158.11 207.179 158.114C206.732 158.121 206.315 158.042 205.929 157.875C205.543 157.708 205.23 157.451 204.991 157.102C204.753 156.754 204.634 156.316 204.634 155.79V147.182ZM213.669 158.176C212.809 158.176 212.069 157.992 211.447 157.625C210.83 157.254 210.353 156.733 210.016 156.062C209.682 155.388 209.516 154.598 209.516 153.693C209.516 152.799 209.682 152.011 210.016 151.33C210.353 150.648 210.822 150.116 211.425 149.733C212.031 149.35 212.739 149.159 213.55 149.159C214.042 149.159 214.519 149.241 214.982 149.403C215.444 149.566 215.858 149.822 216.226 150.17C216.593 150.519 216.883 150.972 217.095 151.528C217.307 152.081 217.413 152.754 217.413 153.545V154.148H210.476V152.875H215.749C215.749 152.428 215.658 152.032 215.476 151.688C215.294 151.339 215.038 151.064 214.709 150.864C214.383 150.663 214 150.562 213.561 150.562C213.084 150.562 212.667 150.68 212.311 150.915C211.959 151.146 211.686 151.449 211.493 151.824C211.304 152.195 211.209 152.598 211.209 153.034V154.028C211.209 154.612 211.311 155.108 211.516 155.517C211.724 155.926 212.014 156.239 212.385 156.455C212.756 156.667 213.19 156.773 213.686 156.773C214.008 156.773 214.302 156.727 214.567 156.636C214.832 156.542 215.061 156.402 215.254 156.216C215.447 156.03 215.595 155.801 215.697 155.528L217.305 155.818C217.177 156.292 216.946 156.706 216.612 157.062C216.283 157.415 215.868 157.689 215.368 157.886C214.872 158.08 214.305 158.176 213.669 158.176ZM219.298 158V149.273H220.94V150.659H221.031C221.19 150.189 221.471 149.82 221.872 149.551C222.277 149.278 222.736 149.142 223.247 149.142C223.353 149.142 223.478 149.146 223.622 149.153C223.77 149.161 223.885 149.17 223.969 149.182V150.807C223.901 150.788 223.779 150.767 223.605 150.744C223.431 150.718 223.257 150.705 223.082 150.705C222.681 150.705 222.323 150.79 222.009 150.96C221.698 151.127 221.452 151.36 221.27 151.659C221.088 151.955 220.997 152.292 220.997 152.67V158H219.298ZM225.439 158V149.273H227.138V158H225.439ZM226.297 147.926C226.001 147.926 225.748 147.828 225.536 147.631C225.327 147.43 225.223 147.191 225.223 146.915C225.223 146.634 225.327 146.396 225.536 146.199C225.748 145.998 226.001 145.898 226.297 145.898C226.592 145.898 226.844 145.998 227.053 146.199C227.265 146.396 227.371 146.634 227.371 146.915C227.371 147.191 227.265 147.43 227.053 147.631C226.844 147.828 226.592 147.926 226.297 147.926ZM235.963 151.403L234.423 151.676C234.359 151.479 234.257 151.292 234.116 151.114C233.98 150.936 233.795 150.79 233.56 150.676C233.325 150.562 233.031 150.506 232.679 150.506C232.198 150.506 231.796 150.614 231.474 150.83C231.152 151.042 230.991 151.316 230.991 151.653C230.991 151.945 231.099 152.18 231.315 152.358C231.531 152.536 231.88 152.682 232.361 152.795L233.747 153.114C234.55 153.299 235.149 153.585 235.543 153.972C235.937 154.358 236.134 154.86 236.134 155.477C236.134 156 235.982 156.466 235.679 156.875C235.38 157.28 234.961 157.598 234.423 157.83C233.889 158.061 233.27 158.176 232.565 158.176C231.588 158.176 230.791 157.968 230.173 157.551C229.556 157.131 229.177 156.534 229.037 155.761L230.679 155.511C230.781 155.939 230.991 156.263 231.31 156.483C231.628 156.699 232.043 156.807 232.554 156.807C233.111 156.807 233.556 156.691 233.889 156.46C234.223 156.225 234.389 155.939 234.389 155.602C234.389 155.33 234.287 155.1 234.082 154.915C233.882 154.729 233.573 154.589 233.156 154.494L231.679 154.17C230.865 153.985 230.262 153.689 229.872 153.284C229.486 152.879 229.293 152.366 229.293 151.744C229.293 151.229 229.437 150.778 229.724 150.392C230.012 150.006 230.41 149.705 230.918 149.489C231.425 149.269 232.007 149.159 232.662 149.159C233.605 149.159 234.348 149.364 234.889 149.773C235.431 150.178 235.789 150.722 235.963 151.403ZM239.564 155.04L239.553 152.966H239.848L243.325 149.273H245.359L241.393 153.477H241.126L239.564 155.04ZM238.001 158V146.364H239.7V158H238.001ZM243.513 158L240.388 153.852L241.558 152.665L245.598 158H243.513ZM248.027 158.108C247.716 158.108 247.449 157.998 247.226 157.778C247.002 157.555 246.891 157.286 246.891 156.972C246.891 156.661 247.002 156.396 247.226 156.176C247.449 155.953 247.716 155.841 248.027 155.841C248.338 155.841 248.605 155.953 248.828 156.176C249.052 156.396 249.163 156.661 249.163 156.972C249.163 157.18 249.11 157.371 249.004 157.545C248.902 157.716 248.766 157.852 248.595 157.955C248.425 158.057 248.235 158.108 248.027 158.108ZM255.115 158.176C254.27 158.176 253.543 157.985 252.933 157.602C252.327 157.216 251.861 156.684 251.536 156.006C251.21 155.328 251.047 154.551 251.047 153.676C251.047 152.79 251.214 152.008 251.547 151.33C251.88 150.648 252.35 150.116 252.956 149.733C253.562 149.35 254.276 149.159 255.098 149.159C255.761 149.159 256.352 149.282 256.871 149.528C257.39 149.771 257.808 150.112 258.126 150.551C258.448 150.991 258.64 151.504 258.7 152.091H257.047C256.956 151.682 256.748 151.33 256.422 151.034C256.1 150.739 255.668 150.591 255.126 150.591C254.653 150.591 254.238 150.716 253.882 150.966C253.53 151.212 253.255 151.564 253.058 152.023C252.861 152.477 252.763 153.015 252.763 153.636C252.763 154.273 252.859 154.822 253.053 155.284C253.246 155.746 253.518 156.104 253.871 156.358C254.227 156.612 254.645 156.739 255.126 156.739C255.448 156.739 255.74 156.68 256.001 156.562C256.267 156.441 256.488 156.269 256.666 156.045C256.848 155.822 256.975 155.553 257.047 155.239H258.7C258.64 155.803 258.456 156.307 258.149 156.75C257.842 157.193 257.431 157.542 256.916 157.795C256.405 158.049 255.804 158.176 255.115 158.176ZM264.193 158.176C263.375 158.176 262.661 157.989 262.051 157.614C261.441 157.239 260.968 156.714 260.631 156.04C260.294 155.366 260.125 154.578 260.125 153.676C260.125 152.771 260.294 151.979 260.631 151.301C260.968 150.623 261.441 150.097 262.051 149.722C262.661 149.347 263.375 149.159 264.193 149.159C265.011 149.159 265.725 149.347 266.335 149.722C266.945 150.097 267.419 150.623 267.756 151.301C268.093 151.979 268.261 152.771 268.261 153.676C268.261 154.578 268.093 155.366 267.756 156.04C267.419 156.714 266.945 157.239 266.335 157.614C265.725 157.989 265.011 158.176 264.193 158.176ZM264.199 156.75C264.729 156.75 265.169 156.61 265.517 156.33C265.866 156.049 266.123 155.676 266.29 155.21C266.46 154.744 266.545 154.231 266.545 153.67C266.545 153.114 266.46 152.602 266.29 152.136C266.123 151.667 265.866 151.29 265.517 151.006C265.169 150.722 264.729 150.58 264.199 150.58C263.665 150.58 263.222 150.722 262.869 151.006C262.521 151.29 262.261 151.667 262.091 152.136C261.924 152.602 261.841 153.114 261.841 153.67C261.841 154.231 261.924 154.744 262.091 155.21C262.261 155.676 262.521 156.049 262.869 156.33C263.222 156.61 263.665 156.75 264.199 156.75ZM270.158 158V149.273H271.788V150.693H271.896C272.078 150.212 272.375 149.837 272.788 149.568C273.201 149.295 273.696 149.159 274.271 149.159C274.855 149.159 275.343 149.295 275.737 149.568C276.135 149.841 276.429 150.216 276.618 150.693H276.709C276.917 150.227 277.249 149.856 277.703 149.58C278.158 149.299 278.699 149.159 279.328 149.159C280.12 149.159 280.766 149.407 281.266 149.903C281.769 150.4 282.021 151.148 282.021 152.148V158H280.322V152.307C280.322 151.716 280.161 151.288 279.839 151.023C279.518 150.758 279.133 150.625 278.686 150.625C278.133 150.625 277.703 150.795 277.396 151.136C277.089 151.473 276.936 151.907 276.936 152.438V158H275.243V152.199C275.243 151.725 275.095 151.345 274.8 151.057C274.504 150.769 274.12 150.625 273.646 150.625C273.324 150.625 273.027 150.71 272.754 150.881C272.485 151.047 272.268 151.28 272.101 151.58C271.938 151.879 271.857 152.225 271.857 152.619V158H270.158ZM131.108 177.159C130.328 177.159 129.631 177.025 129.017 176.756C128.407 176.487 127.924 176.114 127.568 175.636C127.216 175.155 127.027 174.598 127 173.966H128.784C128.807 174.311 128.922 174.61 129.131 174.864C129.343 175.114 129.619 175.307 129.96 175.443C130.301 175.58 130.68 175.648 131.097 175.648C131.555 175.648 131.96 175.568 132.312 175.409C132.669 175.25 132.947 175.028 133.148 174.744C133.348 174.456 133.449 174.125 133.449 173.75C133.449 173.36 133.348 173.017 133.148 172.722C132.951 172.422 132.661 172.187 132.278 172.017C131.9 171.847 131.441 171.761 130.903 171.761H129.92V170.33H130.903C131.335 170.33 131.714 170.252 132.04 170.097C132.369 169.941 132.627 169.725 132.812 169.449C132.998 169.169 133.091 168.841 133.091 168.466C133.091 168.106 133.009 167.794 132.847 167.528C132.688 167.259 132.46 167.049 132.165 166.898C131.873 166.746 131.528 166.67 131.131 166.67C130.752 166.67 130.398 166.741 130.068 166.881C129.742 167.017 129.477 167.214 129.273 167.472C129.068 167.725 128.958 168.03 128.943 168.386H127.244C127.263 167.758 127.449 167.205 127.801 166.727C128.157 166.25 128.627 165.877 129.21 165.608C129.794 165.339 130.441 165.205 131.153 165.205C131.9 165.205 132.544 165.35 133.085 165.642C133.631 165.93 134.051 166.314 134.347 166.795C134.646 167.277 134.794 167.803 134.79 168.375C134.794 169.027 134.612 169.58 134.244 170.034C133.881 170.489 133.396 170.794 132.79 170.949V171.04C133.563 171.157 134.161 171.464 134.585 171.96C135.013 172.456 135.225 173.072 135.222 173.807C135.225 174.447 135.047 175.021 134.688 175.528C134.331 176.036 133.845 176.436 133.227 176.727C132.61 177.015 131.903 177.159 131.108 177.159ZM138.168 177.108C137.857 177.108 137.59 176.998 137.366 176.778C137.143 176.555 137.031 176.286 137.031 175.972C137.031 175.661 137.143 175.396 137.366 175.176C137.59 174.953 137.857 174.841 138.168 174.841C138.478 174.841 138.745 174.953 138.969 175.176C139.192 175.396 139.304 175.661 139.304 175.972C139.304 176.18 139.251 176.371 139.145 176.545C139.043 176.716 138.906 176.852 138.736 176.955C138.565 177.057 138.376 177.108 138.168 177.108ZM153.638 169.04C153.528 168.695 153.38 168.386 153.195 168.114C153.013 167.837 152.795 167.602 152.541 167.409C152.287 167.212 151.998 167.062 151.672 166.96C151.35 166.858 150.996 166.807 150.609 166.807C149.954 166.807 149.363 166.975 148.837 167.312C148.31 167.65 147.893 168.144 147.587 168.795C147.284 169.443 147.132 170.237 147.132 171.176C147.132 172.119 147.286 172.917 147.592 173.568C147.899 174.22 148.32 174.714 148.854 175.051C149.388 175.388 149.996 175.557 150.678 175.557C151.31 175.557 151.861 175.428 152.331 175.17C152.804 174.913 153.17 174.549 153.428 174.08C153.689 173.606 153.82 173.049 153.82 172.409L154.274 172.494H150.945V171.045H155.518V172.369C155.518 173.347 155.31 174.195 154.893 174.915C154.481 175.631 153.909 176.184 153.178 176.574C152.45 176.964 151.617 177.159 150.678 177.159C149.625 177.159 148.7 176.917 147.905 176.432C147.113 175.947 146.496 175.259 146.053 174.369C145.609 173.475 145.388 172.415 145.388 171.188C145.388 170.259 145.517 169.426 145.774 168.688C146.032 167.949 146.393 167.322 146.859 166.807C147.329 166.288 147.88 165.892 148.513 165.619C149.149 165.343 149.844 165.205 150.598 165.205C151.227 165.205 151.812 165.297 152.354 165.483C152.899 165.669 153.384 165.932 153.808 166.273C154.236 166.614 154.59 167.019 154.871 167.489C155.151 167.955 155.34 168.472 155.439 169.04H153.638ZM161.287 177.176C160.469 177.176 159.755 176.989 159.145 176.614C158.535 176.239 158.062 175.714 157.724 175.04C157.387 174.366 157.219 173.578 157.219 172.676C157.219 171.771 157.387 170.979 157.724 170.301C158.062 169.623 158.535 169.097 159.145 168.722C159.755 168.347 160.469 168.159 161.287 168.159C162.105 168.159 162.819 168.347 163.429 168.722C164.039 169.097 164.512 169.623 164.849 170.301C165.187 170.979 165.355 171.771 165.355 172.676C165.355 173.578 165.187 174.366 164.849 175.04C164.512 175.714 164.039 176.239 163.429 176.614C162.819 176.989 162.105 177.176 161.287 177.176ZM161.293 175.75C161.823 175.75 162.262 175.61 162.611 175.33C162.959 175.049 163.217 174.676 163.384 174.21C163.554 173.744 163.639 173.231 163.639 172.67C163.639 172.114 163.554 171.602 163.384 171.136C163.217 170.667 162.959 170.29 162.611 170.006C162.262 169.722 161.823 169.58 161.293 169.58C160.759 169.58 160.315 169.722 159.963 170.006C159.615 170.29 159.355 170.667 159.185 171.136C159.018 171.602 158.935 172.114 158.935 172.67C158.935 173.231 159.018 173.744 159.185 174.21C159.355 174.676 159.615 175.049 159.963 175.33C160.315 175.61 160.759 175.75 161.293 175.75ZM175.56 168.273V169.636H170.793V168.273H175.56ZM172.071 166.182H173.77V174.438C173.77 174.767 173.819 175.015 173.918 175.182C174.016 175.345 174.143 175.456 174.298 175.517C174.457 175.574 174.63 175.602 174.815 175.602C174.952 175.602 175.071 175.593 175.173 175.574C175.276 175.555 175.355 175.54 175.412 175.528L175.719 176.932C175.62 176.97 175.48 177.008 175.298 177.045C175.116 177.087 174.889 177.11 174.616 177.114C174.17 177.121 173.753 177.042 173.366 176.875C172.98 176.708 172.668 176.451 172.429 176.102C172.19 175.754 172.071 175.316 172.071 174.79V166.182ZM181.021 177.176C180.203 177.176 179.489 176.989 178.879 176.614C178.269 176.239 177.796 175.714 177.459 175.04C177.122 174.366 176.953 173.578 176.953 172.676C176.953 171.771 177.122 170.979 177.459 170.301C177.796 169.623 178.269 169.097 178.879 168.722C179.489 168.347 180.203 168.159 181.021 168.159C181.839 168.159 182.554 168.347 183.163 168.722C183.773 169.097 184.247 169.623 184.584 170.301C184.921 170.979 185.089 171.771 185.089 172.676C185.089 173.578 184.921 174.366 184.584 175.04C184.247 175.714 183.773 176.239 183.163 176.614C182.554 176.989 181.839 177.176 181.021 177.176ZM181.027 175.75C181.557 175.75 181.997 175.61 182.345 175.33C182.694 175.049 182.951 174.676 183.118 174.21C183.288 173.744 183.374 173.231 183.374 172.67C183.374 172.114 183.288 171.602 183.118 171.136C182.951 170.667 182.694 170.29 182.345 170.006C181.997 169.722 181.557 169.58 181.027 169.58C180.493 169.58 180.05 169.722 179.697 170.006C179.349 170.29 179.089 170.667 178.919 171.136C178.752 171.602 178.669 172.114 178.669 172.67C178.669 173.231 178.752 173.744 178.919 174.21C179.089 174.676 179.349 175.049 179.697 175.33C180.05 175.61 180.493 175.75 181.027 175.75ZM197.76 170.403L196.22 170.676C196.156 170.479 196.054 170.292 195.913 170.114C195.777 169.936 195.591 169.79 195.357 169.676C195.122 169.562 194.828 169.506 194.476 169.506C193.995 169.506 193.593 169.614 193.271 169.83C192.949 170.042 192.788 170.316 192.788 170.653C192.788 170.945 192.896 171.18 193.112 171.358C193.328 171.536 193.677 171.682 194.158 171.795L195.544 172.114C196.347 172.299 196.946 172.585 197.339 172.972C197.733 173.358 197.93 173.86 197.93 174.477C197.93 175 197.779 175.466 197.476 175.875C197.177 176.28 196.758 176.598 196.22 176.83C195.686 177.061 195.067 177.176 194.362 177.176C193.385 177.176 192.588 176.968 191.97 176.551C191.353 176.131 190.974 175.534 190.834 174.761L192.476 174.511C192.578 174.939 192.788 175.263 193.107 175.483C193.425 175.699 193.839 175.807 194.351 175.807C194.908 175.807 195.353 175.691 195.686 175.46C196.019 175.225 196.186 174.939 196.186 174.602C196.186 174.33 196.084 174.1 195.879 173.915C195.679 173.729 195.37 173.589 194.953 173.494L193.476 173.17C192.661 172.985 192.059 172.689 191.669 172.284C191.283 171.879 191.089 171.366 191.089 170.744C191.089 170.229 191.233 169.778 191.521 169.392C191.809 169.006 192.207 168.705 192.714 168.489C193.222 168.269 193.804 168.159 194.459 168.159C195.402 168.159 196.144 168.364 196.686 168.773C197.228 169.178 197.586 169.722 197.76 170.403ZM201.497 165.364V177H199.798V165.364H201.497ZM207.544 177.176C206.684 177.176 205.944 176.992 205.322 176.625C204.705 176.254 204.228 175.733 203.891 175.062C203.557 174.388 203.391 173.598 203.391 172.693C203.391 171.799 203.557 171.011 203.891 170.33C204.228 169.648 204.697 169.116 205.3 168.733C205.906 168.35 206.614 168.159 207.425 168.159C207.917 168.159 208.394 168.241 208.857 168.403C209.319 168.566 209.733 168.822 210.101 169.17C210.468 169.519 210.758 169.972 210.97 170.528C211.182 171.081 211.288 171.754 211.288 172.545V173.148H204.351V171.875H209.624C209.624 171.428 209.533 171.032 209.351 170.688C209.169 170.339 208.913 170.064 208.584 169.864C208.258 169.663 207.875 169.562 207.436 169.562C206.959 169.562 206.542 169.68 206.186 169.915C205.834 170.146 205.561 170.449 205.368 170.824C205.179 171.195 205.084 171.598 205.084 172.034V173.028C205.084 173.612 205.186 174.108 205.391 174.517C205.599 174.926 205.889 175.239 206.26 175.455C206.631 175.667 207.065 175.773 207.561 175.773C207.883 175.773 208.177 175.727 208.442 175.636C208.707 175.542 208.936 175.402 209.129 175.216C209.322 175.03 209.47 174.801 209.572 174.528L211.18 174.818C211.052 175.292 210.821 175.706 210.487 176.062C210.158 176.415 209.743 176.689 209.243 176.886C208.747 177.08 208.18 177.176 207.544 177.176ZM216.935 177.176C216.075 177.176 215.334 176.992 214.713 176.625C214.096 176.254 213.618 175.733 213.281 175.062C212.948 174.388 212.781 173.598 212.781 172.693C212.781 171.799 212.948 171.011 213.281 170.33C213.618 169.648 214.088 169.116 214.69 168.733C215.296 168.35 216.005 168.159 216.815 168.159C217.308 168.159 217.785 168.241 218.247 168.403C218.709 168.566 219.124 168.822 219.491 169.17C219.859 169.519 220.149 169.972 220.361 170.528C220.573 171.081 220.679 171.754 220.679 172.545V173.148H213.741V171.875H219.014C219.014 171.428 218.923 171.032 218.741 170.688C218.56 170.339 218.304 170.064 217.974 169.864C217.649 169.663 217.266 169.562 216.827 169.562C216.349 169.562 215.933 169.68 215.577 169.915C215.224 170.146 214.952 170.449 214.759 170.824C214.569 171.195 214.474 171.598 214.474 172.034V173.028C214.474 173.612 214.577 174.108 214.781 174.517C214.99 174.926 215.279 175.239 215.651 175.455C216.022 175.667 216.455 175.773 216.952 175.773C217.274 175.773 217.567 175.727 217.832 175.636C218.098 175.542 218.327 175.402 218.52 175.216C218.713 175.03 218.861 174.801 218.963 174.528L220.571 174.818C220.442 175.292 220.211 175.706 219.878 176.062C219.548 176.415 219.134 176.689 218.634 176.886C218.137 177.08 217.571 177.176 216.935 177.176ZM222.564 180.273V168.273H224.223V169.688H224.365C224.464 169.506 224.606 169.295 224.791 169.057C224.977 168.818 225.234 168.61 225.564 168.432C225.893 168.25 226.329 168.159 226.871 168.159C227.575 168.159 228.204 168.337 228.757 168.693C229.31 169.049 229.744 169.562 230.058 170.233C230.376 170.903 230.536 171.71 230.536 172.653C230.536 173.597 230.378 174.405 230.064 175.08C229.75 175.75 229.318 176.267 228.768 176.631C228.219 176.991 227.592 177.17 226.888 177.17C226.357 177.17 225.924 177.081 225.587 176.903C225.253 176.725 224.992 176.517 224.803 176.278C224.613 176.04 224.467 175.828 224.365 175.642H224.263V180.273H222.564ZM224.229 172.636C224.229 173.25 224.318 173.788 224.496 174.25C224.674 174.712 224.931 175.074 225.268 175.335C225.606 175.593 226.018 175.722 226.507 175.722C227.015 175.722 227.439 175.587 227.78 175.318C228.121 175.045 228.378 174.676 228.553 174.21C228.731 173.744 228.82 173.22 228.82 172.636C228.82 172.061 228.732 171.544 228.558 171.085C228.388 170.627 228.13 170.265 227.786 170C227.445 169.735 227.018 169.602 226.507 169.602C226.015 169.602 225.598 169.729 225.257 169.983C224.92 170.237 224.664 170.591 224.49 171.045C224.316 171.5 224.229 172.03 224.229 172.636Z" fill="#EAEAEA"/>
<path d="M141.406 133.761H186.25V134.852H141.406V133.761Z" fill="#EAEAEA"/>
<path d="M180.125 161.182H283.152V162.273H180.125V161.182Z" fill="#EAEAEA"/>
<mask id="path-3-inside-1_803_152" fill="white">
<path d="M93 97C93 92.5817 96.5817 89 101 89H427C431.418 89 435 92.5817 435 97V371H93V97Z"/>
</mask>
<path d="M92 97C92 92.0294 96.0294 88 101 88H427C431.971 88 436 92.0294 436 97H434C434 93.134 430.866 90 427 90H101C97.134 90 94 93.134 94 97H92ZM435 371H93H435ZM92 371V97C92 92.0294 96.0294 88 101 88V90C97.134 90 94 93.134 94 97V371H92ZM427 88C431.971 88 436 92.0294 436 97V371H434V97C434 93.134 430.866 90 427 90V88Z" fill="#666666" mask="url(#path-3-inside-1_803_152)"/>
<rect x="93" y="57" width="60" height="24" rx="12" fill="#3C3C3C"/>
<path d="M109.869 69.75L114.069 73.95L113 75L107 69L113 63L114.069 64.05L109.869 68.25H119V69.75H109.869Z" fill="#EAEAEA"/>
<path d="M136.131 69.75L131.931 73.95L133 75L139 69L133 63L131.931 64.05L136.131 68.25H127V69.75H136.131Z" fill="#EAEAEA"/>
<rect x="537" y="136" width="64" height="64" rx="10" fill="#3C3C3C"/>
<rect x="447" y="188" width="48" height="48" rx="10" fill="#3C3C3C"/>
<rect x="373" y="218" width="32" height="32" rx="10" fill="#3C3C3C"/>
<rect x="310" y="172" width="32" height="32" rx="10" fill="#3C3C3C"/>
<rect x="508" y="239" width="48" height="48" rx="10" fill="#3C3C3C"/>
<rect x="382" y="147" width="32" height="32" rx="10" fill="#3C3C3C"/>
<path d="M569.844 188C578.266 188 583.488 183.652 583.488 176.707C583.488 171.484 579.551 167.574 574.191 167.164V166.945C578.375 166.316 581.602 162.707 581.602 158.387C581.602 152.344 576.953 148.543 569.543 148.543H552.371V188H569.844ZM560.629 154.695H567.41C571.266 154.695 573.48 156.5 573.48 159.672C573.48 163.008 570.965 164.949 566.562 164.949H560.629V154.695ZM560.629 181.848V170.391H567.547C572.414 170.391 575.066 172.359 575.066 176.051C575.066 179.824 572.496 181.848 567.738 181.848H560.629Z" fill="white"/>
<path d="M470.974 223.021L475.588 201.365C475.957 199.581 476.326 199.232 479.628 198.945L479.956 197.387H468.636L468.308 198.945C471.486 199.232 471.691 199.581 471.322 201.365L466.708 223.021C466.339 224.806 465.97 225.154 462.668 225.441L462.34 227H473.66L473.988 225.441C470.81 225.154 470.604 224.806 470.974 223.021Z" fill="#EAEAEA"/>
<path d="M392.627 152.879H390.166V164.889C390.166 168.837 393.105 171.682 398 171.682C402.895 171.682 405.834 168.837 405.834 164.889V152.879H403.373V164.735C403.373 167.53 401.418 169.555 398 169.555C394.582 169.555 392.627 167.53 392.627 164.735V152.879Z" fill="#EAEAEA"/>
<path d="M407 175.125H389V173.25H407V175.125Z" fill="#EAEAEA"/>
<path d="M322.874 183.371C322.874 183.992 323.031 184.535 323.379 185H320.688C320.564 184.531 320.503 184.025 320.503 183.48C320.503 180.227 323.195 177.943 327.027 177.943C330.719 177.943 333.385 180.295 333.487 183.645H331.18C330.975 181.484 329.373 180.158 326.963 180.158C324.656 180.158 322.874 181.361 322.874 183.371Z" fill="#EAEAEA"/>
<path d="M326.989 198.328C322.951 198.328 320.26 196.113 320.042 192.709H322.349C322.618 194.828 324.464 196.113 327.117 196.113C329.629 196.113 331.449 194.705 331.449 192.764C331.449 191.109 330.424 190.016 327.86 189.414L326.086 189H312.875V187H339.125V189H332.555C333.433 189.875 333.82 190.989 333.82 192.395C333.82 196.045 331.129 198.328 326.989 198.328Z" fill="#EAEAEA"/>
<path d="M385.512 228.887C385.829 228.57 385.829 228.055 385.512 227.738C385.195 227.421 384.68 227.421 384.363 227.738L378.675 233.425C378.358 233.743 378.358 234.257 378.675 234.575L384.363 240.262C384.68 240.579 385.195 240.579 385.512 240.262C385.829 239.945 385.829 239.43 385.512 239.113L380.399 234L385.512 228.887Z" fill="#EAEAEA"/>
<path d="M392.488 228.887C392.171 228.57 392.171 228.055 392.488 227.738C392.805 227.421 393.32 227.421 393.637 227.738L399.325 233.425C399.642 233.743 399.642 234.257 399.325 234.575L393.637 240.262C393.32 240.579 392.805 240.579 392.488 240.262C392.171 239.945 392.171 239.43 392.488 239.113L397.601 234L392.488 228.887Z" fill="#EAEAEA"/>
<path d="M522.145 258.627L518.029 262.742C514.515 266.257 514.515 271.956 518.029 275.47C521.544 278.985 527.243 278.985 530.757 275.47L536.243 269.985C539.757 266.47 539.757 260.772 536.243 257.257C535.499 256.513 534.657 255.927 533.759 255.498L532 257.257C531.817 257.44 531.663 257.641 531.537 257.854C532.483 258.125 533.376 258.633 534.121 259.379C536.465 261.722 536.465 265.521 534.121 267.864L528.636 273.349C526.293 275.692 522.494 275.692 520.151 273.349C517.808 271.006 517.808 267.207 520.151 264.864L522.529 262.486C522.192 261.226 522.064 259.921 522.145 258.627Z" fill="#EAEAEA"/>
<path d="M527.757 253.015C524.243 256.529 524.243 262.228 527.757 265.742C528.501 266.486 529.343 267.073 530.241 267.502L532.568 265.175C531.583 264.912 530.652 264.394 529.879 263.621C527.536 261.278 527.536 257.479 529.879 255.136L535.364 249.651C537.707 247.307 541.506 247.307 543.849 249.651C546.192 251.994 546.192 255.793 543.849 258.136L541.471 260.514C541.808 261.774 541.936 263.079 541.855 264.372L545.971 260.257C549.485 256.742 549.485 251.044 545.971 247.529C542.456 244.015 536.757 244.015 533.243 247.529L527.757 253.015Z" fill="#EAEAEA"/>
<path d="M277.023 199.43C278.107 199.341 290.428 199.926 288.587 203.422C287.712 205.085 285.951 206.219 284.607 207.466C283.741 208.269 283.004 209.16 281.994 209.783" stroke="#EAEAEA" stroke-width="2" stroke-linecap="round"/>
<path d="M229.753 238.231C229.331 240.601 228.877 242.963 228.44 245.33C228.28 246.193 227.436 248.875 227.867 249.933C228.13 250.577 230.049 248.848 230.312 248.715C232.146 247.788 234.581 250.668 236.076 251.342" stroke="#EAEAEA" stroke-width="2" stroke-linecap="round"/>
<path d="M225 245.481C227.609 245.587 230.206 245.525 232.814 245.421" stroke="#EAEAEA" stroke-width="2" stroke-linecap="round"/>
<path d="M239.276 245.188C237.096 247.456 238.636 250.789 241.582 251.036C243.21 251.172 245.754 250.998 246.237 249.029C246.69 247.18 245.849 245.799 244.147 245.106C241.951 244.211 240.559 244.9 238.812 246.215" stroke="#EAEAEA" stroke-width="2" stroke-linecap="round"/>
<path d="M250.435 245.646C248.099 249.163 253.431 253.11 256.084 249.595C257.032 248.339 257.353 246.325 255.818 245.375C254.281 244.424 252.582 245.453 251.211 246.119" stroke="#EAEAEA" stroke-width="2" stroke-linecap="round"/>
<path d="M262.519 238.471C262.351 242.53 261.136 246.539 261.161 250.585" stroke="#EAEAEA" stroke-width="2" stroke-linecap="round"/>
<path d="M269.409 244.008C267.998 244.072 266.128 244.538 267.104 246.196C267.678 247.173 269.053 247.45 269.495 248.407C270.498 250.584 266.76 251.108 265.5 249.971" stroke="#EAEAEA" stroke-width="2" stroke-linecap="round"/>
<path d="M283 204C271.127 205.031 256.75 208.497 251.016 217.585C247.888 222.544 248.001 228.593 248.001 234" stroke="#EAEAEA" stroke-width="2" stroke-linecap="round"/>
</svg>
