<svg id="etHT7c6EBiA1" xmlns="http://www.w3.org/2000/svg" xmlns:xlink="http://www.w3.org/1999/xlink" viewBox="0 0 640 400" shape-rendering="geometricPrecision" text-rendering="geometricPrecision">
<style><![CDATA[
#etHT7c6EBiA5_tr {animation: etHT7c6EBiA5_tr__tr 3000ms linear infinite normal forwards}@keyframes etHT7c6EBiA5_tr__tr { 0% {transform: translate(461.378601px,112.883488px) rotate(0deg);animation-timing-function: cubic-bezier(0.25,0.46,0.45,0.94)} 30% {transform: translate(461.378601px,112.883488px) rotate(0deg);animation-timing-function: cubic-bezier(0.25,0.46,0.45,0.94)} 33.333333% {transform: translate(461.378601px,112.883488px) rotate(-7.200048deg);animation-timing-function: cubic-bezier(0.25,0.46,0.45,0.94)} 36.666667% {transform: translate(461.378601px,112.883488px) rotate(0deg);animation-timing-function: cubic-bezier(0.25,0.46,0.45,0.94)} 40% {transform: translate(461.378601px,112.883488px) rotate(8.351427deg);animation-timing-function: cubic-bezier(0.25,0.46,0.45,0.94)} 43.333333% {transform: translate(461.378601px,112.883488px) rotate(-7.200048deg);animation-timing-function: cubic-bezier(0.25,0.46,0.45,0.94)} 46.666667% {transform: translate(461.378601px,112.883488px) rotate(0deg);animation-timing-function: cubic-bezier(0.25,0.46,0.45,0.94)} 50% {transform: translate(461.378601px,112.883488px) rotate(8.351427deg);animation-timing-function: cubic-bezier(0.25,0.46,0.45,0.94)} 53.333333% {transform: translate(461.378601px,112.883488px) rotate(0deg)} 100% {transform: translate(461.378601px,112.883488px) rotate(0deg)}} #etHT7c6EBiA5_ts {animation: etHT7c6EBiA5_ts__ts 3000ms linear infinite normal forwards}@keyframes etHT7c6EBiA5_ts__ts { 0% {transform: scale(1,1);animation-timing-function: cubic-bezier(0.42,0,0.58,1)} 30% {transform: scale(0.820515,0.820521);animation-timing-function: cubic-bezier(0.42,0,0.58,1)} 50% {transform: scale(1,1);animation-timing-function: cubic-bezier(0.42,0,0.58,1)} 100% {transform: scale(1,1)}} #etHT7c6EBiA6_ts {animation: etHT7c6EBiA6_ts__ts 3000ms linear infinite normal forwards}@keyframes etHT7c6EBiA6_ts__ts { 0% {transform: translate(188px,136.999969px) scale(1,1);animation-timing-function: cubic-bezier(0.645,0.045,0.355,1)} 23.333333% {transform: translate(188px,136.999969px) scale(0.791583,0.791583);animation-timing-function: cubic-bezier(0.645,0.045,0.355,1)} 50% {transform: translate(188px,136.999969px) scale(1,1);animation-timing-function: cubic-bezier(0.645,0.045,0.355,1)} 76.666667% {transform: translate(188px,136.999969px) scale(0.791583,0.791583);animation-timing-function: cubic-bezier(0.645,0.045,0.355,1)} 100% {transform: translate(188px,136.999969px) scale(1,1)}} #etHT7c6EBiA7_ts {animation: etHT7c6EBiA7_ts__ts 3000ms linear infinite normal forwards}@keyframes etHT7c6EBiA7_ts__ts { 0% {transform: translate(143.500004px,91.651005px) scale(1,1);animation-timing-function: cubic-bezier(0.645,0.045,0.355,1)} 33.333333% {transform: translate(143.500004px,91.651005px) scale(0.824544,0.824544);animation-timing-function: cubic-bezier(0.645,0.045,0.355,1)} 50% {transform: translate(143.500004px,91.651005px) scale(1,1);animation-timing-function: cubic-bezier(0.645,0.045,0.355,1)} 83.333333% {transform: translate(143.500004px,91.651005px) scale(0.824544,0.824544);animation-timing-function: cubic-bezier(0.645,0.045,0.355,1)} 100% {transform: translate(143.500004px,91.651005px) scale(1,1)}} #etHT7c6EBiA8_ts {animation: etHT7c6EBiA8_ts__ts 3000ms linear infinite normal forwards}@keyframes etHT7c6EBiA8_ts__ts { 0% {transform: translate(218px,71.999998px) scale(1,1);animation-timing-function: cubic-bezier(0.645,0.045,0.355,1)} 13.333333% {transform: translate(218px,71.999998px) scale(0.830817,0.830817);animation-timing-function: cubic-bezier(0.645,0.045,0.355,1)} 50% {transform: translate(218px,71.999998px) scale(1,1);animation-timing-function: cubic-bezier(0.645,0.045,0.355,1)} 63.333333% {transform: translate(218px,71.999998px) scale(0.830817,0.830817);animation-timing-function: cubic-bezier(0.645,0.045,0.355,1)} 100% {transform: translate(218px,71.999998px) scale(1,1)}}
]]></style>
<defs><filter id="etHT7c6EBiA26-filter" x="-150%" width="400%" y="-150%" height="400%"><feGaussianBlur id="etHT7c6EBiA26-filter-drop-shadow-0-blur" in="SourceAlpha" stdDeviation="5,5"/><feOffset id="etHT7c6EBiA26-filter-drop-shadow-0-offset" dx="0" dy="0" result="tmp"/><feFlood id="etHT7c6EBiA26-filter-drop-shadow-0-flood" flood-color="rgba(0,0,0,0)"/><feComposite id="etHT7c6EBiA26-filter-drop-shadow-0-composite" operator="in" in2="tmp"/><feMerge id="etHT7c6EBiA26-filter-drop-shadow-0-merge" result="result"><feMergeNode id="etHT7c6EBiA26-filter-drop-shadow-0-merge-node-1"/><feMergeNode id="etHT7c6EBiA26-filter-drop-shadow-0-merge-node-2" in="SourceGraphic"/></feMerge></filter></defs><g clip-path="url(#etHT7c6EBiA81)"><g><rect width="220" height="40" rx="20" ry="20" transform="translate(210 180)" fill="#0077ce"/><g id="etHT7c6EBiA5_tr" transform="translate(461.378601,112.883488) rotate(0)"><g id="etHT7c6EBiA5_ts" transform="scale(1,1)"><path d="M439.206,63.5513c15.138,2.8467,25.148,17.1807,22.358,32.016c2.79-14.8353,17.324-24.5539,32.462-21.7073c15.138,2.8467,25.148,17.1807,22.358,32.016-4.205,22.362-20.251,32.233-64.517,56.033-1.709,1.396-4.281.912-5.366-1.009-32.597-38.254-43.961-53.279-39.756-75.6414c2.79-14.8353,17.323-24.5539,32.461-21.7073Z" transform="translate(-461.378601,-112.883488)" fill="#ff5353"/></g></g><g id="etHT7c6EBiA6_ts" transform="translate(188,136.999969) scale(1,1)"><path d="M186.049,100.662c.469-2.0811,3.433-2.0811,3.902,0l6.044,26.831c.17.754.758,1.342,1.512,1.512l26.831,6.044c2.081.469,2.081,3.433,0,3.902l-26.831,6.044c-.754.17-1.342.758-1.512,1.512l-6.044,26.831c-.469,2.081-3.433,2.081-3.902,0l-6.044-26.831c-.17-.754-.758-1.342-1.512-1.512l-26.831-6.044c-2.081-.469-2.081-3.433,0-3.902l26.831-6.044c.754-.17,1.342-.758,1.512-1.512l6.044-26.831Z" transform="translate(-188,-136.999969)" fill="#ffd700"/></g><g id="etHT7c6EBiA7_ts" transform="translate(143.500004,91.651005) scale(1,1)"><path d="M141.549,71.6615c.469-2.0806,3.433-2.0806,3.902,0l3.195,14.1813c.169.7535.758,1.3419,1.511,1.5116l14.181,3.1945c2.081.4687,2.081,3.4335,0,3.9022l-14.181,3.1945c0,0-1.342.7581-1.511,1.5116l-3.195,14.1808c-.469,2.081-3.433,2.081-3.902,0l-3.195-14.1808c-.169-.7535-.758-1.3419-1.511-1.5116l-14.181-3.1945c-2.081-.4687-2.081-3.4335,0-3.9022l14.181-3.1945c.753-.1697,1.342-.7581,1.511-1.5116l3.195-14.1813Z" transform="translate(-143.500004,-92.499901)" fill="#ffd700"/></g><g id="etHT7c6EBiA8_ts" transform="translate(218,71.999998) scale(1,1)"><path d="M216.049,50.6615c.469-2.0806,3.433-2.0806,3.902,0l3.287,14.5894c.169.7534.758,1.3418,1.511,1.5116l14.589,3.2864c2.081.4687,2.081,3.4335,0,3.9022l-14.589,3.2864c-.753.1698-1.342.7582-1.511,1.5116l-3.287,14.5894c-.469,2.0806-3.433,2.0806-3.902,0l-3.287-14.5894c-.169-.7534-.758-1.3418-1.511-1.5116l-14.589-3.2864c-2.081-.4687-2.081-3.4335,0-3.9022l14.589-3.2864c.753-.1698,1.342-.7582,1.511-1.5116l3.287-14.5894Z" transform="translate(-218,-71.999998)" fill="#ffd700"/></g><path d="M152.597,321.18c-1.888,0-3.825-.101-5.785-.306-7.533-.789-13.953-2.994-16.975-5.803-14.013,3.455-23.609,2.533-29.304-2.817-5.3493.758-9.6872.69-12.8983-.202-3.0138-.837-4.9605-3.184-6.2527-4.755-1.2125.158-3.1362.106-5.0291-1.19-2.755-1.887-4.422-5.688-4.3507-9.919l.1367-36.35c.0012-.316.1072-.618.294-.837.1865-.22.4359-.335.6974-.328l158.5327,6.281c.505.021.911.514.928,1.13l.829,29.405c.004.132-.011.264-.043.389-1.981,7.72-10.955,12.509-27.432,14.633-.798,2.722-2.586,4.974-5.323,6.704-8.048,5.084-23.448,4.668-32.114.922-4.223,1.991-9.814,3.043-15.911,3.043Zm-22.508-8.536c.228,0,.451.099.627.284c2.511,2.639,8.894,4.843,16.261,5.614c8.169.856,15.881-.143,21.156-2.741.222-.109.47-.114.694-.012c8.053,3.642,23.309,4.15,30.911-.652c2.495-1.577,4.027-3.599,4.551-6.011.103-.471.434-.815.831-.864c15.663-1.932,24.535-6.271,26.375-12.899l-.792-28.105-156.6485-6.206-.1323,35.165c-.057,3.386,1.2349,6.386,3.3712,7.849c1.6669,1.141,3.3935,1.017,4.2743.84.3022-.06.6099.059.8283.32.1007.121.2057.249.3153.382c1.2044,1.464,2.8539,3.469,5.35,4.162c3.0744.854,7.3267.888,12.6387.103.26-.039.521.054.723.255c5.235,5.211,14.548,6.04,28.472,2.54.064-.016.129-.024.194-.024Z" fill="#05046a"/><path d="M90.0041,255.351c-6.7138-1.21-12.3947-.708-16.1944,2.911-.794.757-.9604,2.14-.3582,3.125c1.1957,1.956,3.7448,3.314,7.3516,4.204-2.3151,1.275-3.3719,2.793-2.7254,4.638.2787.796.8301,1.402,1.4847,1.737c5.771,2.949,13.1275,3.854,21.2536,3.767-1.14,5.651,11.645,4.634,27.913,1.95-2.251,9.211,22.978,10.441,64.208,7.026c2.764-.229,5.446-1.387,7.629-3.466.711-.677,1.343-1.414,1.907-2.204.71-.995,1.715-1.602,2.795-1.697c28.756-2.517,32.545-12.647,18.492-17.604L90.0041,255.351Z" fill="#f4f2fc"/><path d="M157.842,287.617c-22.154,0-27.532-3.202-29.369-6.002-.511-.778-.791-1.65-.836-2.573-17.015,2.742-24.912,2.609-27.15-.427-.369-.5-.5943-1.076-.6717-1.707-.0186,0-.037,0-.0556,0-8.8683,0-15.4245-1.234-20.5688-3.863-.9199-.471-1.6288-1.307-1.9963-2.356-.4468-1.276-.5088-2.985,1.1153-4.632-2.74-.965-4.5913-2.274-5.6285-3.971-.9175-1.501-.6815-3.585.537-4.746c3.6721-3.498,9.1908-4.53,16.8688-3.158l133.6978,4.386c.082.003.163.018.241.046c5.831,2.057,8.881,5.066,8.586,8.474-.5,5.785-10.442,9.947-27.276,11.421-.835.073-1.594.534-2.139,1.298-.614.86-1.301,1.654-2.04,2.358-2.283,2.174-5.103,3.458-8.155,3.711-14.917,1.236-26.362,1.741-35.16,1.741Zm-29.113-11.104c.278,0,.545.147.729.409.212.302.284.714.191,1.095-.2.816-.097,1.495.324,2.136c1.229,1.873,5.564,4.249,19.238,4.932c10.359.518,25.048-.002,43.661-1.544c2.667-.222,5.123-1.335,7.103-3.22.643-.612,1.239-1.302,1.773-2.05.88-1.234,2.106-1.979,3.451-2.096c19.644-1.72,25.274-6.675,25.503-9.332.139-1.601-1.655-3.997-7.092-5.939L89.9783,256.52c-.0385-.001-.0766-.005-.1147-.012-7.1599-1.29-12.2178-.414-15.4628,2.676-.3894.371-.4682,1.031-.1795,1.504.9957,1.628,3.2742,2.892,6.7723,3.755.4083.101.7167.512.7635,1.016.0467.505-.1789.989-.5585,1.198-2.79,1.537-2.389,2.682-2.238,3.113.1679.479.5226.886.9731,1.116c5.0294,2.571,11.8552,3.78,20.8733,3.676.296.013.578.161.762.444.184.284.25.655.179,1.006-.113.561.013.831.167,1.038c2.547,3.455,20.714.457,26.685-.527.043-.007.086-.01.129-.01Z" fill="#05046a"/><path d="M80.7877,306.325c-1.7799-10.727-2.0563-21.66-1.9049-32.541.0034-.215.1494-.387.3261-.383.1714.004.3087.173.314.38.2726,10.747.9732,21.595,3.1357,32.017.283,1.539-1.5642,2.075-1.8709.527Z" fill="#05046a"/><path d="M101.776,275.772c-.32,5.993-.383,12.015.057,18.002.025.329-.174.621-.445.651-.259.029-.49-.196-.53-.505-.759-6.026-1.0115-12.136-1.0015-18.227.0011-.647.4315-1.17.9625-1.169.552-.001.995.577.957,1.248Z" fill="#05046a"/><path d="M129.668,277.923c-.674,3.7-.253,7.743.029,11.554.324,3.96.668,7.974.572,12.001-.017.519-.662.537-.68,0-.111-3.952-.652-7.86-1.181-11.796-.509-4.052-1.155-8.057-.619-12.239.263-1.574,2.156-1.101,1.879.48Z" fill="#05046a"/><path d="M171.214,319.126c-4.024-1.18-4.262-7.2-4.31-11.235-.036-4.039.131-8.029.103-12.052-.001-.3.197-.545.443-.547.238-.002.434.226.448.512.095,2.011.154,4.024.205,6.031.148,3.863.05,8.02.937,11.688.416,1.664,1.223,3.041,2.644,3.333c1.25.402.793,2.639-.47,2.27Z" fill="#05046a"/><path d="M198.305,283.205c.712,5.408.627,10.869.271,16.287-.012.174-.137.304-.28.29-.136-.013-.239-.154-.239-.317.005-2.686-.063-5.369-.257-8.028-.194-2.657-.515-5.293-1.027-7.852-.219-1.278,1.32-1.668,1.532-.38Z" fill="#05046a"/><path d="M203.152,311.881c.357-.674.476-1.795.541-2.674.078-1.055.083-2.155.071-3.255-.146-6.695-.751-13.403-.992-20.114-.018-.622.744-.718.81-.073.363,4.457.832,8.898,1.271,13.36.324,3.978.912,8.007.475,12.036-.096.626-.221,1.286-.564,1.992-.713,1.349-2.332.078-1.612-1.272Z" fill="#05046a"/><g opacity="0.3"><path d="M153.928,319.386c3.897.485,7.636-2.632,9.744-6.704c2.107-4.071,2.877-8.96,3.44-13.742-.292,5.296.159,10.655,1.327,15.765.114.495.234,1.023.111,1.515-.211.848-1.015,1.193-1.714,1.397-4.139,1.208-8.412,1.719-12.663,1.514" fill="#05046a"/></g><g opacity="0.3"><path d="M204.34,293.088c.051,4.011,1.588,7.96,4.106,10.545c2.517,2.584,5.971,3.76,9.223,3.139-3.67.745-7.341,1.491-11.011,2.236-.677.138-1.488.221-1.937-.413-.292-.412-.326-1.002-.346-1.547-.171-4.62-.341-9.24-.511-13.86" fill="#05046a"/></g><g opacity="0.3"><path d="M132.39,309.496c-1.582-3.999-2.05-8.468-2.499-12.851.003.424.005.848.008,1.272-.027-.284-.053-.568-.081-.852.071,4.485-.662,8.987-2.132,13.099-.655,1.832-1.66,3.779-3.273,4.139l-.644.408c1.734-.008,3.466-.208,5.17-.596.479-.109.99-.256,1.316-.698.036-.048.065-.1.095-.153.074.243.162.48.27.708.816,1.746,2.509,2.668,4.164,3.052c1.656.384,3.368.346,5.019.756l.754.031c-3.672-.796-6.585-4.317-8.167-8.315Z" fill="#05046a"/></g><g opacity="0.3"><path d="M92.9397,311.476c3.0798-1.029,5.3873-4.296,6.5966-7.899c1.2097-3.602,1.4887-7.551,1.7547-11.43.432,3.51.012,7.081-.053,10.629-.066,3.548.286,7.305,2.02,10.156-.692-1.141-1.781-1.911-2.936-2.079-2.3287-.338-4.7773,1.638-6.9254.491" fill="#05046a"/></g><g transform="translate(-2.215954 1.06098)" filter="url(#etHT7c6EBiA26-filter)"><path d="M374.53,275.775l-9.136,17.462c-.65,1.24-2.345,1.438-3.262.38L346.59,275.703c0,0,20.421-4.264,20.353-3.856-.069.408,7.587,3.928,7.587,3.928Z" fill="#b5d1db"/><path d="M332.89,232.29c10.999,6.634,46.41,28.589,59.811,36.905c1.77,1.098,1.199,3.804-.862,4.1l-17.309,2.48-9.108,17.407c-.366.699-1.057,1.075-1.761,1.089-.571.011,1.129-15.144,1.129-15.144s-19.421,9.915-28.629,14.592c-2.268,1.152-4.962-.452-5.028-2.995-.332-12.989-1.162-45.465-1.446-56.567-.043-1.67,1.773-2.729,3.203-1.867Z" fill="#fff"/><path d="M363.661,294.27c-.571.011,1.129-15.143,1.129-15.143l-23.909-31.413c-.162-.212.118-.477.322-.305l33.328,28.366-9.108,17.407c-.367.699-1.058,1.074-1.762,1.088Z" fill="#d6e2ea"/></g><path d="M368.972,299.761c37.216,27.761,102.256,43.926,142.275,11.252c16.15-13.185,25.616-33.197,21.626-54.665-5.042-27.129-33.126-26.881-44.379-2.748-18.486,39.645,4.389,96.451,35.969,120.72c18.252,14.026,42.134,18.185,62.261,5.157" fill="none" stroke="#fff" stroke-width="2" stroke-miterlimit="10" stroke-dasharray="5,5"/><g opacity="0.2"><path d="M138.838,259.774c18.586,0,33.654,2.714,33.654,6.061s-15.068,6.061-33.654,6.061c-18.587,0-33.654-2.714-33.654-6.061s15.067-6.061,33.654-6.061Z" clip-rule="evenodd" fill="#010074" fill-rule="evenodd"/></g><path d="M109.612,238.35c-.383,0-.696-.307-.703-.691-.096-5.453.471-9.978,1.684-13.45.128-.367.53-.56.896-.432.367.128.56.529.432.896-1.158,3.314-1.699,7.675-1.605,12.961.006.389-.303.709-.691.716-.004,0-.009,0-.013,0Z" fill="#010074"/><path d="M168.532,235.056c-.098,12.691-6.176,27.801-29.285,27.873-21.782.069-30.01-13.37-29.649-27.486-14.5148,12.36-15.3998-5.662,3.649-20.566-1.24-13.695,3.036-23.389,12.826-29.081c15.157-12.313,20.815-14.303,16.973-5.97c7.492-5.355,9.667-3.678,6.523,5.031c11.641,4.919,16.783,15.055,15.425,30.407c21.356,18.748,15.349,30.652,3.538,19.792Z" clip-rule="evenodd" fill="#575d93" fill-rule="evenodd"/><path d="M139.078,263.633c-9.973,0-17.723-2.754-23.036-8.188-4.509-4.611-7.021-11.142-7.153-18.516-3.561,2.782-6.486,3.853-8.506,3.103-.8362-.311-1.8951-1.084-2.1936-3.005-.391-2.516.7128-6.174,3.0286-10.036c1.822-3.04,5.254-7.644,11.295-12.432-1.143-13.706,3.283-23.578,13.159-29.343c13.975-11.349,17.235-11.816,18.577-10.772.775.601.88,1.718.298,3.523c3.015-1.887,4.997-2.351,6.165-1.467c1.342,1.017,1.262,3.558-.262,7.973c11.384,5.086,16.522,15.343,15.275,30.498c5.049,4.467,9.001,8.965,11.441,13.022c2.162,3.595,3.099,6.794,2.64,9.01-.282,1.359-1.093,2.318-2.285,2.702-2.097.675-5.084-.464-8.325-3.137-.234,5.212-1.562,12.045-6.134,17.603-5.138,6.245-13.149,9.428-23.813,9.461-.057.001-.114.001-.171.001Zm-29.48-28.894c.103,0,.206.023.303.069.25.119.407.375.4.652-.195,7.605,2.201,14.353,6.747,19.002c5.038,5.152,12.45,7.764,22.03,7.764.056,0,.111,0,.167,0c25.61-.081,28.521-19.032,28.584-27.176.002-.278.168-.529.423-.639.255-.111.552-.061.756.127c3.818,3.511,6.679,4.28,8.082,3.828.709-.228,1.159-.783,1.339-1.649.762-3.673-3.241-11.568-13.899-20.924-.169-.148-.257-.368-.237-.591c1.34-15.152-3.566-24.867-14.998-29.697-.344-.146-.514-.535-.387-.887c2.03-5.625,1.244-6.777.954-6.997-.287-.217-1.598-.66-6.407,2.777-.26.185-.611.173-.857-.031-.246-.203-.324-.546-.191-.836c1.59-3.448.986-3.972.98-3.977-.078-.06-.869-.518-4.778,1.861-2.917,1.775-6.986,4.778-12.093,8.927-.028.023-.058.044-.09.062-9.487,5.516-13.685,15.074-12.479,28.409.022.238-.079.47-.267.618-6.058,4.739-9.465,9.296-11.256,12.283-2.118,3.532-3.1812,6.933-2.8448,9.097.1556,1.001.5908,1.641,1.2928,1.902.796.296,3.195.516,8.27-3.806.13-.111.292-.168.456-.168Z" fill="#010074"/><g opacity="0.5"><path d="M143.934,179.207c6.771-4.586,8.651-2.703,5.635,5.65c11.642,4.919,16.783,15.055,15.425,30.407c14.55,12.773,16.396,22.366,12.362,23.751.765-5.312-3.576-13.432-13.243-23.473.181-18.095-7.512-29.101-22.28-31.624c1.708-.668,3.828-.705,6.358-.11c3.054-7.173,1.414-8.224-4.92-3.151.206-.493.428-.976.663-1.45Z" clip-rule="evenodd" fill="#fff" fill-rule="evenodd"/></g><g opacity="0.5"><path d="M99.4131,238.389c-2.2615-3.477,1.8209-14.113,13.8339-23.512-1.239-13.695,3.036-23.389,12.826-29.081c14.473-11.757,20.284-14.101,17.434-7.035-.32.221-.657.448-1.012.68c2.569-4.711-.638-3.623-9.62,3.262c2.097-.227,3.12.123,3.069,1.05-13.671,2.173-21.816,12.92-21.977,31.541-10.046,10.799-14.3071,18.926-13.226,23.886-.449-.256-.8908-.52-1.3279-.791Z" clip-rule="evenodd" fill="#fff" fill-rule="evenodd"/></g><path d="M154.702,259.807c-4.014,1.939-9.086,3.103-15.455,3.122-5.961.019-10.905-.975-14.938-2.717-12.924-7.592-15.778-32.349-2.269-47.104-8.509-13.894,4.836-28.025,17.138-18.908c12.303-9.117,25.648,5.014,17.139,18.908c13.278,14.503,10.747,38.668-1.615,46.699Z" transform="translate(-.357456 0)" clip-rule="evenodd" fill="#fff" fill-rule="evenodd"/><path d="M168.502,237.04c-.003,0-.005,0-.007,0-.389-.004-.7-.322-.696-.711.031-3.021-.601-6.826-1.878-11.309-.107-.373.11-.763.484-.869.373-.106.762.11.869.484c1.314,4.612,1.964,8.552,1.931,11.709-.004.386-.318.696-.703.696Z" fill="#010074"/><path d="M124.576,187.43c-.24,0-.473-.122-.605-.342-.199-.333-.09-.765.243-.965c3.81-2.279,7.617-3.573,11.317-3.847.391-.026.725.262.754.649.028.388-.263.725-.65.754-3.479.257-7.079,1.486-10.699,3.651-.113.068-.237.1-.36.1Z" fill="#000072"/><path d="M151.478,186.444c-.105,0-.211-.024-.311-.073-2.971-1.471-5.98-2.321-8.943-2.526-.387-.027-.679-.363-.652-.751.026-.387.359-.68.75-.653c3.147.219,6.333,1.117,9.468,2.669.349.172.491.594.319.942-.123.248-.372.392-.631.392Z" fill="#000072"/><path d="M130.562,202.742c1.735.088,3.039,2.181,2.913,4.674-.126,2.494-1.635,4.444-3.37,4.357-1.735-.088-3.039-2.181-2.913-4.674.126-2.494,1.635-4.445,3.37-4.357Z" clip-rule="evenodd" fill="#010074" fill-rule="evenodd"/><path d="M131.881,204.718c.517.026.9.77.855,1.66-.045.891-.501,1.592-1.018,1.566-.517-.027-.9-.77-.855-1.661.045-.89.501-1.591,1.018-1.565Z" clip-rule="evenodd" fill="#fff" fill-rule="evenodd"/><g opacity="0.35"><path d="M128.36,206.975c.253-.053.605.613.784,1.487.18.874.12,1.624-.134,1.676s-.605-.614-.784-1.487c-.18-.874-.12-1.624.134-1.676Z" clip-rule="evenodd" fill="#fff" fill-rule="evenodd"/></g><path d="M147.502,202.742c-1.735.088-3.04,2.181-2.913,4.674.126,2.494,1.634,4.444,3.37,4.357c1.735-.088,3.039-2.181,2.913-4.674-.126-2.494-1.635-4.445-3.37-4.357Z" clip-rule="evenodd" fill="#010074" fill-rule="evenodd"/><path d="M146.182,204.718c-.517.026-.9.77-.855,1.66.045.891.501,1.592,1.018,1.566.518-.027.9-.77.855-1.661-.045-.89-.5-1.591-1.018-1.565Z" clip-rule="evenodd" fill="#fff" fill-rule="evenodd"/><g opacity="0.35"><path d="M149.704,206.975c-.254-.053-.605.613-.784,1.487-.18.874-.12,1.624.134,1.676s.605-.614.784-1.487c.18-.874.12-1.624-.134-1.676Z" clip-rule="evenodd" fill="#fff" fill-rule="evenodd"/></g><path d="M139.078,263.633c-9.973,0-17.723-2.754-23.036-8.188-4.509-4.611-7.021-11.142-7.153-18.516-3.561,2.782-6.486,3.853-8.506,3.103-.8362-.311-1.8951-1.084-2.1936-3.005-.391-2.516.7128-6.174,3.0286-10.036c1.822-3.04,5.254-7.644,11.295-12.432-1.143-13.706,3.283-23.578,13.159-29.343c13.975-11.349,17.235-11.816,18.577-10.772.775.601.88,1.718.298,3.523c3.015-1.887,4.997-2.351,6.165-1.467c1.342,1.017,1.262,3.558-.262,7.973c11.384,5.086,16.522,15.343,15.275,30.498c5.049,4.467,9.001,8.965,11.441,13.022c2.162,3.595,3.099,6.794,2.64,9.01-.282,1.359-1.093,2.318-2.285,2.702-2.097.675-5.084-.464-8.325-3.137-.234,5.212-1.562,12.045-6.134,17.603-5.138,6.245-13.149,9.428-23.813,9.461-.057.001-.114.001-.171.001Zm-29.48-28.894c.103,0,.206.023.303.069.25.119.407.375.4.652-.195,7.605,2.201,14.353,6.747,19.002c5.038,5.152,12.45,7.764,22.03,7.764.056,0,.111,0,.167,0c25.61-.081,28.521-19.032,28.584-27.176.002-.278.168-.529.423-.639.255-.111.552-.061.756.127c3.818,3.511,6.679,4.28,8.082,3.828.709-.228,1.159-.783,1.339-1.649.762-3.673-3.241-11.568-13.899-20.924-.169-.148-.257-.368-.237-.591c1.34-15.152-3.566-24.867-14.998-29.697-.344-.146-.514-.535-.387-.887c2.03-5.625,1.244-6.777.954-6.997-.287-.217-1.598-.66-6.407,2.777-.26.185-.611.173-.857-.031-.246-.203-.324-.546-.191-.836c1.59-3.448.986-3.972.98-3.977-.078-.06-.869-.518-4.778,1.861-2.917,1.775-6.986,4.778-12.093,8.927-.028.023-.058.044-.09.062-9.487,5.516-13.685,15.074-12.479,28.409.022.238-.079.47-.267.618-6.058,4.739-9.465,9.296-11.256,12.283-2.118,3.532-3.1812,6.933-2.8448,9.097.1556,1.001.5908,1.641,1.2928,1.902.796.296,3.195.516,8.27-3.806.13-.111.292-.168.456-.168Z" fill="#000072"/><g opacity="0.3"><path d="M168.532,235.056c-.098,12.691-6.176,27.801-29.285,27.873-21.782.069-30.01-13.37-29.649-27.487-2.918,2.485-5.284,3.741-7.049,4.042-1.271.071-2.371-.389-3.2984-1.379l-.005-.008c3.8414.251,7.6304-4.427,11.3684-14.035.591-.606,1.027-.517,1.306.268.165,24.107,7.851,33.647,27.311,33.773c19.037-.019,26.446-9.295,26.611-33.403.259-.727.721-.857,1.384-.391c4.387,10.179,8.156,14.802,11.31,13.869-1.487,1.921-5.281,1.221-10.004-3.122Z" clip-rule="evenodd" fill="#000072" fill-rule="evenodd"/></g><path d="M161.86,268.015c-1.209,0-2.941-.678-5.362-2.079-4.03,1.724-6.254,1.992-7.188.872-.891-1.067-.33-2.969,1.819-6.167.217-.322.653-.408.976-.191.322.217.408.654.191.976-2.447,3.642-1.969,4.406-1.906,4.481.072.087.856.789,5.875-1.402.207-.09.444-.076.638.039c4.245,2.504,5.251,2.075,5.41,1.964.206-.144.251-.645.121-1.339-.041-.221.025-.449.179-.612.155-.164.376-.243.601-.215c3.359.427,4.264-.022,4.439-.143-.239-.657-3.295-2.85-11.481-4.555-.38-.079-.624-.451-.545-.831.08-.381.452-.625.832-.545c6.557,1.365,12.994,3.808,12.596,6.188-.205,1.223-1.934,1.685-5.143,1.379.005.84-.26,1.452-.792,1.825-.336.236-.752.355-1.26.355Z" fill="#010074"/><path d="M151.713,261.034c-3.948,5.875-2.337,7.246,4.833,4.116c4.946,2.918,7.139,2.881,6.579-.11c9.122,1.16,6.023-3.411-6.809-6.084-1.456.841-3.014,1.534-4.603,2.078Z" clip-rule="evenodd" fill="#fdaf1d" fill-rule="evenodd"/><path d="M161.86,268.015c-1.209,0-2.941-.677-5.362-2.079-4.03,1.724-6.254,1.992-7.188.872-.891-1.067-.33-2.969,1.819-6.167.085-.127.211-.223.356-.273c1.593-.545,3.1-1.225,4.479-2.021.15-.086.326-.114.495-.079c6.557,1.365,12.994,3.808,12.596,6.188-.205,1.223-1.934,1.685-5.143,1.379.005.84-.26,1.452-.792,1.825-.336.236-.752.355-1.26.355Zm-5.314-3.568c.124,0,.247.032.357.097c4.245,2.504,5.251,2.075,5.41,1.964.206-.144.251-.645.121-1.339-.041-.221.025-.449.18-.612.154-.164.375-.243.6-.215c3.359.427,4.264-.022,4.439-.143-.237-.65-3.231-2.803-11.221-4.5-1.326.746-2.759,1.392-4.265,1.922-2.301,3.475-1.839,4.212-1.777,4.286.072.087.856.789,5.875-1.402.09-.039.186-.058.281-.058Z" fill="#010074"/><g opacity="0.73"><path d="M163.239,265.053c8.594,1.059,6.099-3.055-5.332-5.744-.545.171-1.1.352-1.669.545c9.667,2.945,12.184,4.584,6.727,4.854.091.117.183.232.274.345Z" clip-rule="evenodd" fill="#fff" fill-rule="evenodd"/></g><g opacity="0.3"><path d="M151.713,261.034c-3.948,5.875-2.337,7.246,4.833,4.116c4.946,2.918,7.139,2.881,6.579-.11.24.03.47.056.693.078-.34-.395-.727-.757-1.163-1.075.42,1.985-1.63,2.007-6.149.068-5.051.974-5.558-.362-1.52-4.008-.1-.098-.201-.193-.305-.284-.965.465-1.96.87-2.968,1.215Z" clip-rule="evenodd" fill="#010074" fill-rule="evenodd"/></g><path d="M163.028,267.434c-.065,0-.13-.009-.195-.028-.374-.107-.589-.497-.481-.87.38-1.316-.278-2.62-2.01-3.986-.305-.241-.358-.683-.117-.988.24-.305.683-.357.987-.117c2.202,1.736,3.04,3.58,2.491,5.481-.089.308-.37.508-.675.508Z" fill="#000072"/><path d="M161.86,268.015c-1.209,0-2.941-.677-5.362-2.079-4.03,1.724-6.254,1.992-7.188.872-.891-1.067-.33-2.969,1.819-6.167.085-.127.211-.223.356-.273c1.593-.545,3.1-1.225,4.479-2.021.15-.086.326-.114.495-.079c6.557,1.365,12.994,3.808,12.596,6.188-.205,1.223-1.934,1.685-5.143,1.379.005.84-.26,1.452-.792,1.825-.336.236-.752.355-1.26.355Zm-5.314-3.568c.124,0,.247.032.357.097c4.245,2.504,5.251,2.075,5.41,1.964.206-.144.251-.645.121-1.339-.041-.221.025-.449.18-.612.154-.164.375-.243.6-.215c3.359.427,4.264-.022,4.439-.143-.237-.65-3.231-2.803-11.221-4.5-1.326.746-2.759,1.392-4.265,1.922-2.301,3.475-1.839,4.212-1.777,4.286.072.087.856.789,5.875-1.402.09-.039.186-.058.281-.058Z" fill="#000072"/><path d="M116.039,268.015c-.508,0-.924-.119-1.259-.355-.532-.373-.797-.985-.792-1.825-3.21.306-4.938-.156-5.143-1.379-.398-2.38,6.039-4.823,12.596-6.188.38-.08.753.165.832.545s-.165.752-.545.832c-8.186,1.704-11.242,3.897-11.481,4.554.175.121,1.08.57,4.439.143.224-.028.446.051.601.215.154.164.221.391.179.612-.13.694-.085,1.195.121,1.339.158.112,1.164.54,5.409-1.964.194-.115.432-.129.639-.039c5.018,2.191,5.802,1.488,5.875,1.402.063-.075.541-.839-1.907-4.481-.216-.322-.131-.759.191-.976.323-.217.76-.131.976.191c2.149,3.198,2.711,5.099,1.82,6.167-.935,1.12-3.158.853-7.189-.871-2.42,1.401-4.152,2.078-5.362,2.078Z" fill="#010074"/><path d="M126.187,261.034c3.948,5.875,2.336,7.246-4.834,4.116-4.946,2.918-7.139,2.881-6.578-.11-9.123,1.16-6.024-3.411,6.809-6.084c1.456.841,3.014,1.534,4.603,2.078Z" clip-rule="evenodd" fill="#fdaf1d" fill-rule="evenodd"/><path d="M116.039,268.015c-.508,0-.924-.119-1.259-.355-.532-.373-.797-.985-.792-1.825-3.21.306-4.938-.156-5.143-1.379-.398-2.38,6.039-4.823,12.596-6.188.169-.035.345-.007.495.079c1.379.796,2.886,1.476,4.479,2.021.145.05.27.146.356.273c2.148,3.198,2.71,5.099,1.819,6.167-.935,1.12-3.158.853-7.189-.872-2.42,1.402-4.152,2.079-5.362,2.079Zm-1.264-3.679c.192,0,.378.079.512.221.154.164.221.391.179.612-.13.694-.085,1.195.121,1.339.158.112,1.164.54,5.409-1.964.194-.115.432-.129.639-.039c5.018,2.191,5.802,1.488,5.875,1.402.062-.074.524-.811-1.777-4.286-1.506-.53-2.938-1.176-4.265-1.922-7.99,1.697-10.984,3.85-11.221,4.5.175.121,1.08.57,4.439.143.03-.004.06-.006.089-.006Z" fill="#010074"/><g opacity="0.73"><path d="M114.661,265.053c-8.594,1.059-6.099-3.055,5.332-5.744.544.171,1.099.352,1.668.545-9.667,2.945-12.183,4.584-6.726,4.854-.091.117-.183.232-.274.345Z" clip-rule="evenodd" fill="#fff" fill-rule="evenodd"/></g><g opacity="0.3"><path d="M126.187,261.034c3.948,5.875,2.336,7.246-4.834,4.116-4.946,2.918-7.139,2.881-6.578-.11-.241.03-.47.056-.693.078.339-.395.727-.757,1.162-1.075-.419,1.985,1.631,2.007,6.15.068c5.051.974,5.557-.362,1.52-4.008.099-.098.201-.193.305-.284.964.465,1.96.87,2.968,1.215Z" clip-rule="evenodd" fill="#010074" fill-rule="evenodd"/></g><path d="M114.871,267.434c-.305,0-.586-.2-.675-.508-.548-1.901.29-3.744,2.491-5.481.305-.24.747-.188.988.117.24.305.188.747-.117.988-1.732,1.366-2.39,2.67-2.011,3.986.108.373-.108.763-.481.871-.065.018-.13.027-.195.027Z" fill="#000072"/><path d="M145.403,214.164c-.019.074-.062.127-.131.157l-4.562,6.719c-.781,1.149-2.476,1.135-3.237-.026l-4.392-6.693c-.076-.035-.119-.097-.134-.183-.174-.957,3.142-4.877,6.229-4.877c3.114,0,6.464,3.996,6.227,4.903Z" fill="#fdaf1d"/><g opacity="0.3"><path d="M145.403,214.164c-.019.074-.062.127-.131.156l-4.562,6.72c-.781,1.148-2.476,1.135-3.237-.026l-4.392-6.694c-.076-.034-.119-.096-.134-.182.082-.199.134-.316.134-.316l5.935,1.755l6.318-1.592.069.179Z" fill="#000072"/></g><path d="M139.211,210.472c-1.139,0-2.066.721-2.563,1.209-.089.087.011.231.125.181c1.292-.566,2.438-.566,2.438-.566.001,0,1.131.023,2.465.591.114.048.211-.095.123-.182-.49-.488-1.429-1.233-2.588-1.233Z" fill="#fff"/><path d="M134.661,214.277l3.77,5.311c.343.482.86.482,1.202,0l3.572-5.024-4.173.839-4.371-1.126Z" fill="#010074"/><path d="M136.884,215.246l1.882,2.651c.171.241.429.241.6,0l1.783-2.508-2.083.419-2.182-.562Z" fill="#f23860"/><path d="M139.016,216.281c-.067,0-.134-.01-.199-.029l-5.935-1.755c-.373-.11-.585-.502-.475-.874s.502-.585.874-.475l5.75,1.701l6.131-1.545c.376-.095.759.133.854.51s-.134.759-.51.854l-6.318,1.592c-.057.014-.114.021-.172.021Z" fill="#010074"/><path d="M139.099,222.597c-.007,0-.014,0-.021,0-.887-.007-1.707-.455-2.194-1.196l-4.318-6.582c-.238-.205-.402-.556-.296-1.059.32-1.508,3.615-5.201,6.906-5.201c3.249,0,6.608,3.745,6.91,5.215.103.503-.066.851-.308,1.053l-4.487,6.609c-.495.728-1.313,1.161-2.192,1.161Zm-5.426-8.656l4.387,6.688c.232.353.607.558,1.029.561.004,0,.007,0,.011,0c.418,0,.792-.198,1.027-.544l4.552-6.705c-.324-.935-2.998-3.976-5.503-3.976-2.513,0-5.185,3.045-5.503,3.976Z" fill="#010074"/><path d="M116.039,268.015c-.508,0-.924-.119-1.259-.355-.532-.373-.797-.985-.792-1.825-3.21.306-4.938-.156-5.143-1.379-.398-2.38,6.039-4.823,12.596-6.188.169-.035.345-.007.495.079c1.379.796,2.886,1.476,4.479,2.021.145.05.27.146.356.273c2.148,3.198,2.71,5.099,1.819,6.167-.935,1.12-3.158.853-7.189-.872-2.42,1.402-4.152,2.079-5.362,2.079Zm-1.264-3.679c.192,0,.378.079.512.221.154.164.221.391.179.612-.13.694-.085,1.195.121,1.339.158.112,1.164.54,5.409-1.964.194-.115.432-.129.639-.039c5.018,2.191,5.802,1.488,5.875,1.402.062-.074.524-.811-1.777-4.286-1.506-.53-2.938-1.176-4.265-1.922-7.99,1.697-10.984,3.85-11.221,4.5.175.121,1.08.57,4.439.143.03-.004.06-.006.089-.006Z" fill="#000072"/></g><clipPath id="etHT7c6EBiA81"><rect width="640" height="400" rx="0" ry="0" fill="#fff"/></clipPath></g></svg>
