<svg width="640" height="400" viewBox="0 0 640 400" fill="none" xmlns="http://www.w3.org/2000/svg">
<rect width="640" height="400" fill="white"/>
<path d="M155 39C155 33.4772 159.477 29 165 29H589C593.418 29 597 32.5817 597 37V361C597 366.523 592.523 371 587 371H165C159.477 371 155 366.523 155 361V39Z" fill="#1E1E1E"/>
<path d="M375 39C375 33.4772 379.477 29 385 29H587C592.523 29 597 33.4772 597 39V361C597 366.523 592.523 371 587 371H385C379.477 371 375 366.523 375 361V39Z" fill="#2C2C2C"/>
<rect x="84.7107" y="157.132" width="100" height="100" fill="#3C3C3C"/>
<circle cx="40.8239" cy="40.8239" r="40.8239" transform="matrix(0.866044 0.499967 -0.866044 0.499967 134.711 216.132)" fill="#3C3C3C"/>
<circle cx="40.8239" cy="40.8239" r="40.8239" transform="matrix(0.866044 0.499967 -0.866044 0.499967 134.711 116)" fill="#2C2C2C"/>
<rect x="485.5" y="136.5" width="63" height="79" rx="9.5" fill="#EAEAEA" stroke="#CCCCCC"/>
<path d="M320 228C304.536 228 292 215.464 292 200C292 184.536 304.536 172 320 172C335.464 172 348 184.536 348 200C348 215.464 335.464 228 320 228ZM320 232C337.673 232 352 217.673 352 200C352 182.327 337.673 168 320 168C302.327 168 288 182.327 288 200C288 217.673 302.327 232 320 232Z" fill="white"/>
<path d="M331.879 187.879C331.85 187.907 331.824 187.937 331.799 187.968L317.91 205.667L309.536 197.293C308.364 196.121 306.464 196.121 305.293 197.293C304.121 198.464 304.121 200.364 305.293 201.536L315.879 212.121C317.05 213.293 318.95 213.293 320.121 212.121C320.147 212.095 320.172 212.068 320.195 212.039L336.164 192.078C337.293 190.903 337.278 189.036 336.121 187.879C334.95 186.707 333.05 186.707 331.879 187.879Z" fill="white"/>
<path fill-rule="evenodd" clip-rule="evenodd" d="M286.624 174.5H285.645C284.816 174.5 284.145 175.172 284.145 176C284.145 176.484 284.374 176.914 284.729 177.188C285.326 176.267 285.959 175.37 286.624 174.5ZM203.939 174.939C203.354 175.525 203.354 176.475 203.939 177.061L213.485 186.607C214.071 187.192 215.021 187.192 215.607 186.607C216.192 186.021 216.192 185.071 215.607 184.485L208.523 177.401C209.087 177.186 209.487 176.64 209.487 176C209.487 175.36 209.087 174.814 208.523 174.599L215.607 167.515C216.192 166.929 216.192 165.979 215.607 165.393C215.021 164.808 214.071 164.808 213.485 165.393L203.939 174.939ZM213.961 177.5H219.934C220.763 177.5 221.434 176.828 221.434 176C221.434 175.172 220.763 174.5 219.934 174.5H213.961C213.132 174.5 212.461 175.172 212.461 176C212.461 176.828 213.132 177.5 213.961 177.5ZM225.908 174.5C225.079 174.5 224.408 175.172 224.408 176C224.408 176.828 225.079 177.5 225.908 177.5H231.882C232.71 177.5 233.382 176.828 233.382 176C233.382 175.172 232.71 174.5 231.882 174.5H225.908ZM237.855 174.5C237.027 174.5 236.355 175.172 236.355 176C236.355 176.828 237.027 177.5 237.855 177.5H243.829C244.657 177.5 245.329 176.828 245.329 176C245.329 175.172 244.657 174.5 243.829 174.5H237.855ZM249.803 174.5C248.974 174.5 248.303 175.172 248.303 176C248.303 176.828 248.974 177.5 249.803 177.5H255.776C256.605 177.5 257.276 176.828 257.276 176C257.276 175.172 256.605 174.5 255.776 174.5H249.803ZM261.75 174.5C260.922 174.5 260.25 175.172 260.25 176C260.25 176.828 260.922 177.5 261.75 177.5H267.724C268.552 177.5 269.224 176.828 269.224 176C269.224 175.172 268.552 174.5 267.724 174.5H261.75ZM273.697 177.5H279.671C280.499 177.5 281.171 176.828 281.171 176C281.171 175.172 280.499 174.5 279.671 174.5H273.697C272.869 174.5 272.197 175.172 272.197 176C272.197 176.828 272.869 177.5 273.697 177.5ZM357.329 177.5H363.303C364.131 177.5 364.803 176.828 364.803 176C364.803 175.172 364.131 174.5 363.303 174.5H357.329C356.501 174.5 355.829 175.172 355.829 176C355.829 176.828 356.501 177.5 357.329 177.5ZM369.276 174.5C368.448 174.5 367.776 175.172 367.776 176C367.776 176.828 368.448 177.5 369.276 177.5H375.25C376.078 177.5 376.75 176.828 376.75 176C376.75 175.172 376.078 174.5 375.25 174.5H369.276ZM381.224 177.5H387.197C388.026 177.5 388.697 176.828 388.697 176C388.697 175.172 388.026 174.5 387.197 174.5H381.224C380.395 174.5 379.724 175.172 379.724 176C379.724 176.828 380.395 177.5 381.224 177.5ZM393.171 177.5H399.145C399.973 177.5 400.645 176.828 400.645 176C400.645 175.172 399.973 174.5 399.145 174.5H393.171C392.343 174.5 391.671 175.172 391.671 176C391.671 176.828 392.343 177.5 393.171 177.5ZM405.118 177.5H411.092C411.92 177.5 412.592 176.828 412.592 176C412.592 175.172 411.92 174.5 411.092 174.5H405.118C404.29 174.5 403.618 175.172 403.618 176C403.618 176.828 404.29 177.5 405.118 177.5ZM417.066 177.5H423.039C423.868 177.5 424.539 176.828 424.539 176C424.539 175.172 423.868 174.5 423.039 174.5H417.066C416.237 174.5 415.566 175.172 415.566 176C415.566 176.828 416.237 177.5 417.066 177.5ZM429.013 177.5H432C432.828 177.5 433.5 176.828 433.5 176C433.5 175.172 432.828 174.5 432 174.5H429.013C428.185 174.5 427.513 175.172 427.513 176C427.513 176.828 428.185 177.5 429.013 177.5Z" fill="#EAEAEA"/>
<path fill-rule="evenodd" clip-rule="evenodd" d="M286.923 222.5H285.645C284.816 222.5 284.145 223.172 284.145 224C284.145 224.828 284.816 225.5 285.645 225.5H289.181C288.383 224.537 287.629 223.536 286.923 222.5ZM350.819 225.5H351.355C352.184 225.5 352.855 224.828 352.855 224C352.855 223.695 352.764 223.411 352.607 223.174C352.039 223.971 351.443 224.747 350.819 225.5ZM433.061 222.939L423.515 213.393C422.929 212.808 421.979 212.808 421.393 213.393C420.808 213.979 420.808 214.929 421.393 215.515L428.477 222.599C427.913 222.814 427.513 223.36 427.513 224C427.513 224.64 427.913 225.186 428.477 225.401L421.393 232.485C420.808 233.071 420.808 234.021 421.393 234.607C421.979 235.192 422.929 235.192 423.515 234.607L433.061 225.061C433.646 224.475 433.646 223.525 433.061 222.939ZM205 222.5C204.172 222.5 203.5 223.172 203.5 224C203.5 224.828 204.172 225.5 205 225.5H207.987C208.815 225.5 209.487 224.828 209.487 224C209.487 223.172 208.815 222.5 207.987 222.5H205ZM213.961 222.5C213.132 222.5 212.461 223.172 212.461 224C212.461 224.828 213.132 225.5 213.961 225.5H219.934C220.763 225.5 221.434 224.828 221.434 224C221.434 223.172 220.763 222.5 219.934 222.5H213.961ZM225.908 222.5C225.079 222.5 224.408 223.172 224.408 224C224.408 224.828 225.079 225.5 225.908 225.5H231.882C232.71 225.5 233.382 224.828 233.382 224C233.382 223.172 232.71 222.5 231.882 222.5H225.908ZM237.855 222.5C237.027 222.5 236.355 223.172 236.355 224C236.355 224.828 237.027 225.5 237.855 225.5H243.829C244.657 225.5 245.329 224.828 245.329 224C245.329 223.172 244.657 222.5 243.829 222.5H237.855ZM249.803 222.5C248.974 222.5 248.303 223.172 248.303 224C248.303 224.828 248.974 225.5 249.803 225.5H255.776C256.605 225.5 257.276 224.828 257.276 224C257.276 223.172 256.605 222.5 255.776 222.5H249.803ZM261.75 222.5C260.922 222.5 260.25 223.172 260.25 224C260.25 224.828 260.922 225.5 261.75 225.5H267.724C268.552 225.5 269.224 224.828 269.224 224C269.224 223.172 268.552 222.5 267.724 222.5H261.75ZM273.697 222.5C272.869 222.5 272.197 223.172 272.197 224C272.197 224.828 272.869 225.5 273.697 225.5H279.671C280.499 225.5 281.171 224.828 281.171 224C281.171 223.172 280.499 222.5 279.671 222.5H273.697ZM357.329 222.5C356.501 222.5 355.829 223.172 355.829 224C355.829 224.828 356.501 225.5 357.329 225.5H363.303C364.131 225.5 364.803 224.828 364.803 224C364.803 223.172 364.131 222.5 363.303 222.5H357.329ZM369.276 222.5C368.448 222.5 367.776 223.172 367.776 224C367.776 224.828 368.448 225.5 369.276 225.5H375.25C376.078 225.5 376.75 224.828 376.75 224C376.75 223.172 376.078 222.5 375.25 222.5H369.276ZM381.224 222.5C380.395 222.5 379.724 223.172 379.724 224C379.724 224.828 380.395 225.5 381.224 225.5H387.197C388.026 225.5 388.697 224.828 388.697 224C388.697 223.172 388.026 222.5 387.197 222.5H381.224ZM393.171 222.5C392.343 222.5 391.671 223.172 391.671 224C391.671 224.828 392.343 225.5 393.171 225.5H399.145C399.973 225.5 400.645 224.828 400.645 224C400.645 223.172 399.973 222.5 399.145 222.5H393.171ZM405.118 222.5C404.29 222.5 403.618 223.172 403.618 224C403.618 224.828 404.29 225.5 405.118 225.5H411.092C411.92 225.5 412.592 224.828 412.592 224C412.592 223.172 411.92 222.5 411.092 222.5H405.118ZM417.066 222.5C416.237 222.5 415.566 223.172 415.566 224C415.566 224.828 416.237 225.5 417.066 225.5H423.039C423.868 225.5 424.539 224.828 424.539 224C424.539 223.172 423.868 222.5 423.039 222.5H417.066Z" fill="#EAEAEA"/>
<path d="M485 146C485 140.477 489.477 136 495 136H539C544.523 136 549 140.477 549 146V156H485V146Z" fill="#CCCCCC"/>
<path d="M175.38 293C173.547 306.508 178.409 325.083 188.655 330.333C193.91 333.027 200.431 332.609 206 333" stroke="#EAEAEA" stroke-width="2" stroke-linecap="round"/>
<path d="M168.087 296.931C169.329 293.942 171.513 290.576 174.087 288.554C175.156 287.714 176.045 288.194 177.058 288.837C179.78 290.563 181.595 293.126 183.115 295.912" stroke="#EAEAEA" stroke-width="2" stroke-linecap="round"/>
<rect x="453.5" y="160.5" width="63" height="79" rx="9.5" fill="#EAEAEA" stroke="#CCCCCC"/>
<rect x="443" y="212" width="40" height="20" rx="10" fill="#CCCCCC"/>
<path d="M457.003 217.273V226H455.793L451.357 219.599H451.276V226H449.959V217.273H451.178L455.618 223.682H455.699V217.273H457.003ZM461.578 226.132C460.965 226.132 460.429 225.991 459.972 225.71C459.515 225.429 459.159 225.036 458.907 224.53C458.654 224.024 458.527 223.433 458.527 222.757C458.527 222.078 458.654 221.484 458.907 220.976C459.159 220.467 459.515 220.072 459.972 219.791C460.429 219.51 460.965 219.369 461.578 219.369C462.192 219.369 462.728 219.51 463.185 219.791C463.642 220.072 463.998 220.467 464.25 220.976C464.503 221.484 464.63 222.078 464.63 222.757C464.63 223.433 464.503 224.024 464.25 224.53C463.998 225.036 463.642 225.429 463.185 225.71C462.728 225.991 462.192 226.132 461.578 226.132ZM461.583 225.062C461.98 225.062 462.31 224.957 462.571 224.747C462.833 224.537 463.026 224.257 463.151 223.908C463.279 223.558 463.343 223.173 463.343 222.753C463.343 222.335 463.279 221.952 463.151 221.602C463.026 221.25 462.833 220.967 462.571 220.754C462.31 220.541 461.98 220.435 461.583 220.435C461.182 220.435 460.85 220.541 460.586 220.754C460.324 220.967 460.13 221.25 460.002 221.602C459.877 221.952 459.814 222.335 459.814 222.753C459.814 223.173 459.877 223.558 460.002 223.908C460.13 224.257 460.324 224.537 460.586 224.747C460.85 224.957 461.182 225.062 461.583 225.062ZM469.107 219.455V220.477H465.532V219.455H469.107ZM466.491 217.886H467.765V224.078C467.765 224.325 467.802 224.511 467.876 224.636C467.95 224.759 468.045 224.842 468.161 224.888C468.281 224.93 468.41 224.952 468.549 224.952C468.651 224.952 468.741 224.945 468.817 224.93C468.894 224.916 468.954 224.905 468.996 224.896L469.227 225.949C469.153 225.977 469.048 226.006 468.911 226.034C468.775 226.065 468.604 226.082 468.4 226.085C468.065 226.091 467.752 226.031 467.462 225.906C467.173 225.781 466.938 225.588 466.759 225.327C466.58 225.065 466.491 224.737 466.491 224.342V217.886ZM473.267 226.132C472.623 226.132 472.067 225.994 471.601 225.719C471.138 225.44 470.78 225.05 470.527 224.547C470.277 224.041 470.152 223.449 470.152 222.77C470.152 222.099 470.277 221.509 470.527 220.997C470.78 220.486 471.132 220.087 471.584 219.8C472.039 219.513 472.57 219.369 473.178 219.369C473.547 219.369 473.905 219.43 474.252 219.553C474.598 219.675 474.909 219.866 475.185 220.128C475.461 220.389 475.678 220.729 475.837 221.146C475.996 221.561 476.076 222.065 476.076 222.659V223.111H470.873V222.156H474.827C474.827 221.821 474.759 221.524 474.623 221.266C474.486 221.004 474.294 220.798 474.047 220.648C473.803 220.497 473.516 220.422 473.186 220.422C472.828 220.422 472.516 220.51 472.249 220.686C471.985 220.859 471.78 221.087 471.635 221.368C471.493 221.646 471.422 221.949 471.422 222.276V223.021C471.422 223.459 471.499 223.831 471.652 224.138C471.809 224.445 472.026 224.679 472.304 224.841C472.583 225 472.908 225.08 473.28 225.08C473.522 225.08 473.742 225.045 473.941 224.977C474.14 224.906 474.311 224.801 474.456 224.662C474.601 224.523 474.712 224.351 474.789 224.146L475.995 224.364C475.898 224.719 475.725 225.03 475.475 225.297C475.228 225.561 474.917 225.767 474.542 225.915C474.169 226.06 473.745 226.132 473.267 226.132Z" fill="#1E1E1E"/>
<path d="M453 170C453 164.477 457.477 160 463 160H507C512.523 160 517 164.477 517 170V180H453V170Z" fill="#CCCCCC"/>
<rect x="501.5" y="184.5" width="63" height="79" rx="9.5" fill="#EAEAEA" stroke="#CCCCCC"/>
<path d="M501 194C501 188.477 505.477 184 511 184H555C560.523 184 565 188.477 565 194V204H501V194Z" fill="#CCCCCC"/>
<path fill-rule="evenodd" clip-rule="evenodd" d="M147.561 178C155.912 179.246 163.814 181.758 170.355 185.534C189.882 196.806 189.882 215.082 170.355 226.355C150.829 237.627 119.171 237.627 99.6447 226.355C80.1184 215.082 80.1184 196.806 99.6447 185.534C106.16 181.772 114.027 179.266 122.343 178.015C114.211 179.257 106.521 181.719 100.144 185.4C80.8944 196.513 80.8944 214.531 100.144 225.644C119.394 236.757 150.604 236.757 169.854 225.644C189.104 214.531 189.104 196.513 169.854 185.4C163.453 181.705 155.728 179.238 147.561 178Z" fill="#2C2C2C"/>
<path fill-rule="evenodd" clip-rule="evenodd" d="M147.561 202C155.912 203.246 163.814 205.758 170.355 209.534C189.882 220.806 189.882 239.082 170.355 250.355C150.829 261.627 119.171 261.627 99.6447 250.355C80.1184 239.082 80.1184 220.806 99.6447 209.534C106.16 205.772 114.027 203.266 122.343 202.015C114.211 203.257 106.521 205.719 100.144 209.4C80.8944 220.513 80.8944 238.531 100.144 249.644C119.394 260.757 150.604 260.757 169.854 249.644C189.104 238.531 189.104 220.513 169.854 209.4C163.453 205.705 155.728 203.238 147.561 202Z" fill="#2C2C2C"/>
<path fill-rule="evenodd" clip-rule="evenodd" d="M147.561 155C155.912 156.246 163.814 158.758 170.355 162.534C189.882 173.806 189.882 192.082 170.355 203.355C150.829 214.627 119.171 214.627 99.6447 203.355C80.1184 192.082 80.1184 173.806 99.6447 162.534C106.16 158.772 114.027 156.266 122.343 155.015C114.211 156.257 106.521 158.719 100.144 162.4C80.8944 173.513 80.8944 191.531 100.144 202.644C119.394 213.757 150.604 213.757 169.854 202.644C189.104 191.531 189.104 173.513 169.854 162.4C163.453 158.705 155.728 156.238 147.561 155Z" fill="#2C2C2C"/>
<path d="M217.568 323C216.743 326.712 215.955 330.439 215.341 334.192C215.215 334.966 214.765 336.704 215.158 337.589" stroke="#EAEAEA" stroke-width="2" stroke-linecap="round"/>
<path d="M221.638 332.708C220.845 333.882 220.547 335.324 221.748 336.44C223.007 337.61 224.866 336.116 225.619 335.08C226.135 334.368 226.707 332.996 225.766 332.34C223.921 331.054 222.093 333.285 220.81 334.197" stroke="#EAEAEA" stroke-width="2" stroke-linecap="round"/>
<path d="M231.683 333.291C231.826 332.881 231.895 332.504 231.26 332.592C230.073 332.756 229.534 333.976 229.568 335.056C229.644 337.439 232.49 336.636 233.999 336.435" stroke="#EAEAEA" stroke-width="2" stroke-linecap="round"/>
<path d="M240.603 333.539C240.406 331.924 238.256 332.593 237.772 333.742C237.027 335.51 238.434 336.424 240.015 335.792C240.734 335.504 241.337 335.025 241.891 334.495C241.999 334.392 242.714 333.431 242.929 333.447C243.033 333.455 242.333 336.807 242.258 337.18" stroke="#EAEAEA" stroke-width="2" stroke-linecap="round"/>
<path d="M246.567 337.976C247.231 333.097 248.505 328.344 249.711 323.579" stroke="#EAEAEA" stroke-width="2" stroke-linecap="round"/>
<path d="M251.567 338.307C252.406 333.441 253.609 328.516 253.883 323.579" stroke="#EAEAEA" stroke-width="2" stroke-linecap="round"/>
<path d="M256.049 332.579C256.001 333.159 256.137 337.867 257.115 337.36C258.057 336.872 258.332 335.496 259.12 334.804C259.385 334.571 259.109 335.527 258.972 335.852C258.25 337.58 257.229 339.19 256.251 340.78C255.567 341.891 254.899 343.238 253.971 344.181C253.534 344.626 253.615 343.883 253.567 343.666" stroke="#EAEAEA" stroke-width="2" stroke-linecap="round"/>
<rect width="8" height="8" transform="matrix(1 0 0 -1 347 228)" fill="#1E1E1E"/>
<rect width="8" height="8" transform="matrix(1 0 0 -1 284 228)" fill="#1E1E1E"/>
<rect width="8" height="8" transform="matrix(1 0 0 -1 284 179)" fill="#1E1E1E"/>
</svg>
