<svg id="eUPgvZHALX31" xmlns="http://www.w3.org/2000/svg" xmlns:xlink="http://www.w3.org/1999/xlink" viewBox="0 0 2000 493" shape-rendering="geometricPrecision" text-rendering="geometricPrecision">
<style><![CDATA[
#eUPgvZHALX335_to {animation: eUPgvZHALX335_to__to 3000ms linear infinite normal forwards}@keyframes eUPgvZHALX335_to__to { 0% {transform: translate(1000.48999px,424.07px);animation-timing-function: cubic-bezier(0.42,0,0.58,1)} 33.333333% {transform: translate(1000.48999px,427.203303px);animation-timing-function: cubic-bezier(0.42,0,0.58,1)} 100% {transform: translate(1000.48999px,424.341507px)}} #eUPgvZHALX357_to {animation: eUPgvZHALX357_to__to 3000ms linear infinite normal forwards}@keyframes eUPgvZHALX357_to__to { 0% {transform: translate(1083.15503px,369.5px);animation-timing-function: cubic-bezier(0.42,0,0.58,1)} 66.666667% {transform: translate(1083.15503px,371.987315px);animation-timing-function: cubic-bezier(0.42,0,0.58,1)} 100% {transform: translate(1083.15503px,369.5px)}} #eUPgvZHALX368_to {animation: eUPgvZHALX368_to__to 3000ms linear infinite normal forwards}@keyframes eUPgvZHALX368_to__to { 0% {transform: translate(1083.15503px,366px);animation-timing-function: cubic-bezier(0.42,0,0.58,1)} 66.666667% {transform: translate(1083.15503px,367.336889px);animation-timing-function: cubic-bezier(0.42,0,0.58,1)} 100% {transform: translate(1083.15503px,366px)}} #eUPgvZHALX3130_to {animation: eUPgvZHALX3130_to__to 3000ms linear infinite normal forwards}@keyframes eUPgvZHALX3130_to__to { 0% {transform: translate(786.598999px,399.131012px);animation-timing-function: cubic-bezier(0.42,0,0.58,1)} 70% {transform: translate(786.598999px,402.9155px);animation-timing-function: cubic-bezier(0.42,0,0.58,1)} 100% {transform: translate(786.598999px,399.131012px)}} #eUPgvZHALX3131_to {animation: eUPgvZHALX3131_to__to 3000ms linear infinite normal forwards}@keyframes eUPgvZHALX3131_to__to { 0% {transform: translate(786.598999px,355.773498px);animation-timing-function: cubic-bezier(0.42,0,0.58,1)} 70% {transform: translate(786.599002px,358.23966px);animation-timing-function: cubic-bezier(0.42,0,0.58,1)} 100% {transform: translate(786.598999px,355.773498px)}} #eUPgvZHALX3149_to {animation: eUPgvZHALX3149_to__to 3000ms linear infinite normal forwards}@keyframes eUPgvZHALX3149_to__to { 0% {transform: translate(1189.900025px,448px);animation-timing-function: cubic-bezier(0.42,0,0.58,1)} 23.333333% {transform: translate(1189.900026px,452.0145px);animation-timing-function: cubic-bezier(0.42,0,0.58,1)} 100% {transform: translate(1189.900025px,448px)}} #eUPgvZHALX3150_to {animation: eUPgvZHALX3150_to__to 3000ms linear infinite normal forwards}@keyframes eUPgvZHALX3150_to__to { 0% {transform: translate(1189.900025px,432.697006px);animation-timing-function: cubic-bezier(0.42,0,0.58,1)} 23.333333% {transform: translate(1189.900025px,434.238604px);animation-timing-function: cubic-bezier(0.42,0,0.58,1)} 100% {transform: translate(1189.900025px,432.697006px)}} #eUPgvZHALX3181_to {animation: eUPgvZHALX3181_to__to 3000ms linear infinite normal forwards}@keyframes eUPgvZHALX3181_to__to { 0% {transform: translate(999.68689px,377.33815px);animation-timing-function: cubic-bezier(0.42,0,0.58,1)} 33.333333% {transform: translate(999.68689px,380.199945px);animation-timing-function: cubic-bezier(0.42,0,0.58,1)} 100% {transform: translate(999.68689px,377.33815px)}} #eUPgvZHALX3182_tr {animation: eUPgvZHALX3182_tr__tr 3000ms linear infinite normal forwards}@keyframes eUPgvZHALX3182_tr__tr { 0% {transform: translate(986.780999px,381.128515px) rotate(0deg);animation-timing-function: cubic-bezier(0.42,0,0.58,1)} 20% {transform: translate(986.780999px,381.128515px) rotate(-10.912981deg);animation-timing-function: cubic-bezier(0.42,0,0.58,1)} 40% {transform: translate(986.780999px,381.128515px) rotate(4.845155deg);animation-timing-function: cubic-bezier(0.42,0,0.58,1)} 60% {transform: translate(986.780999px,381.128515px) rotate(-10.912981deg);animation-timing-function: cubic-bezier(0.42,0,0.58,1)} 80% {transform: translate(986.780999px,381.128515px) rotate(4.845155deg);animation-timing-function: cubic-bezier(0.42,0,0.58,1)} 100% {transform: translate(986.780999px,381.128515px) rotate(0deg)}} #eUPgvZHALX3208_tr {animation: eUPgvZHALX3208_tr__tr 3000ms linear infinite normal forwards}@keyframes eUPgvZHALX3208_tr__tr { 0% {transform: translate(1007.198181px,373.157955px) rotate(0deg);animation-timing-function: cubic-bezier(0.42,0,0.58,1)} 16.666667% {transform: translate(1007.198181px,373.157955px) rotate(2.454047deg);animation-timing-function: cubic-bezier(0.42,0,0.58,1)} 33.333333% {transform: translate(1007.198181px,373.157955px) rotate(-2.181729deg);animation-timing-function: cubic-bezier(0.42,0,0.58,1)} 66.666667% {transform: translate(1007.198181px,373.157955px) rotate(2.454047deg);animation-timing-function: cubic-bezier(0.42,0,0.58,1)} 83.333333% {transform: translate(1007.198181px,373.157955px) rotate(-2.181729deg);animation-timing-function: cubic-bezier(0.42,0,0.58,1)} 100% {transform: translate(1007.198181px,373.157955px) rotate(0deg)}} #eUPgvZHALX3227_to {animation: eUPgvZHALX3227_to__to 3000ms linear infinite normal forwards}@keyframes eUPgvZHALX3227_to__to { 0% {transform: translate(883.471497px,361.963501px);animation-timing-function: cubic-bezier(0.42,0,0.58,1)} 66.666667% {transform: translate(883.471496px,364.076001px);animation-timing-function: cubic-bezier(0.42,0,0.58,1)} 100% {transform: translate(883.471497px,361.963501px)}} #eUPgvZHALX3228_to {animation: eUPgvZHALX3228_to__to 3000ms linear infinite normal forwards}@keyframes eUPgvZHALX3228_to__to { 0% {transform: translate(883.471497px,348.963501px);animation-timing-function: cubic-bezier(0.42,0,0.58,1)} 66.666667% {transform: translate(883.471498px,350.692873px);animation-timing-function: cubic-bezier(0.42,0,0.58,1)} 100% {transform: translate(883.471497px,348.963501px)}} #eUPgvZHALX3256_to {animation: eUPgvZHALX3256_to__to 3000ms linear infinite normal forwards}@keyframes eUPgvZHALX3256_to__to { 0% {transform: translate(1092.945008px,353.201508px);animation-timing-function: cubic-bezier(0.42,0,0.58,1)} 66.666667% {transform: translate(1092.945008px,357.025712px);animation-timing-function: cubic-bezier(0.42,0,0.58,1)} 100% {transform: translate(1092.945008px,353.201508px)}}
]]></style>
<defs><filter id="eUPgvZHALX32-filter" x="-150%" width="400%" y="-150%" height="400%"><feGaussianBlur id="eUPgvZHALX32-filter-inner-shadow-0-blur" in="SourceAlpha" stdDeviation="10,10"/><feOffset id="eUPgvZHALX32-filter-inner-shadow-0-offset" dx="0" dy="4" result="tmp"/><feComposite id="eUPgvZHALX32-filter-inner-shadow-0-composite" operator="arithmetic" k2="-1" k3="1" in2="SourceGraphic"/><feColorMatrix id="eUPgvZHALX32-filter-inner-shadow-0-color-matrix" type="matrix" values="0 0 0 0 0 0 0 0 0 0 0 0 0 0 0 0 0 0 1 0"/><feMerge id="eUPgvZHALX32-filter-inner-shadow-0-merge" result="result"><feMergeNode id="eUPgvZHALX32-filter-inner-shadow-0-merge-node-1" in="SourceGraphic"/><feMergeNode id="eUPgvZHALX32-filter-inner-shadow-0-merge-node-2"/></feMerge></filter><linearGradient id="eUPgvZHALX33-fill" x1="1000" y1="0" x2="1000" y2="170" spreadMethod="pad" gradientUnits="userSpaceOnUse" gradientTransform="translate(0 0)"><stop id="eUPgvZHALX33-fill-0" offset="0%" stop-color="#f7b7fd"/><stop id="eUPgvZHALX33-fill-1" offset="100%" stop-color="#92caff"/></linearGradient><filter id="eUPgvZHALX34-filter" x="-150%" width="400%" y="-150%" height="400%"><feGaussianBlur id="eUPgvZHALX34-filter-blur-0" stdDeviation="2,2" result="result"/></filter><filter id="eUPgvZHALX319-filter" x="-150%" width="400%" y="-150%" height="400%"><feGaussianBlur id="eUPgvZHALX319-filter-blur-0" stdDeviation="2,2" result="result"/></filter><filter id="eUPgvZHALX336-filter" x="-150%" width="400%" y="-150%" height="400%"><feGaussianBlur id="eUPgvZHALX336-filter-blur-0" stdDeviation="2,2" result="result"/></filter><filter id="eUPgvZHALX358-filter" x="-150%" width="400%" y="-150%" height="400%"><feGaussianBlur id="eUPgvZHALX358-filter-blur-0" stdDeviation="2,2" result="result"/></filter><filter id="eUPgvZHALX3140-filter" x="-150%" width="400%" y="-150%" height="400%"><feGaussianBlur id="eUPgvZHALX3140-filter-blur-0" stdDeviation="2,2" result="result"/></filter><filter id="eUPgvZHALX3163-filter" x="-150%" width="400%" y="-150%" height="400%"><feGaussianBlur id="eUPgvZHALX3163-filter-blur-0" stdDeviation="2,2" result="result"/></filter><filter id="eUPgvZHALX3242-filter" x="-150%" width="400%" y="-150%" height="400%"><feGaussianBlur id="eUPgvZHALX3242-filter-blur-0" stdDeviation="2,2" result="result"/></filter><filter id="eUPgvZHALX3298-filter" x="-150%" width="400%" y="-150%" height="400%"><feGaussianBlur id="eUPgvZHALX3298-filter-blur-0" stdDeviation="2,2" result="result"/></filter><filter id="eUPgvZHALX3325-filter" x="-150%" width="400%" y="-150%" height="400%"><feGaussianBlur id="eUPgvZHALX3325-filter-drop-shadow-0-blur" in="SourceAlpha" stdDeviation="2,2"/><feOffset id="eUPgvZHALX3325-filter-drop-shadow-0-offset" dx="0" dy="2" result="tmp"/><feFlood id="eUPgvZHALX3325-filter-drop-shadow-0-flood" flood-color="#000"/><feComposite id="eUPgvZHALX3325-filter-drop-shadow-0-composite" operator="in" in2="tmp"/><feMerge id="eUPgvZHALX3325-filter-drop-shadow-0-merge" result="result"><feMergeNode id="eUPgvZHALX3325-filter-drop-shadow-0-merge-node-1"/><feMergeNode id="eUPgvZHALX3325-filter-drop-shadow-0-merge-node-2" in="SourceGraphic"/></feMerge></filter></defs><g transform="translate(.015001 4)" filter="url(#eUPgvZHALX32-filter)"><rect width="2000" height="170" rx="0" ry="0" transform="translate(0 319)" fill="url(#eUPgvZHALX33-fill)"/></g><g style="mix-blend-mode:luminosity" opacity="0.1" filter="url(#eUPgvZHALX34-filter)"><path d="M383,337l17.287,44.693l31.184-22.065L428.421,337L383,337Z" fill="#bdd2ed"/><path d="M452.699,361.784l-21.228-2.156L428.421,337h15.507l8.771,24.784Z" fill="#a4bdde"/><path d="M477.994,337l-25.295,24.784L443.928,337h34.066Z" fill="#bdd2ed"/><path d="M503.501,372.637L498.077,337h21.016l19.151,54.324-34.743-18.687Z" fill="#bdd2ed"/><path d="M554.345,366.743l-10.508,12.075-5.593,12.506L519.093,337h15.083l20.169,29.743Z" fill="#a4bdde"/><path d="M594.003,351.506l-39.658,15.237L534.176,337h64.234l-4.407,14.506Z" fill="#bdd2ed"/><path d="M564.259,352.872L556.887,337h10.508l-3.136,15.872Z" fill="#a4bdde"/><path d="M400.287,381.693l28.134,4.887l55.42,39.135v63.285l44.234-33.636l3.559-15.31l10.932-6.037l15.761-29.756v-7.331l35.676-45.424-39.658,15.237-10.508,12.075-5.593,12.506-34.743-18.687L498.077,337h-20.083l-25.295,24.784-21.228-2.156-31.184,22.065Z" fill="#fff"/><path d="M443.928,428.411L428.421,386.58l55.42,39.135v63.285l-39.913-60.589Z" fill="#d4e3fa"/><path d="M528.075,455.364l19.575-15.31l10.677-35.793-15.761,29.756-10.932,6.037-3.559,15.31Z" fill="#d4e3fa"/><path d="M516.635,421.295l-9.914,16.496l2.342-13.869-16.706-7.478l17.571,2.358l3.402-20.147l3.305,22.64Z" fill="#d4e3fa"/><path d="M492.357,416.444l17.571,2.358l3.402-20.147-20.973,17.789Z" fill="#bdd2ed"/><path d="M547.65,440.054l-5.084-6.037l15.761-29.756-10.677,35.793Z" fill="#bdd2ed"/><path d="M443.928,428.411l39.913-2.696-55.42-39.135l15.507,41.831Z" fill="#bdd2ed"/></g><g style="mix-blend-mode:luminosity" opacity="0.1" filter="url(#eUPgvZHALX319-filter)"><path d="M554.185,374.523l28.219-25.168l4.83-11.948h-44.234l11.185,37.116Z" fill="#bdd2ed"/><path d="M603.504,391.556l-6.101-54.149h7.626l6.102,37.116-7.627,17.033Z" fill="#bdd2ed"/><path d="M618.757,370.074l-7.626,4.449-6.102-37.116h3.432l10.296,32.667Z" fill="#a4bdde"/><path d="M621.808,337.407l33.557,46.777l1.356-46.777h-34.913Z" fill="#bdd2ed"/><path d="M666.043,337.407l1.525,42.031-12.203,4.746l1.356-46.777h9.322Z" fill="#a4bdde"/><path d="M693.329,384.862l-5.254-47.455h-22.032l1.525,42.031l25.761,5.424Z" fill="#bdd2ed"/><path d="M728.75,361.982l-26.778-24.575h-13.897l5.254,47.455l35.421-22.88Z" fill="#a4bdde"/><path d="M733.835,337.407l-5.085,24.575-26.778-24.575h31.863Z" fill="#bdd2ed"/><path d="M554.185,374.523l28.219-25.168l4.83-11.948h10.169l6.101,54.149l7.627-17.033l7.626-4.449-10.296-32.667h13.347l33.557,46.777l12.203-4.746l25.761,5.424l35.421-22.88l5.085-24.575h41.014l-25.253,57.454-36.438,53.386-22.71-30.167-13.898,48.132-40.845,16.101-23.812-8.813-4.152-34.913-21.524,47.624-35.082-45.59l17.117-27.626l2.373-28.133-16.44-10.339Z" fill="#fff"/><path d="M676.55,466.212l18.135-6.271l18.473-11.694-22.71-30.167-13.898,48.132Z" fill="#d4e3fa"/><path d="M586.217,486.211L611.893,473.5l-4.152-34.913-21.524,47.624Z" fill="#d4e3fa"/><path d="M551.135,440.621l15.672-58.16l3.818,2.401-2.373,28.133-17.117,27.626Z" fill="#bdd2ed"/><path d="M690.448,418.08l14.997-10.003l7.713,40.17-22.71-30.167Z" fill="#bdd2ed"/><path d="M639.265,452.912v-21.89l-17.457-14.505l29.307,3.427-11.85,32.968Z" fill="#d4e3fa"/><path d="M621.808,416.517l14.654-11.077l14.653,14.504-29.307-3.427Z" fill="#bdd2ed"/></g><g id="eUPgvZHALX335_to" transform="translate(1000.48999,424.07)"><g transform="translate(-1000.48999,-424.341507)"><g style="mix-blend-mode:luminosity" opacity="0.6" filter="url(#eUPgvZHALX336-filter)"><path d="M999.924,436.219l.356,11.49l18.83-1.575-.35-11.491-18.836,1.576Z" fill="#e6f5fa"/><path d="M966.087,432.869l33.837,3.35l18.836-1.576l7.67,2.55l12.26-3.169l11.93-13.357L1013.38,411l-39.651,1.232L950,421.629l16.087,11.24Z" fill="#fff"/><path d="M988.616,435.099l4.821-6.061-8.491,6.004l3.67.057Z" fill="#9bd6ea"/><path d="M1038.69,434.024l.35,11.49l11.94-13.357-.36-11.49-11.93,13.357Z" fill="#e6f5fa"/><path d="M1026.43,437.193l.36,11.49l12.25-3.169-.35-11.49-12.26,3.169Z" fill="#bbe4f1"/><path d="M1018.76,434.643l.35,11.491l7.68,2.549-.36-11.49-7.67-2.55Z" fill="#9bd6ea"/><path d="M966.087,432.869l.357,11.49l33.836,3.35-.356-11.49-33.837-3.35Z" fill="#bbe4f1"/><path d="M984.946,435.042l.295,8.733l3.375-8.676-3.67-.057Z" fill="#9bd6ea"/><path d="M950,421.629l.357,11.49l16.087,11.24-.357-11.49L950,421.629Z" fill="#9bd6ea"/></g><g><path d="M999.924,425.219l.356,11.49l18.83-1.575-.35-11.491-18.836,1.576Z" fill="#e6f5fa"/><path d="M966.087,421.869l33.837,3.35l18.836-1.576l7.67,2.55l12.26-3.169l11.93-13.357L1013.38,400l-39.651,1.232L950,410.629l16.087,11.24Z" fill="#fff"/><path d="M988.616,424.099l4.821-6.061-8.491,6.004l3.67.057Z" fill="#9bd6ea"/><path d="M1038.69,423.024l.35,11.49l11.94-13.357-.36-11.49-11.93,13.357Z" fill="#e6f5fa"/><path d="M1026.43,426.193l.36,11.49l12.25-3.169-.35-11.49-12.26,3.169Z" fill="#bbe4f1"/><path d="M1018.76,423.643l.35,11.491l7.68,2.549-.36-11.49-7.67-2.55Z" fill="#9bd6ea"/><path d="M966.087,421.869l.357,11.49l33.836,3.35-.356-11.49-33.837-3.35Z" fill="#bbe4f1"/><path d="M984.946,424.042l.295,8.733l3.375-8.676-3.67-.057Z" fill="#9bd6ea"/><path d="M950,410.629l.357,11.49l16.087,11.24-.357-11.49L950,410.629Z" fill="#9bd6ea"/><path d="M1000.02,416.978c19.89,0,36.01-2.055,36.01-4.59s-16.12-4.591-36.01-4.591c-19.895,0-36.02,2.056-36.02,4.591s16.125,4.59,36.02,4.59Z" fill="#bad2f1"/></g></g></g><g id="eUPgvZHALX357_to" transform="translate(1083.15503,369.5)"><g transform="translate(-1083.155029,-369.5)"><g style="mix-blend-mode:luminosity" filter="url(#eUPgvZHALX358-filter)"><path d="M1082.8,377.062l.22,7.318l12-1.003-.23-7.319-11.99,1.004Z" fill="#e6f5fa"/><path d="M1061.25,374.928l21.55,2.134l11.99-1.004l4.89,1.624l7.8-2.018l7.6-8.507L1091.36,361l-25.25.785L1051,367.77l10.25,7.158Z" fill="#fff"/><path d="M1075.59,376.348l3.07-3.86-5.4,3.824l2.33.036Z" fill="#9bd6ea"/><path d="M1107.48,375.664l.23,7.318l7.6-8.507-.23-7.318-7.6,8.507Z" fill="#e6f5fa"/><path d="M1099.68,377.682l.23,7.318l7.8-2.018-.23-7.318-7.8,2.018Z" fill="#bbe4f1"/><path d="M1094.79,376.058l.23,7.319l4.89,1.623-.23-7.318-4.89-1.624Z" fill="#9bd6ea"/><path d="M1061.25,374.928l.22,7.318l21.55,2.134-.22-7.318-21.55-2.134Z" fill="#bbe4f1"/><path d="M1073.26,376.312l.18,5.562l2.15-5.526-2.33-.036Z" fill="#9bd6ea"/><path d="M1051,367.77l.23,7.317l10.24,7.159-.22-7.318L1051,367.77Z" fill="#9bd6ea"/></g><g id="eUPgvZHALX368_to" transform="translate(1083.15503,366)"><g transform="translate(-1083.155029,-366)"><path d="M1082.8,370.062l.22,7.318l12-1.003-.23-7.319-11.99,1.004Z" fill="#e6f5fa"/><path d="M1061.25,367.928l21.55,2.134l11.99-1.004l4.89,1.624l7.8-2.018l7.6-8.507L1091.36,354l-25.25.785L1051,360.77l10.25,7.158Z" fill="#fff"/><path d="M1075.59,369.348l3.07-3.86-5.4,3.824l2.33.036Z" fill="#9bd6ea"/><path d="M1107.48,368.664l.23,7.318l7.6-8.507-.23-7.318-7.6,8.507Z" fill="#e6f5fa"/><path d="M1099.68,370.682l.23,7.318l7.8-2.018-.23-7.318-7.8,2.018Z" fill="#bbe4f1"/><path d="M1094.79,369.058l.23,7.319l4.89,1.623-.23-7.318-4.89-1.624Z" fill="#9bd6ea"/><path d="M1061.25,367.928l.22,7.318l21.55,2.134-.22-7.318-21.55-2.134Z" fill="#bbe4f1"/><path d="M1073.26,369.312l.18,5.562l2.15-5.526-2.33-.036Z" fill="#9bd6ea"/><path d="M1051,360.77l.23,7.317l10.24,7.159-.22-7.318L1051,360.77Z" fill="#9bd6ea"/></g></g></g></g><path d="M1206,346.177l25.64-70.389l29.34,7.388l26.73-47.59l5.43,6.084-15.64,104.507h-71.5Z" fill="#bdd2ed"/><path d="M1238.16,309.253l-15.21,36.924h46.51l-11.74-24.103-19.56-12.821Z" fill="#a4bdde"/><path d="M1293.14,241.67l39.55,34.552-50.01,35.351l10.46-69.903Z" fill="#fff"/><path d="M1365.29,303.386l-32.6-27.164-50.01,35.352c0,0-4.93,32.89-5.18,34.604h84.09l3.7-42.792Z" fill="#a4bdde"/><path d="M1540.87,296.649l24.34,49.528h-203.62l3.7-42.791l48.02,1.738l20.21,28.685l83.45-37.16l9.56,6.737l14.34-6.737Z" fill="#bdd2ed"/><path d="M1344.23,285.84l-1.98,18.197l12.9-9.098-10.92-9.099Z" fill="#bdd2ed"/><path d="M1413.31,305.124l103.66-8.475-83.45,37.16-20.21-28.685Z" fill="#bdd2ed"/><path d="M1526.53,303.386l-18.69,23.904l9.13-30.641l9.56,6.737Z" fill="#a4bdde"/><path d="M1496.14,298.352l11.7,28.938l9.13-30.641-20.83,1.703Z" fill="#fff"/><path d="M1448.98,302.207l-15.46,31.602-20.21-28.685l35.67-2.917Z" fill="#fff"/><path d="M1565.21,253.839l-24.34,42.81l24.34,49.528h18.47l1.74-64.522-20.21-27.816Z" fill="#a4bdde"/><path d="M1651.7,296.649l-66.28-14.994-1.74,64.522h62.15l5.87-49.528Z" fill="#bdd2ed"/><path d="M1680.6,278.612l-28.9,18.037-5.87,49.528h34.77v-67.565Z" fill="#a4bdde"/><path d="M1699.07,346.177l-18.47-67.565v67.565h18.47Z" fill="#bdd2ed"/><path d="M1611.72,312.395l-5.65,33.782h11.62l-5.97-33.782Z" fill="#a4bdde"/><path d="M1415.49,211.572l-127.78,24.014l5.43,6.084l39.55,34.552l32.6,27.164l48.02,1.738l103.66-8.475l9.56,6.737l14.34-6.737l24.34-42.81l20.21,27.816l66.28,14.994l28.9-18.037-6.63-16.841-46.28-50.199-37.16-25.424L1552.39,119l-71.06,134.839-24.77-37.376-41.73,37.376.66-42.267Z" fill="#fff"/><path d="M1460.47,213.365l-3.91,3.098l24.77,37.376l4.89-9.269-5.38-12.625-20.37-18.58Z" fill="#d4e3fa"/><path d="M1421.35,209.78l-5.86,1.792-.66,42.267l26.02-23.304-13.01-10.487-6.49-10.268Z" fill="#d4e3fa"/><path d="M1552.39,119l56.72,45.743l32.38,43.461l32.48,53.567-46.28-50.199-37.16-25.424L1552.39,119Z" fill="#d4e3fa"/><path d="M1540.87,192.596l-23.9,53.56l18.35-16.025l5.55-37.535Z" fill="#d4e3fa"/><path d="M1516.97,246.156l19.87,21.258-1.52-37.283-18.35,16.025Z" fill="#bdd2ed"/><path d="M1629.34,213.365l12.15-5.161l32.48,53.567-44.63-48.406Z" fill="#bdd2ed"/><path d="M1480.84,231.945l-8.28,8.663l8.77,13.231l4.89-9.269-5.38-12.625Z" fill="#bdd2ed"/><path d="M383,337.211l17.287-52.694l31.184,26.015-3.05,26.679h-45.421Z" fill="#bdd2ed"/><path d="M452.699,307.99l-21.228,2.542-3.05,26.679h15.507l8.771-29.221Z" fill="#a4bdde"/><path d="M477.994,337.211L452.699,307.99l-8.771,29.221h34.066Z" fill="#bdd2ed"/><path d="M503.501,295.194l-5.424,42.017h21.016l19.151-64.049-34.743,22.032Z" fill="#bdd2ed"/><path d="M554.345,302.143l-10.508-14.236-5.593-14.745-19.151,64.049h15.083l20.169-35.068Z" fill="#a4bdde"/><path d="M594.003,320.108l-39.658-17.965-20.169,35.068h64.234l-4.407-17.103Z" fill="#bdd2ed"/><path d="M564.259,318.498l-7.372,18.713h10.508l-3.136-18.713Z" fill="#a4bdde"/><path d="M400.287,284.517l28.134-5.762l55.42-46.141v-74.614l44.234,39.658l3.559,18.05l10.932,7.118l15.761,35.083v8.643l35.676,53.556-39.658-17.965-10.508-14.236-5.593-14.745-34.743,22.032-5.424,42.017h-20.083L452.699,307.99l-21.228,2.542-31.184-26.015Z" fill="#fff"/><path d="M443.928,229.436l-15.507,49.319l55.42-46.141v-74.614l-39.913,71.436Z" fill="#d4e3fa"/><path d="M528.075,197.658l19.575,18.05l10.677,42.201-15.761-35.083-10.932-7.118-3.559-18.05Z" fill="#d4e3fa"/><path d="M516.635,237.825l-9.914-19.448l2.342,16.351-16.706,8.817l17.571-2.78l3.402,23.753l3.305-26.693Z" fill="#d4e3fa"/><path d="M492.357,243.545l17.571-2.78l3.402,23.753-20.973-20.973Z" fill="#bdd2ed"/><path d="M547.65,215.708l-5.084,7.118l15.761,35.083-10.677-42.201Z" fill="#bdd2ed"/><path d="M443.928,229.436l39.913,3.178-55.42,46.141l15.507-49.319Z" fill="#bdd2ed"/><path d="M554.185,299.688l28.219,25.168l4.83,11.948h-44.234l11.185-37.116Z" fill="#bdd2ed"/><path d="M603.504,282.655l-6.101,54.149h7.626l6.102-37.116-7.627-17.033Z" fill="#bdd2ed"/><path d="M618.757,304.137l-7.626-4.449-6.102,37.116h3.432l10.296-32.667Z" fill="#a4bdde"/><path d="M621.808,336.804l33.557-46.777l1.356,46.777h-34.913Z" fill="#bdd2ed"/><path d="M666.043,336.804l1.525-42.031-12.203-4.746l1.356,46.777h9.322Z" fill="#a4bdde"/><path d="M693.329,289.349l-5.254,47.455h-22.032l1.525-42.031l25.761-5.424Z" fill="#bdd2ed"/><path d="M728.75,312.229l-26.778,24.575h-13.897l5.254-47.455l35.421,22.88Z" fill="#a4bdde"/><path d="M733.835,336.804l-5.085-24.575-26.778,24.575h31.863Z" fill="#bdd2ed"/><path d="M554.185,299.688l28.219,25.168l4.83,11.948h10.169l6.101-54.149l7.627,17.033l7.626,4.449-10.296,32.667h13.347l33.557-46.777l12.203,4.746l25.761-5.424l35.421,22.88l5.085,24.575h41.014L749.596,279.35l-36.438-53.386-22.71,30.167-13.898-48.132-40.845-16.101-23.812,8.813-4.152,34.913L586.217,188l-35.082,45.59l17.117,27.626l2.373,28.133-16.44,10.339Z" fill="#fff"/><path d="M676.55,207.999l18.135,6.271l18.473,11.694-22.71,30.167-13.898-48.132Z" fill="#d4e3fa"/><path d="M586.217,188l25.676,12.711-4.152,34.913L586.217,188Z" fill="#d4e3fa"/><path d="M551.135,233.59l15.672,58.16l3.818-2.401-2.373-28.133-17.117-27.626Z" fill="#bdd2ed"/><path d="M690.448,256.131l14.997,10.003l7.713-40.17-22.71,30.167Z" fill="#bdd2ed"/><path d="M639.265,221.299v21.89l-17.457,14.505l29.307-3.427-11.85-32.968Z" fill="#d4e3fa"/><path d="M621.808,257.694l14.654,11.077l14.653-14.504-29.307,3.427Z" fill="#bdd2ed"/><g id="eUPgvZHALX3130_to" transform="translate(786.598999,399.131012)"><g transform="translate(-786.598999,-399.131012)"><g id="eUPgvZHALX3131_to" transform="translate(786.598999,355.773498)"><g transform="translate(-786.598999,-355.773498)"><path d="M785.148,310l-28.542,43.412-4.353,36.156L730,401.913h113.198l-18.867-16.448-13.061-24.671-5.805-37.249L785.148,310Z" transform="translate(0-.369)" fill="#fff"/><path d="M785.148,310l4.113,17.899-12.577,18.861l3.87,9.196-6.773,22.253l12.818,23.704-25.395.003-8.951-12.348l4.353-36.156L785.148,310Z" fill="#9bd6ea"/><path d="M789.261,327.899l-4.837,18.861l2.419,9.198-13.062,22.251l6.773-22.253-3.87-9.196l12.577-18.861Z" fill="#bbe4f1"/><path d="M756.606,353.412l3.147,33.988l16.931,14.513-15.48.003-8.951-12.348l4.353-36.156Z" fill="#bbe4f1"/><path d="M805.465,323.545l-10.399,4.354h8.708l7.095,30.321-5.404-34.675Z" fill="#e6f5fa"/><path d="M811.27,360.794l6.855,18.06l1.129,8.546-7.256,14.513l12.333-16.448-13.061-24.671Z" fill="#e6f5fa"/><path d="M786.599,401.913l24.671-41.119-13.785,29.025l10.643.484l3.87,11.61h-25.399Z" fill="#bbe4f1"/><path d="M797.42,383.878l13.85-23.084-3.142-9.439-3.327,9.439-6.067-17.899-1.314,40.983Z" fill="#e6f5fa"/></g></g><g style="mix-blend-mode:luminosity" transform="translate(0-.369)" opacity="0.5" filter="url(#eUPgvZHALX3140-filter)"><path d="M785.148,489l-28.542-41.09-4.353-34.222L730,402.003h113.198l-18.867,15.568-13.061,23.352-5.805,35.256L785.148,489Z" fill="#fff"/><path d="M785.148,489l4.113-16.942-12.577-17.852l3.87-8.704-6.773-21.063l12.818-22.436L761.204,402l-8.951,11.688l4.353,34.222L785.148,489Z" fill="#9bd6ea"/><path d="M789.261,472.058l-4.837-17.852l2.419-8.706-13.062-21.061l6.773,21.063-3.87,8.704l12.577,17.852Z" fill="#bbe4f1"/><path d="M756.606,447.91l3.147-32.17l16.931-13.737-15.48-.003-8.951,11.688l4.353,34.222Z" fill="#bbe4f1"/><path d="M805.465,476.179l-10.399-4.121h8.708l7.095-28.699-5.404,32.82Z" fill="#e6f5fa"/><path d="M811.27,440.923l6.855-17.094l1.129-8.089-7.256-13.737l12.333,15.568-13.061,23.352Z" fill="#e6f5fa"/><path d="M786.599,402.003l24.671,38.92-13.785-27.473l10.643-.458l3.87-10.989h-25.399Z" fill="#bbe4f1"/><path d="M797.42,419.073l13.85,21.85-3.142,8.934-3.327-8.934-6.067,16.941-1.314-38.791Z" fill="#e6f5fa"/></g></g></g><g id="eUPgvZHALX3149_to" transform="translate(1189.900025,448)"><g transform="translate(-1189.900024,-448)"><g id="eUPgvZHALX3150_to" transform="translate(1189.900025,432.697006)"><g transform="translate(-1189.900024,-432.697006)"><path d="M1265.8,458.392h-151.8l21.26-17.124l24.22-8.567L1187.83,407l16.54,15.958h7.68l14.17,11.811h8.86l11.82,18.016l5.32-5.617l13.58,11.224Z" fill="#fff"/><path d="M1215.42,458.392h-101.42l21.26-17.124l24.22-8.567L1187.83,407l8.69,22.266l12.6,2.942l6.3,26.184Z" fill="#9bd6ea"/><path d="M1164.71,436.896l7.27,21.498h-44.91l-13.07-.002l21.26-17.124l29.45-4.372Z" fill="#bbe4f1"/><path d="M1159.48,432.701l5.23,4.195-29.45,4.372l24.22-8.567Z" fill="#e6f5fa"/><path d="M1235.08,434.769l2.43,23.625h8.2l1.19-5.609-11.82-18.016Z" fill="#e6f5fa"/><path d="M1164.71,436.896l10.25,16.198h6.31l-4.07-8.099l12.7,13.399h-17.92l-7.27-21.498Z" fill="#bbe4f1"/><path d="M1187.83,407l-5.24,19.347-17.88,10.549-5.23-4.195L1187.83,407Z" fill="#bbe4f1"/><path d="M1252.22,447.168l6.96,11.226l6.62-.002-13.58-11.224Z" fill="#e6f5fa"/><path d="M1226.22,434.769v23.625l-14.17-35.436l14.17,11.811Z" fill="#e6f5fa"/><path d="M1196.52,429.266l9.45,29.126h9.45l-6.3-26.184-12.6-2.942Z" fill="#bbe4f1"/><path d="M1135.26,441.268l7.73,11.513h4.78l13.27,5.613-47.04-.002l21.26-17.124Z" fill="#9bd6ea"/><path d="M1182.59,426.347l5.24,20.235-8.89-14.37-5.29,2.557l3.55,5.907-12.49-3.78l17.88-10.549Z" fill="#bbe4f1"/></g></g><g style="mix-blend-mode:luminosity" opacity="0.7" filter="url(#eUPgvZHALX3163-filter)"><path d="M1265.8,458.001h-151.8l21.26,10.329l24.22,5.168L1187.83,489l16.54-9.626h7.68l14.17-7.124h8.86l11.82-10.867l5.32,3.388l13.58-6.77Z" fill="#fff"/><path d="M1215.42,458.001h-101.42l21.26,10.329l24.22,5.168L1187.83,489l8.69-13.43l12.6-1.775l6.3-15.794Z" fill="#9bd6ea"/><path d="M1164.71,470.967L1171.98,458h-44.91l-13.07.001l21.26,10.329l29.45,2.637Z" fill="#bbe4f1"/><path d="M1159.48,473.498l5.23-2.531-29.45-2.637l24.22,5.168Z" fill="#e6f5fa"/><path d="M1235.08,472.25l2.43-14.25h8.2l1.19,3.383-11.82,10.867Z" fill="#e6f5fa"/><path d="M1164.71,470.967l10.25-9.77h6.31l-4.07,4.885L1189.9,458h-17.92l-7.27,12.967Z" fill="#bbe4f1"/><path d="M1187.83,489l-5.24-11.67-17.88-6.363-5.23,2.531L1187.83,489Z" fill="#bbe4f1"/><path d="M1252.22,464.771l6.96-6.771l6.62.001-13.58,6.77Z" fill="#e6f5fa"/><path d="M1226.22,472.25v-14.25l-14.17,21.374l14.17-7.124Z" fill="#e6f5fa"/><path d="M1196.52,475.57l9.45-17.569h9.45l-6.3,15.794-12.6,1.775Z" fill="#bbe4f1"/><path d="M1135.26,468.33l7.73-6.944h4.78L1161.04,458l-47.04.001l21.26,10.329Z" fill="#9bd6ea"/><path d="M1182.59,477.33l5.24-12.205-8.89,8.668-5.29-1.543l3.55-3.563-12.49,2.28l17.88,6.363Z" fill="#bbe4f1"/></g></g></g><circle r="50" transform="translate(1226 71)" opacity="0.05"/><circle r="32" transform="translate(1162 136)" opacity="0.05"/><circle r="16" transform="translate(1123 175)" opacity="0.05"/><circle r="8" transform="translate(1290 8)" opacity="0.05"/><circle r="32" transform="translate(1226 71)" fill="#f7e7ff"/><g id="eUPgvZHALX3181_to" transform="translate(999.68689,377.33815)"><g transform="translate(-999.686889,-377.33815)"><g id="eUPgvZHALX3182_tr" transform="translate(986.780999,381.128515) rotate(0)"><g transform="translate(-986.780992,-381.128512)"><path d="M988.377,376.181c0,0-4.942-.069-5.754-2.819-.811-2.75-.409-6.719-.47-9.222-.064-2.658-.706-8.947-7.272-7.123-6.565,1.823-4.456,10.648-3.191,16.065c1.809,7.744,7.193,11.501,15.085,10.757l1.602-7.658Z" fill="#f5f5f5"/><path d="M973.816,361.837c-.046.823-.441,1.476-.883,1.459-.442-.018-.763-.699-.718-1.521.046-.823.441-1.476.883-1.459s.763.698.718,1.521Z" fill="#d5e1ff"/><path d="M976.485,360.556c-.055,1.006-.562,1.804-1.13,1.781-.569-.022-.985-.856-.929-1.862.055-1.006.562-1.803,1.13-1.781.569.022.985.856.929,1.862Z" fill="#d5e1ff"/><path d="M978.972,361.1c-.048.874-.487,1.566-.981,1.547-.493-.019-.854-.743-.806-1.617.048-.873.488-1.566.981-1.547s.855.744.806,1.617Z" fill="#d5e1ff"/><path d="M978.953,366.546c.183,1.912-1.094,3.598-2.851,3.766-1.757.167-3.33-1.246-3.512-3.158-.183-1.912,1.094-3.598,2.851-3.766s3.33,1.246,3.512,3.158Z" fill="#d5e1ff"/></g></g><g transform="translate(.000001 0)"><path d="M1006.94,346.804c0,0,2.19-8.571,9.21-6.474c10.13,3.026,4.01,12.766-.54,13.222-5.89.588-8.67-6.748-8.67-6.748Z" fill="#fff"/><path d="M1009.79,347.078c0,0,1.4-4.985,5.41-3.1c4.01,1.884,1.22,7.841-1.22,7.902-2.43.061-4.19-4.802-4.19-4.802Z" fill="#d5e1ff"/><path d="M997.03,346.804c0,0-2.188-8.571-9.209-6.474-10.13,3.026-4.012,12.766.547,13.222c5.886.588,8.662-6.748,8.662-6.748Z" fill="#fff"/><path d="M993.393,347.078c0,0-1.398-4.985-5.41-3.1-4.012,1.884-1.216,7.841,1.216,7.902c2.431.061,4.194-4.802,4.194-4.802Z" fill="#d5e1ff"/><path d="M991.752,395.569c0,0-7.529,1.528-9.271.294c0,0-.521-6.659-5.719-6.932-4.464-.235-7.006,2.307-7.466,10.88-.46,8.572,1.503,11.758,8.395,12.136c6.894.377,15.862-1.985,15.862-1.985l-1.801-14.393Z" fill="#f5f5f5"/><path d="M1025.91,393.034c0,0-10.5,5.157-12.24,3.923c0,0-.53-6.659-5.72-6.932-4.47-.235-7.01,2.307-7.47,10.88-.46,8.572,1.5,11.758,8.4,12.136c6.89.377,14.11-1.041,14.11-1.041c7.84-2.553,9.85-13.586,2.92-18.966Z" fill="#f5f5f5"/><path d="M984.695,359.57c0,0,0-13.039,11.215-16.139c10.12-2.798,22.7,3.92,21.25,17.963-.76,7.292-3.74,15.318,4.83,24.71s2.55,19.513-.55,23.343c-3.1,3.829-26.624,6.291-33.554-1.368s.582-36.357-1.641-40.485c-1.915-3.556-1.55-8.024-1.55-8.024Z" fill="#fff"/><path d="M997.07,398.337c.686-2.283.857-4.69,1.654-6.944.675-1.903,1.826-3.416,3.336-4.746c1.71-1.516,3.7-2.825,5.81-3.857-.4-1.945-1.02-3.646-1.88-4.847-3.8-5.243-13.179-2.675-13.179-2.675s0,2.971-3.134,10.744c-1.681,4.169-3.448,16.204,3.391,19.259c1.129-1.447,3.202-4.273,4.002-6.934Z" fill="#d5e1ff"/><path d="M984.756,396.689c-.359,5.068,1.844,10.184,5.774,13.405.127.104.311-.077.183-.183-3.883-3.182-6.053-8.214-5.699-13.222.011-.165-.247-.164-.258,0Z" fill="#ccc"/><path d="M997.948,394.018l-3.938,11.088c0,0-4.449.816-6.955,3.62-1.549,1.732-1.121,4.697.373,5.517c1.494.821,11.225.274,13.012,0c1.8-.273,1.11-3.459,1.11-3.459l-3.602-16.766Z" fill="#fff"/><path d="M994.016,402.313c.223,1.254-.36,2.511-1.457,3.153-.965.565-2.11.701-3.106,1.198-1.781.889-2.961,2.753-3.076,4.729-.009.166.249.165.258,0c.067-1.156.511-2.264,1.252-3.153.782-.938,1.786-1.459,2.933-1.823.996-.316,2.054-.625,2.747-1.461.627-.757.869-1.748.698-2.711-.029-.164-.278-.094-.249.068Z" fill="#ccc"/><path d="M992.777,405.67c1.392.414,2.52,1.403,3.123,2.722.068.151.291.02.222-.131-.629-1.376-1.827-2.409-3.277-2.84-.159-.047-.227.202-.068.249Z" fill="#ccc"/><path d="M1001.28,365.09c-1.703,2.08-4.457,2.125-6.23.103-2.246-2.564-4.802-5.793-4.436-6.854.423-1.226,3.015-2.128,4.718-2.598.877-.242,1.773-.371,2.674-.386.9-.015,1.8.084,2.684.297c1.72.414,4.34,1.23,4.8,2.441.4,1.049-2.05,4.361-4.21,6.997Z" fill="#d5e1ff"/><path d="M1003.97,395.845c-.15.992-.67,1.738-1.17,1.666-.51-.073-.8-.935-.66-1.927s.67-1.737,1.17-1.665.8.934.66,1.926Z" fill="#d5e1ff"/><path d="M1007.16,394.602c-.17,1.212-.84,2.121-1.49,2.028s-1.03-1.151-.86-2.364c.18-1.213.84-2.121,1.49-2.028s1.03,1.15.86,2.364Z" fill="#d5e1ff"/><path d="M1009.95,395.549c-.15,1.053-.73,1.842-1.3,1.761-.56-.08-.89-.999-.74-2.053.15-1.053.73-1.841,1.29-1.761.56.081.9,1,.75,2.053Z" fill="#d5e1ff"/><path d="M1005.65,408.673c2.03,0,3.68-2.409,3.68-5.38s-1.65-5.38-3.68-5.38c-2.02,0-3.67,2.409-3.67,5.38s1.65,5.38,3.67,5.38Z" fill="#d5e1ff"/><path d="M1005.97,412.535c-3.45-.813-5.36-4.328-5.73-7.625-.23-2.076,0-4.171.31-6.226.25-1.67.49-3.37,1.08-4.961.57-1.541,1.54-2.969,3.06-3.703c1.64-.798,3.65-.706,5.23.194c1.5.853,2.51,2.282,3.01,3.914.41,1.365.87,2.833,2.54,2.926c1.76.099,3.56-.881,4.91-1.909.75-.573,1.44-1.192,2.3-1.605.95-.454,2.04-.714,3.06-.381.16.052.23-.197.07-.249-1.56-.508-3.3.243-4.54,1.194-.72.555-1.4,1.146-2.18,1.61-.79.463-1.65.795-2.54.981-1.05.219-2.13.103-2.72-.888-.44-.734-.57-1.608-.87-2.398-.58-1.502-1.7-2.801-3.13-3.539-1.5-.769-3.31-.866-4.88-.248-1.51.599-2.6,1.846-3.27,3.303-.7,1.538-1,3.224-1.26,4.883-.33,2.104-.633,4.24-.501,6.376.221,3.644,2.121,7.692,5.981,8.6.16.038.23-.211.07-.249Z" fill="#ccc"/><path d="M1017.52,374.848c-.03.117-.07.229-.1.338-.33,1.043-.73,1.708-.73,1.708-12.48,7.842-30.536,1.095-30.536,1.095-.174-.868-.283-1.701-.343-2.487-.008-.1-.015-.199-.021-.297-.051-.803-.052-1.554-.021-2.242.005-.1.01-.199.016-.296.053-.892.159-1.67.274-2.304.018-.099.036-.194.054-.285.202-1.017.412-1.596.412-1.596c10.479,6.042,30.175.024,30.175.024.16.239.3.48.43.721.04.084.08.167.12.251.33.728.51,1.461.58,2.167.01.096.02.19.03.284.07,1.085-.11,2.096-.34,2.919Z" fill="#191970"/><g id="eUPgvZHALX3208_tr" transform="translate(1007.198181,373.157955) rotate(0)"><g transform="translate(-1007.19818,-373.157953)"><path d="M993.701,402.142c-.113,1.367.144,2.695.699,3.946.213.481.92.065.708-.414-.495-1.117-.687-2.316-.587-3.532.044-.527-.776-.524-.82,0Z" fill="#292c93"/><path d="M995.774,402.372c-.134,1.416.152,2.8.774,4.073.232.475.939.059.708-.414-.56-1.147-.782-2.389-.662-3.659.05-.525-.771-.522-.82,0Z" fill="#292c93"/><path d="M998.038,402.644c-.126,1.376.158,2.72.769,3.955.234.474.942.058.708-.414-.548-1.109-.769-2.31-.657-3.541.049-.526-.772-.523-.82,0Z" fill="#292c93"/><path d="M1000.44,402.461c-.12,1.496.17,2.954.78,4.318.22.48.93.063.71-.415-.55-1.231-.78-2.558-.67-3.903.05-.526-.77-.524-.82,0Z" fill="#292c93"/><path d="M1002.76,402.825c-.07,1.32.16,2.624.66,3.848.19.483.99.272.79-.218-.47-1.163-.69-2.375-.63-3.63.02-.528-.8-.526-.82,0Z" fill="#292c93"/><path d="M1012.99,382.57v.001c-.02.112-.04.223-.07.333-.38,1.781-1.11,3.324-2.13,4.748-.06.08-.12.159-.18.238-.65.882-1.42,1.719-2.28,2.542-.07.066-.14.132-.22.198-.37.347-.76.692-1.17,1.036-.01.016-.03.031-.05.047-.07.06-.14.122-.21.185-2.06,1.947-2.7,5.076-2.81,7.754c0,.129,0,.258-.01.385-.02.788.01,1.528.05,2.176.01.192.03.376.04.55.11,1.179.26,1.942.26,1.942l-4.343-.43-.271-.028-6.624-.656-.151-.016c-.027-.088-.052-.177-.075-.266-.563-2.105-.381-4.264.27-6.366.031-.101.064-.204.098-.305.27-.815.609-1.621,1.002-2.411.042-.084.084-.168.127-.251c1.277-2.493,3.068-4.821,4.859-6.778c1.268-1.39,2.078-2.924,2.558-4.475.04-.128.08-.254.11-.382.18-.631.3-1.263.38-1.889.02-.153.04-.306.05-.457.46-4.688-1.37-8.845-1.37-8.845c1.2-.535,2.43-.915,3.7-1.16.09-.017.18-.033.27-.049c1.2-.213,2.42-.307,3.68-.297.09,0,.18.002.27.004.83.015,1.68.075,2.54.177c1.85,5.487,2.32,9.509,1.7,12.745Z" fill="#191970"/></g></g><path d="M973.181,395.898c-.142.992-.666,1.738-1.169,1.666-.504-.073-.798-.935-.656-1.927s.665-1.737,1.169-1.665.797.934.656,1.926Z" fill="#d5e1ff"/><path d="M976.374,394.654c-.173,1.213-.84,2.122-1.488,2.029s-1.032-1.152-.859-2.364c.173-1.213.839-2.122,1.488-2.029.648.093,1.033,1.151.859,2.364Z" fill="#d5e1ff"/><path d="M979.161,395.602c-.151,1.053-.729,1.842-1.292,1.761-.563-.08-.897-.999-.746-2.053.151-1.053.729-1.841,1.292-1.761.562.081.897,1,.746,2.053Z" fill="#d5e1ff"/><path d="M974.871,408.726c2.029,0,3.673-2.409,3.673-5.38s-1.644-5.38-3.673-5.38-3.674,2.409-3.674,5.38s1.645,5.38,3.674,5.38Z" fill="#d5e1ff"/><path d="M995.127,356.591c0,0,.999-.605,2.512-.63s2.451.548,2.451.548-1.383,3.05-2.476,3.068c-.958.016-2.487-2.986-2.487-2.986Z" fill="#25173c"/><path d="M1001.64,355.094c.67-.683,1.64-.812,2.46-.329.46.268.87-.441.42-.708-1.14-.669-2.53-.487-3.46.457-.37.377.21.958.58.58Z" fill="#25173c"/><path d="M994.43,354.624c-.954-.909-2.346-1.067-3.466-.359-.445.281-.034.992.414.709.806-.51,1.777-.432,2.472.231.382.364.963-.215.58-.581Z" fill="#25173c"/><path d="M997.358,358.067c.283,1.15-.325,2.497-1.491,2.863-1.076.337-2.591-.103-2.962-1.256-.102-.315-.6-.18-.498.137.46,1.429,2.232,2.03,3.597,1.616c1.442-.437,2.2-2.078,1.851-3.497-.079-.323-.577-.186-.497.137Z" fill="#25173c"/><path d="M997.38,357.93c-.312,1.466.554,3.073,2.046,3.444c1.394.345,3.214-.259,3.654-1.73.1-.32-.4-.456-.5-.138-.35,1.193-1.91,1.645-3.017,1.37-1.209-.3-1.941-1.61-1.685-2.809.068-.324-.429-.463-.498-.137Z" fill="#25173c"/><path d="M985.911,379.036c-.155,1.565-.311,3.13-.466,4.695-.016.165.242.164.258,0c.155-1.565.311-3.13.466-4.695.016-.165-.242-.164-.258,0Z" fill="#ccc"/><path d="M1000.71,371.184c1.14,3.055,1.5,6.269,1.1,9.503-.02.165.24.163.26,0c.4-3.256.04-6.496-1.11-9.571-.06-.154-.31-.088-.25.068Z" fill="#292c93"/><path d="M1011.16,370.096c1.39,2.655,2.08,5.534,2.06,8.532c0,.166.25.166.26,0c.02-3.042-.69-5.967-2.1-8.662-.07-.148-.3-.018-.22.13Z" fill="#292c93"/></g></g></g><g id="eUPgvZHALX3227_to" transform="translate(883.471497,361.963501)"><g transform="translate(-883.471496,-361.963501)"><g id="eUPgvZHALX3228_to" transform="translate(883.471497,348.963501)"><g transform="translate(-883.471496,-348.963501)"><path d="M905.574,361.927h-45.137L859,359.488l2.3-13.925l9.325-5.284h11.769L903.492,336l1.149,15.744l3.302,9.465-2.369.718Z" fill="#fff"/><path d="M903.492,336l-3.372,5.835-11.193,1.577-3.014-1.433-2.944,2.439-10.693-1.006-4.447,4.878-6.529-2.727l9.325-5.284h11.769L903.492,336Z" fill="#bbe4f1"/><path d="M888.926,343.412l-1.579,10.477-1.435-11.91l3.014,1.433Z" fill="#9bd6ea"/><path d="M882.969,344.418l4.378,9.471-1.434-11.91-2.944,2.439Z" fill="#e6f5fa"/><path d="M867.829,348.29l-.718,13.637h-5.597l-.214-8.038h1.075l-1.075-8.326l6.529,2.727Z" fill="#9bd6ea"/><path d="M861.3,345.563l1.075,8.326h-1.075l.214,8.038h-1.077L859,359.488l2.3-13.925Z" fill="#e6f5fa"/><path d="M867.829,348.29l-3.265,13.637h-2.189l2.189-15l3.265,1.363Z" fill="#bbe4f1"/><path d="M900.12,341.835l4.521,9.909.933,10.183-4.018-10.908-1.436-9.184Z" fill="#e6f5fa"/><path d="M895.619,342.469l3.497,19.458h-3.497v-8.038l1.057.538-1.057-11.958Z" fill="#bbe4f1"/><path d="M888.926,343.412l3.444,18.515h-4.951l-.072-8.038l1.579-10.477Z" fill="#bbe4f1"/><path d="M882.395,361.927l-1.507-9.572v5.967l-3.444-7.731-1.291,8.429-3.445-13.457l1.722,16.364h7.965Z" fill="#e6f5fa"/><path d="M870.625,340.279l1.651,3.133-4.447,4.878-1.292-5.694l4.088-2.317Z" fill="#9bd6ea"/><path d="M882.394,340.279l3.518,1.7-2.944,2.439-.574-4.139Z" fill="#9bd6ea"/></g></g><g style="mix-blend-mode:luminosity" filter="url(#eUPgvZHALX3242-filter)"><path d="M905.574,362h-45.137L859,364.439l2.3,13.925l9.325,5.284h11.769l21.098,4.279l1.149-15.744l3.302-9.465-2.369-.718Z" fill="#fff"/><path d="M903.492,387.927l-3.372-5.835-11.193-1.577-3.014,1.433-2.944-2.439-10.693,1.006-4.447-4.878-6.529,2.727l9.325,5.284h11.769l21.098,4.279Z" fill="#bbe4f1"/><path d="M888.926,380.515l-1.579-10.477-1.435,11.91l3.014-1.433Z" fill="#9bd6ea"/><path d="M882.969,379.509l4.378-9.471-1.434,11.91-2.944-2.439Z" fill="#e6f5fa"/><path d="M867.829,375.637L867.111,362h-5.597l-.214,8.038h1.075l-1.075,8.326l6.529-2.727Z" fill="#9bd6ea"/><path d="M861.3,378.364l1.075-8.326h-1.075l.214-8.038h-1.077L859,364.439l2.3,13.925Z" fill="#e6f5fa"/><path d="M867.829,375.637L864.564,362h-2.189l2.189,15l3.265-1.363Z" fill="#bbe4f1"/><path d="M900.12,382.092l4.521-9.909.933-10.183-4.018,10.908-1.436,9.184Z" fill="#e6f5fa"/><path d="M895.619,381.458L899.116,362h-3.497v8.038l1.057-.538-1.057,11.958Z" fill="#bbe4f1"/><path d="M888.926,380.515L892.37,362h-4.951l-.072,8.038l1.579,10.477Z" fill="#bbe4f1"/><path d="M882.395,362l-1.507,9.572v-5.967l-3.444,7.731-1.291-8.429-3.445,13.457L874.43,362h7.965Z" fill="#e6f5fa"/><path d="M870.625,383.648l1.651-3.133-4.447-4.878-1.292,5.694l4.088,2.317Z" fill="#9bd6ea"/><path d="M882.394,383.648l3.518-1.7-2.944-2.439-.574,4.139Z" fill="#9bd6ea"/></g></g></g><g id="eUPgvZHALX3256_to" transform="translate(1092.945008,353.201508)"><g transform="translate(-1092.945007,-353.201507)"><path d="M1096.94,364.403c5.49,0,9.95-.638,9.95-1.425s-4.46-1.425-9.95-1.425-9.94.638-9.94,1.425s4.45,1.425,9.94,1.425Z" fill="#bad2f1"/><path d="M1094.7,362.827c-1.88.944-3.39,1.249-3.39,1.249s.62-.557.04-.834c-.01-.006-.03-.011-.04-.017-.81-.34-1.83.377-1.86.395.02-.022.62-.651.03-1.065-.56-.39-1.51.32-1.53.327c1.03-1.274,2.83-1.928,3.88-2.009.42-.033.7-.026.7-.026s2.15.273,2.17.911c.03.638,0,1.069,0,1.069Z" fill="#f38350"/><path d="M1094.7,362.827c-1.88.944-3.39,1.249-3.39,1.249s.62-.557.04-.834c.71-.217,1.59-.596,1.54-1.138-.06-.606-.67-1.022-1.06-1.231.42-.033.7-.026.7-.026s2.15.273,2.17.911c.03.638,0,1.069,0,1.069Z" fill="#e8563e"/><path d="M1099.03,362.827c1.88.944,3.39,1.249,3.39,1.249s-.62-.557-.04-.834c.01-.006.03-.011.04-.017.81-.34,1.83.377,1.86.395-.03-.022-.63-.651-.03-1.065.56-.39,1.51.32,1.53.327-1.03-1.274-2.83-1.928-3.88-2.009-.43-.033-.7-.026-.7-.026s-2.15.273-2.17.911c-.03.638,0,1.069,0,1.069Z" fill="#f38350"/><path d="M1099.03,362.827c1.88.944,3.39,1.249,3.39,1.249s-.62-.557-.04-.834c-.71-.217-1.59-.596-1.54-1.138.06-.606.67-1.022,1.06-1.231-.43-.033-.7-.026-.7-.026s-2.15.273-2.17.911c-.03.638,0,1.069,0,1.069Z" fill="#e8563e"/><path d="M1096.88,362.705c-4.31.043-8.12-3.907-7.06-10.139.75-4.341,3.06-7.763,4.4-9.44.56-.701,1.59-1.128,2.7-1.126c1.11.003,2.14.435,2.7,1.138c1.33,1.683,3.63,5.115,4.35,9.459c1.04,6.237-2.79,10.17-7.09,10.108Z" fill="#25173c"/><path d="M1097.15,361.784c-.18-.002-.36-.003-.54-.001-2.11.018-5.67-1.811-5.54-7.37c0-.018,0-.036,0-.055c0-.053,0-.105.01-.158.12-2.369,1.73-4.48,3.55-5.221-1.22-.848-1.55-3.395-.78-4.23.98-1.077,3.04-.278,3.04-.278s2.1-.79,3.08.292c.75.829.41,3.167-.56,4.227c1.86.719,3.19,2.823,3.31,5.232c0,.054,0,.108,0,.162c0,.019,0,.037,0,.055.1,5.559-3.46,7.372-5.57,7.345Z" fill="#fff"/><path d="M1098.03,346.323c.21-.212.51-.253.77-.102.14.083.27-.137.13-.22-.36-.208-.79-.151-1.08.142-.11.117.07.297.18.18Z" fill="#25173c"/><path d="M1095.8,346.177c-.3-.282-.73-.331-1.08-.112-.14.088-.01.308.13.22.25-.158.55-.134.77.072.11.113.29-.067.18-.18Z" fill="#25173c"/><path d="M1097.15,361.784c-.18-.002-.36-.003-.54-.001-2.11.018-5.67-1.811-5.54-7.37c0-.018,0-.036,0-.055c0-.053,0-.105.01-.158.13.587,1.63,6.783,5.76,6.792c4.14.009,5.74-6.206,5.88-6.77c0,.054,0,.108,0,.162c0,.019,0,.037,0,.055.1,5.559-3.46,7.372-5.57,7.345Z" fill="#25173c"/><path d="M1098.35,347.437l-1.47.501-1.47-.508c.08-.2.19-.384.31-.55.47-.629,1.16-1.003,1.16-1.003s.72.393,1.19,1.049c.11.156.21.327.28.511Z" fill="#f38350"/><path d="M1098.35,347.437l-1.47.501-1.47-.508c.08-.2.19-.384.31-.55.23.301.64.705,1.16.706.5.001.93-.366,1.19-.66.11.156.21.327.28.511Z" fill="#e8563e"/><path d="M1096.64,346.832c0,0-.3.298-.22.411.06.088.28-.134.22-.411Z" fill="#e8563e"/><path d="M1097.13,346.833c0,0,.29.299.22.412-.06.088-.29-.135-.22-.412Z" fill="#e8563e"/><path d="M1090.14,351.098c0,0-2.18,1.473-1.47,4.614.55,2.453,3.62,2.187,5.39,1.815.44-.093.54-.684.15-.912-1.4-.811-3.6-2.382-3.41-4.121l-.66-1.396Z" fill="#25173c"/><path d="M1103.61,350.955c0,0,2.22,1.407,1.61,4.568-.48,2.468-3.56,2.295-5.34,1.976-.44-.08-.56-.668-.17-.907c1.37-.853,3.53-2.489,3.28-4.222l.62-1.415Z" fill="#25173c"/><path d="M1103.17,349.499c0,0-.38.328-1.25.708v0c-.05.025-.11.05-.17.074v0c-.47.193-1.05.394-1.77.569c0,0,0,0,0,0-.06.013-.11.026-.17.039c0,0,0,0,0,0-.6.139-1.3.26-2.09.342-.02.002-.04.004-.06.005-.05.006-.1.01-.15.015v0c-.68.057-1.33.054-1.95.012-.04-.003-.09-.006-.13-.009c0,0,0,0,0,0-.51-.04-1-.106-1.45-.189v0c-.04-.007-.08-.014-.12-.021-2.02-.38-3.39-1.057-3.39-1.057c0-.056,0-.112.01-.167c0-.038.01-.074.01-.111.16-1.488,1.07-2.447,1.07-2.447s.38.276,1.24.513c.03.008.06.017.09.025.63.167,1.51.308,2.65.308.49,0,.95-.018,1.38-.049.04-.003.08-.006.11-.009.64-.049,1.22-.127,1.75-.219.04-.007.08-.014.13-.022.86-.156,1.58-.35,2.1-.518.04-.014.08-.027.12-.04.59-.194.91-.344.91-.344.18.156.33.313.45.471.02.025.04.049.06.073.26.336.41.667.5.961v0c.02.038.03.076.04.113.15.567.08.974.08.974Z" fill="#4682b4"/><path d="M1098.35,357.802c.04.424-.04.836-.22,1.224-.06.15-.28.02-.22-.128.16-.347.22-.719.19-1.097-.02-.163.24-.162.25.001Z" fill="#004c44"/><path d="M1097.71,357.873c.04.439-.05.869-.24,1.265-.07.147-.29.018-.22-.129.17-.356.24-.742.2-1.136-.01-.163.24-.162.26,0Z" fill="#004c44"/><path d="M1097,357.957c.04.428-.04.845-.23,1.228-.08.147-.3.018-.22-.128.17-.345.23-.717.2-1.1-.02-.163.24-.162.25,0Z" fill="#004c44"/><path d="M1096.26,357.901c.04.464-.05.917-.24,1.34-.07.149-.29.02-.22-.129.17-.382.24-.794.2-1.211-.01-.164.24-.163.26,0Z" fill="#004c44"/><path d="M1095.54,358.014c.02.409-.05.814-.2,1.194-.07.15-.31.084-.25-.068.15-.361.21-.737.2-1.126-.01-.164.24-.164.25,0Z" fill="#004c44"/><path d="M1092.36,351.726v.001c.01.035.02.069.02.103.13.553.35,1.032.67,1.474.02.025.03.049.05.074.21.274.44.533.71.789.02.02.05.041.07.061.11.108.23.215.36.322.01.005.01.01.02.015.02.018.04.037.06.057.64.604.84,1.576.87,2.407.01.04.01.08.01.119c0,.245,0,.474-.02.676c0,.059-.01.116-.01.17-.03.366-.08.603-.08.603l1.35-.133.08-.009l2.06-.204.04-.005c.01-.027.02-.055.03-.082.17-.653.12-1.324-.09-1.976-.01-.032-.02-.063-.03-.095-.08-.253-.19-.503-.31-.748-.01-.027-.02-.053-.04-.078-.39-.774-.95-1.497-1.51-2.104-.39-.432-.64-.908-.79-1.389-.01-.04-.02-.079-.03-.119-.06-.196-.1-.392-.12-.586-.01-.048-.01-.095-.02-.142-.14-1.455.43-2.745.43-2.745-.37-.166-.76-.284-1.15-.36-.03-.006-.06-.011-.08-.016-.37-.066-.76-.095-1.14-.092-.03,0-.06.001-.09.001-.26.005-.52.024-.79.056-.57,1.703-.72,2.951-.53,3.955Z" fill="#4682b4"/><path d="M1095.88,348.078c-.27,1.036-.37,2.113-.21,3.174.01.054.09.031.08-.022-.15-1.046-.06-2.109.21-3.129.01-.053-.07-.076-.08-.023Z" fill="#004c44"/><path d="M1092.74,347.767c-.39.926-.57,1.88-.53,2.885c0,.054.08.055.08,0-.03-.988.14-1.931.52-2.842.02-.05-.05-.093-.07-.043Z" fill="#004c44"/><path d="M1082.83,363.63c2.12,0,3.83-.245,3.83-.549c0-.303-1.71-.549-3.83-.549s-3.83.246-3.83.549c0,.304,1.71.549,3.83.549Z" fill="#bad2f1"/><path d="M1081.97,363.023c-.73.364-1.31.481-1.31.481s.24-.214.02-.321c-.01-.002-.01-.004-.02-.006-.31-.132-.71.145-.71.152c0-.009.23-.251.01-.411-.22-.15-.59.124-.59.127.39-.491,1.09-.743,1.49-.775.16-.012.27-.01.27-.01s.83.106.84.351c.01.246,0,.412,0,.412Z" fill="#f38350"/><path d="M1081.97,363.023c-.73.364-1.31.481-1.31.481s.24-.214.01-.321c.28-.083.62-.229.6-.438-.02-.234-.26-.394-.41-.475.16-.012.27-.01.27-.01s.83.106.84.351c.01.246,0,.412,0,.412Z" fill="#e8563e"/><path d="M1083.63,363.023c.73.364,1.31.481,1.31.481s-.24-.214-.01-.321c0-.002,0-.004.01-.006.31-.132.71.145.72.152-.01-.009-.24-.251-.02-.411.22-.15.59.124.59.127-.39-.491-1.08-.743-1.49-.775-.16-.012-.27-.01-.27-.01s-.83.106-.84.351c-.01.246,0,.412,0,.412Z" fill="#f38350"/><path d="M1083.63,363.023c.73.364,1.31.481,1.31.481s-.24-.214-.01-.321c-.28-.083-.62-.229-.6-.438.02-.234.26-.394.41-.475-.16-.012-.27-.01-.27-.01s-.83.106-.84.351c-.01.246,0,.412,0,.412Z" fill="#e8563e"/><path d="M1082.8,362.976c-1.65.017-3.12-1.505-2.71-3.906.28-1.672,1.18-2.99,1.69-3.636.22-.27.61-.435,1.04-.434s.83.168,1.04.438c.51.649,1.4,1.971,1.68,3.644.4,2.403-1.08,3.918-2.74,3.894Z" fill="#25173c"/><path d="M1082.91,362.621c-.07-.001-.14-.001-.21,0-.81.007-2.18-.698-2.13-2.839c0-.007,0-.014,0-.021c0-.021,0-.041,0-.061.05-.913.67-1.726,1.37-2.012-.47-.326-.6-1.307-.3-1.629.38-.415,1.17-.107,1.17-.107s.81-.304,1.19.112c.29.32.16,1.22-.22,1.629.72.277,1.23,1.087,1.27,2.015.01.021.01.042.01.063c0,.007,0,.014,0,.021.04,2.141-1.34,2.84-2.15,2.829Z" fill="#fff"/><path d="M1083.25,356.665c.08-.081.2-.097.29-.039.06.032.11-.053.05-.085-.13-.08-.3-.058-.41.055-.04.045.03.114.07.069Z" fill="#25173c"/><path d="M1082.39,356.609c-.12-.109-.28-.128-.42-.043-.05.034,0,.119.05.085.1-.061.22-.052.3.027.04.044.11-.025.07-.069Z" fill="#25173c"/><path d="M1082.91,362.621c-.07,0-.14-.001-.21,0-.81.007-2.18-.698-2.13-2.839c0-.007,0-.014,0-.021c0-.021,0-.041,0-.061.05.226.63,2.613,2.22,2.616c1.59.004,2.21-2.39,2.26-2.608.01.021.01.042.01.063c0,.007,0,.014,0,.021.04,2.141-1.34,2.84-2.15,2.829Z" fill="#25173c"/><path d="M1083.37,357.094l-.56.193-.57-.195c.03-.077.07-.148.12-.212.18-.243.45-.387.45-.387s.28.152.46.405c.04.06.08.126.1.196Z" fill="#f38350"/><path d="M1083.37,357.094l-.56.193-.57-.195c.03-.077.07-.148.12-.212.09.116.25.272.45.272.19,0,.35-.141.46-.254.04.06.08.126.1.196Z" fill="#e8563e"/><path d="M1082.71,356.861c0,0-.11.115-.08.159.02.034.11-.052.08-.159Z" fill="#e8563e"/><path d="M1082.9,356.862c0,0,.12.115.09.159-.03.033-.11-.053-.09-.159Z" fill="#e8563e"/><path d="M1080.21,358.505c0,0-.84.567-.57,1.777.22.945,1.4.843,2.08.7.17-.036.21-.264.06-.352-.54-.312-1.39-.917-1.31-1.588l-.26-.537Z" fill="#25173c"/><path d="M1085.4,358.45c0,0,.86.542.62,1.759-.19.951-1.37.884-2.06.762-.17-.031-.21-.258-.07-.35.53-.328,1.36-.959,1.27-1.626l.24-.545Z" fill="#25173c"/></g></g><g style="mix-blend-mode:luminosity" opacity="0.1" filter="url(#eUPgvZHALX3298-filter)"><path d="M1206,346.001l25.64,44.307l29.34-4.65l26.73,29.956l5.43-3.83-15.64-65.783h-71.5Z" fill="#bdd2ed"/><path d="M1238.16,369.243l-15.21-23.242h46.51l-11.74,15.172-19.56,8.07Z" fill="#a4bdde"/><path d="M1293.14,411.784l39.55-21.75-50.01-22.251l10.46,44.001Z" fill="#fff"/><path d="M1365.29,372.936l-32.6,17.098-50.01-22.252c0,0-4.93-20.703-5.18-21.782h84.09l3.7,26.936Z" fill="#a4bdde"/><path d="M1540.87,377.177l24.34-31.176h-203.62l3.7,26.935l48.02-1.094l20.21-18.056l83.45,23.391l9.56-4.241l14.34,4.241Z" fill="#bdd2ed"/><path d="M1344.23,383.98l-1.98-11.454l12.9,5.727-10.92,5.727Z" fill="#bdd2ed"/><path d="M1413.31,371.842l103.66,5.335-83.45-23.391-20.21,18.056Z" fill="#bdd2ed"/><path d="M1526.53,372.936l-18.69-15.047l9.13,19.288l9.56-4.241Z" fill="#a4bdde"/><path d="M1496.14,376.105l11.7-18.216l9.13,19.288-20.83-1.072Z" fill="#fff"/><path d="M1448.98,373.678l-15.46-19.892-20.21,18.056l35.67,1.836Z" fill="#fff"/><path d="M1565.21,404.124l-24.34-26.947l24.34-31.176h18.47l1.74,40.614-20.21,17.509Z" fill="#a4bdde"/><path d="M1651.7,377.177l-66.28,9.438-1.74-40.614h62.15l5.87,31.176Z" fill="#bdd2ed"/><path d="M1680.6,388.53l-28.9-11.353-5.87-31.176h34.77v42.529Z" fill="#a4bdde"/><path d="M1699.07,346.001L1680.6,388.53v-42.529h18.47Z" fill="#bdd2ed"/><path d="M1611.72,367.265l-5.65-21.264h11.62l-5.97,21.264Z" fill="#a4bdde"/><path d="M1415.49,430.729l-127.78-15.115l5.43-3.83l39.55-21.75l32.6-17.098l48.02-1.094l103.66,5.335l9.56-4.241l14.34,4.241l24.34,26.947l20.21-17.509l66.28-9.438l28.9,11.353-6.63,10.601-46.28,31.598-37.16,16.004L1552.39,489l-71.06-84.876-24.77,23.527-41.73-23.527.66,26.605Z" fill="#fff"/><path d="M1460.47,429.601l-3.91-1.95l24.77-23.527l4.89,5.834-5.38,7.947-20.37,11.696Z" fill="#d4e3fa"/><path d="M1421.35,431.857l-5.86-1.128-.66-26.605l26.02,14.669-13.01,6.601-6.49,6.463Z" fill="#d4e3fa"/><path d="M1552.39,489l56.72-28.793l32.38-27.358l32.48-33.718-46.28,31.598-37.16,16.004L1552.39,489Z" fill="#d4e3fa"/><path d="M1540.87,442.674l-23.9-33.714l18.35,10.087l5.55,23.627Z" fill="#d4e3fa"/><path d="M1516.97,408.96l19.87-13.381-1.52,23.468-18.35-10.087Z" fill="#bdd2ed"/><path d="M1629.34,429.601l12.15,3.248l32.48-33.718-44.63,30.47Z" fill="#bdd2ed"/><path d="M1480.84,417.905l-8.28-5.453l8.77-8.328l4.89,5.834-5.38,7.947Z" fill="#bdd2ed"/></g><rect width="2.87766" height="14.3883" rx="1.43883" ry="1.43883" transform="translate(1148.61 286)" fill="#fff"/><rect width="2.87766" height="14.3883" rx="1.43883" ry="1.43883" transform="matrix(-.5 0.866025-.866025-.5 1157.000343 295.544717)" fill="#fff"/><rect width="2.87766" height="14.3883" rx="1.43883" ry="1.43883" transform="matrix(.5 0.866025-.866025 0.5 1155.460676 288.445644)" fill="#fff"/><g filter="url(#eUPgvZHALX3325-filter)"><rect width="2.87766" height="14.3883" rx="1.43883" ry="1.43883" transform="translate(1228.61 175)" fill="#fff"/><rect width="2.87766" height="14.3883" rx="1.43883" ry="1.43883" transform="matrix(-.5 0.866025-.866025-.5 1236.999137 184.544761)" fill="#fff"/><rect width="2.87766" height="14.3883" rx="1.43883" ry="1.43883" transform="matrix(.5 0.866025-.866025 0.5 1235.460499 177.445648)" fill="#fff"/></g><path d="" fill="none" stroke="#3f5787" stroke-width="4"/></svg>
