<svg width="64" height="64" viewBox="0 0 64 64" fill="none" xmlns="http://www.w3.org/2000/svg">
<path d="M57.6338 51.3867C55.757 50.618 54.9541 49.598 55.0318 48.0761C55.1117 46.2996 54.1039 44.9984 53.6252 44.4843C53.9144 43.3797 54.7594 39.5586 53.6261 36.2396C52.4082 32.687 48.6899 27.2612 44.8532 21.9278C43.2826 19.7375 43.2083 17.3567 43.1225 14.5999C43.0402 11.9704 42.9475 8.98986 41.4811 5.67652C39.8868 2.06879 36.6876 0 32.7034 0C30.3333 0 27.9004 0.740726 26.0283 2.03207C22.1945 4.67791 22.7013 10.4465 23.0366 14.2637C23.0826 14.7864 23.1258 15.2802 23.151 15.7017C23.3742 19.4402 23.1711 21.4106 22.9055 22.0094C22.7336 22.4008 21.8875 23.5146 20.9922 24.6939C20.0662 25.9135 19.0163 27.2959 18.1558 28.5841C17.1291 30.1341 16.3002 32.5034 15.4986 34.7946C14.9121 36.4712 14.3582 38.0549 13.8189 39.0012C12.7968 40.8218 13.0511 42.5194 13.2634 43.3039C12.8765 43.5727 12.3175 44.102 11.8456 45.0995C11.2752 46.3166 10.118 46.9706 7.71155 47.4333C6.60571 47.6595 5.84316 48.1245 5.44447 48.8153C4.86427 49.8207 5.18029 51.0839 5.4686 51.9471C5.89457 53.2162 5.62913 54.0195 5.1465 55.4779C5.03529 55.8145 4.90918 56.1955 4.78138 56.6158C4.58015 57.2791 4.65275 57.8822 4.99668 58.4083C5.90548 59.7976 8.55741 60.2876 11.2874 60.6099C12.9174 60.8033 14.7014 61.4553 16.4269 62.0861C18.1176 62.7038 19.8658 63.3428 21.4549 63.5367C21.6964 63.5671 21.9356 63.5824 22.1662 63.5824C24.5655 63.5824 25.6495 61.9904 25.9932 61.3363C26.855 61.1605 29.8274 60.5973 32.8908 60.5217C35.9494 60.4344 38.9087 61.0384 39.747 61.2262C40.0106 61.7306 40.7053 62.8828 41.8129 63.4765C42.4216 63.8093 43.2687 64 44.1364 64H44.1366C45.0632 64 46.8261 63.7809 48.2213 62.3131C49.6129 60.8384 53.09 58.9557 55.629 57.5811C56.1955 57.2743 56.7256 56.9872 57.1904 56.7281C58.6166 55.9374 59.3949 54.8077 59.3255 53.6286C59.2676 52.6493 58.6194 51.7902 57.6338 51.3867ZM26.0595 51.1028C25.882 49.8521 24.2732 48.6118 22.41 47.1757C20.8866 46.0012 19.1599 44.6702 18.6842 43.5429C17.7011 41.2175 18.476 37.1286 19.8271 35.0231C20.4949 33.9689 21.0402 32.3702 21.5677 30.8241C22.1372 29.1546 22.7263 27.4285 23.3849 26.6729C24.428 25.4932 25.392 23.1977 25.5628 21.3887C26.5396 22.3212 28.0549 23.5045 29.4547 23.5045C29.6702 23.5045 29.8794 23.4764 30.0794 23.42C31.0371 23.1434 32.4457 22.3294 33.808 21.5425C34.9824 20.8639 36.4307 20.0271 36.9757 19.9509C37.9101 21.2926 43.3396 33.3081 43.8945 37.1668C44.3334 40.22 43.8697 42.7439 43.6366 43.7324C43.449 43.7068 43.2253 43.6861 42.9903 43.6861C41.478 43.6861 41.0776 44.5116 40.9733 45.0045C40.7051 46.2851 40.6768 50.3801 40.6739 51.3002C40.127 51.995 37.3616 55.2668 33.3912 55.855C31.774 56.09 30.2638 56.2092 28.9028 56.2092C27.7395 56.2092 26.9971 56.1193 26.6888 56.0725L24.6937 53.7897C25.4804 53.4013 26.2668 52.5817 26.0595 51.1028ZM28.5912 13.4609C28.5289 13.4877 28.4676 13.5165 28.4074 13.5471C28.4013 13.412 28.3873 13.2749 28.3656 13.1375C28.1478 11.8837 27.3165 10.9737 26.3892 10.9737C26.3206 10.9737 26.2515 10.9789 26.1758 10.9904C25.6241 11.0824 25.1914 11.4968 24.9543 12.0843C25.1623 10.7951 25.8927 9.84054 26.7593 9.84054C27.777 9.84054 28.6368 11.212 28.6368 12.8353C28.6368 13.0399 28.6219 13.2435 28.5912 13.4609ZM36.4992 14.4276C36.5923 14.1309 36.6427 13.8098 36.6427 13.4766C36.6427 12.0048 35.7089 10.8517 34.5168 10.8517C33.3518 10.8517 32.404 12.0291 32.404 13.4766C32.404 13.5752 32.4088 13.6741 32.418 13.7727C32.3563 13.749 32.2961 13.7259 32.2374 13.7036C32.1033 13.2976 32.0355 12.8739 32.0355 12.4415C32.0355 10.6816 33.1602 9.24963 34.543 9.24963C35.9257 9.24963 37.0506 10.6816 37.0506 12.4415C37.0506 13.1736 36.8485 13.8724 36.4992 14.4276ZM35.4796 17.853C35.4596 17.9419 35.4172 17.9814 34.9485 18.2252C34.7118 18.3484 34.4171 18.5018 34.0485 18.7263L33.8021 18.8755C32.8121 19.4756 30.494 20.8813 29.8647 20.9638C29.4373 21.0213 29.1729 20.8555 28.5784 20.4516C28.4443 20.3603 28.3016 20.2634 28.1495 20.1658C27.0779 19.4626 26.3886 18.6881 26.3107 18.3853C26.6601 18.1153 27.5261 17.4394 27.9695 17.0392C28.8695 16.2024 29.7751 15.64 30.2233 15.64C30.247 15.64 30.2684 15.6417 30.2907 15.6459C30.8174 15.7389 32.1165 16.2574 33.0654 16.6359C33.5039 16.8109 33.8827 16.962 34.1492 17.0577C34.9887 17.346 35.4265 17.7149 35.4796 17.853ZM43.0226 56.9604C43.4962 54.824 44.0418 51.9178 43.9534 50.2044C43.9331 49.8152 43.8987 49.3915 43.8653 48.9819C43.803 48.216 43.7104 47.0777 43.8059 46.74C43.8248 46.7312 43.8458 46.7237 43.8691 46.7172C43.873 47.6967 44.0858 49.6505 45.6483 50.3318C46.1139 50.5349 46.6461 50.6378 47.2298 50.6378C48.795 50.6378 50.5316 49.87 51.243 49.1586C51.6618 48.7398 52.0141 48.2274 52.2609 47.8215C52.3148 47.9795 52.348 48.186 52.3305 48.4521C52.2376 49.8968 52.9397 51.8135 54.276 52.5198L54.4705 52.622C54.9464 52.8717 56.2104 53.5354 56.2308 53.8502C56.2308 53.8502 56.2201 53.8873 56.1496 53.9528C55.8329 54.2421 54.7185 54.8112 53.6408 55.3616C51.7289 56.3378 49.562 57.4443 48.5887 58.4678C47.2185 59.9098 45.6686 60.8785 44.7328 60.8785C44.6201 60.8785 44.5175 60.8642 44.4262 60.8352C43.4097 60.5184 42.5731 59.0518 43.0226 56.9604ZM8.37611 51.5103C8.27245 51.0251 8.19061 50.6422 8.27853 50.2712C8.34233 49.9963 9.69934 49.7017 10.2789 49.576C11.0937 49.3991 11.9364 49.2163 12.4875 48.8818C13.2326 48.4305 13.6361 47.5981 13.992 46.8636C14.2497 46.3325 14.5157 45.7834 14.8324 45.6031C14.8502 45.5926 14.8775 45.5805 14.9295 45.5805C15.5228 45.5805 16.7675 46.8275 17.4847 47.9437C17.6667 48.225 18.0037 48.7889 18.3935 49.4417C19.5596 51.3928 21.1563 54.065 21.9902 54.9606C22.7416 55.7658 23.958 57.3137 23.6588 58.6414C23.4397 59.6715 22.2734 60.5091 21.9983 60.6944C21.8985 60.7171 21.7749 60.7286 21.6294 60.7286C20.0334 60.7286 16.8741 59.4008 15.1767 58.6873L14.9256 58.5818C13.9777 58.1844 12.4304 57.934 10.934 57.6919C9.74341 57.499 8.11297 57.2353 7.8427 56.9969C7.62363 56.7512 7.87775 55.9523 8.10185 55.2475C8.26322 54.7409 8.42983 54.2172 8.52111 53.6689C8.65058 52.7943 8.49823 52.0823 8.37611 51.5103Z" fill="#1E1E1E"/>
</svg>
