<svg width="2000" height="493" viewBox="0 0 2000 493" fill="none" xmlns="http://www.w3.org/2000/svg">
<g clip-path="url(#clip0_847_348)">
<g filter="url(#filter0_i_847_348)">
<path d="M2000.01 323H0.0146484V493H2000.01V323Z" fill="url(#paint0_linear_847_348)"/>
</g>
<g style="mix-blend-mode:luminosity" opacity="0.1" filter="url(#filter1_f_847_348)">
<path d="M383 337L400.287 381.693L431.471 359.628L428.421 337H383Z" fill="#BDD2ED"/>
<path d="M452.699 361.784L431.471 359.628L428.421 337H443.928L452.699 361.784Z" fill="#A4BDDE"/>
<path d="M477.994 337L452.699 361.784L443.928 337H477.994Z" fill="#BDD2ED"/>
<path d="M503.501 372.637L498.077 337H519.093L538.244 391.324L503.501 372.637Z" fill="#BDD2ED"/>
<path d="M554.345 366.743L543.837 378.818L538.244 391.324L519.093 337H534.176L554.345 366.743Z" fill="#A4BDDE"/>
<path d="M594.003 351.506L554.345 366.743L534.176 337H598.41L594.003 351.506Z" fill="#BDD2ED"/>
<path d="M564.259 352.872L556.887 337H567.395L564.259 352.872Z" fill="#A4BDDE"/>
<path d="M400.287 381.693L428.421 386.58L483.841 425.715V489L528.075 455.364L531.634 440.054L542.566 434.017L558.327 404.261V396.93L594.003 351.506L554.345 366.743L543.837 378.818L538.244 391.324L503.501 372.637L498.077 337H477.994L452.699 361.784L431.471 359.628L400.287 381.693Z" fill="white"/>
<path d="M443.928 428.411L428.421 386.58L483.841 425.715V489L443.928 428.411Z" fill="#D4E3FA"/>
<path d="M528.075 455.364L547.65 440.054L558.327 404.261L542.566 434.017L531.634 440.054L528.075 455.364Z" fill="#D4E3FA"/>
<path d="M516.635 421.295L506.721 437.791L509.063 423.922L492.357 416.444L509.928 418.802L513.33 398.655L516.635 421.295Z" fill="#D4E3FA"/>
<path d="M492.357 416.444L509.928 418.802L513.33 398.655L492.357 416.444Z" fill="#BDD2ED"/>
<path d="M547.65 440.054L542.566 434.017L558.327 404.261L547.65 440.054Z" fill="#BDD2ED"/>
<path d="M443.928 428.411L483.841 425.715L428.421 386.58L443.928 428.411Z" fill="#BDD2ED"/>
</g>
<g style="mix-blend-mode:luminosity" opacity="0.1" filter="url(#filter2_f_847_348)">
<path d="M554.185 374.523L582.404 349.355L587.234 337.407H543L554.185 374.523Z" fill="#BDD2ED"/>
<path d="M603.504 391.556L597.403 337.407H605.029L611.131 374.523L603.504 391.556Z" fill="#BDD2ED"/>
<path d="M618.757 370.074L611.131 374.523L605.029 337.407H608.461L618.757 370.074Z" fill="#A4BDDE"/>
<path d="M621.808 337.407L655.365 384.184L656.721 337.407H621.808Z" fill="#BDD2ED"/>
<path d="M666.043 337.407L667.568 379.438L655.365 384.184L656.721 337.407H666.043Z" fill="#A4BDDE"/>
<path d="M693.329 384.862L688.075 337.407H666.043L667.568 379.438L693.329 384.862Z" fill="#BDD2ED"/>
<path d="M728.75 361.982L701.972 337.407H688.075L693.329 384.862L728.75 361.982Z" fill="#A4BDDE"/>
<path d="M733.835 337.407L728.75 361.982L701.972 337.407H733.835Z" fill="#BDD2ED"/>
<path d="M554.185 374.523L582.404 349.355L587.234 337.407H597.403L603.504 391.556L611.131 374.523L618.757 370.074L608.461 337.407H621.808L655.365 384.184L667.568 379.438L693.329 384.862L728.75 361.982L733.835 337.407H774.849L749.596 394.861L713.158 448.247L690.448 418.08L676.55 466.212L635.705 482.313L611.893 473.5L607.741 438.587L586.217 486.211L551.135 440.621L568.252 412.995L570.625 384.862L554.185 374.523Z" fill="white"/>
<path d="M676.55 466.212L694.685 459.941L713.158 448.247L690.448 418.08L676.55 466.212Z" fill="#D4E3FA"/>
<path d="M586.217 486.211L611.893 473.5L607.741 438.587L586.217 486.211Z" fill="#D4E3FA"/>
<path d="M551.135 440.621L566.807 382.461L570.625 384.862L568.252 412.995L551.135 440.621Z" fill="#BDD2ED"/>
<path d="M690.448 418.08L705.445 408.077L713.158 448.247L690.448 418.08Z" fill="#BDD2ED"/>
<path d="M639.265 452.912V431.022L621.808 416.517L651.115 419.944L639.265 452.912Z" fill="#D4E3FA"/>
<path d="M621.808 416.517L636.462 405.44L651.115 419.944L621.808 416.517Z" fill="#BDD2ED"/>
</g>
<g style="mix-blend-mode:luminosity" opacity="0.6" filter="url(#filter3_f_847_348)">
<path d="M999.924 435.947L1000.28 447.438L1019.11 445.862L1018.76 434.371L999.924 435.947Z" fill="#E6F5FA"/>
<path d="M966.087 432.597L999.924 435.947L1018.76 434.371L1026.43 436.921L1038.69 433.752L1050.62 420.395L1013.38 410.728L973.729 411.96L950 421.357L966.087 432.597Z" fill="white"/>
<path d="M988.616 434.827L993.437 428.766L984.946 434.77L988.616 434.827Z" fill="#9BD6EA"/>
<path d="M1038.69 433.752L1039.04 445.242L1050.98 431.885L1050.62 420.395L1038.69 433.752Z" fill="#E6F5FA"/>
<path d="M1026.43 436.921L1026.79 448.411L1039.04 445.242L1038.69 433.752L1026.43 436.921Z" fill="#BBE4F1"/>
<path d="M1018.76 434.371L1019.11 445.862L1026.79 448.411L1026.43 436.921L1018.76 434.371Z" fill="#9BD6EA"/>
<path d="M966.087 432.597L966.444 444.087L1000.28 447.438L999.924 435.947L966.087 432.597Z" fill="#BBE4F1"/>
<path d="M984.946 434.77L985.241 443.503L988.616 434.827L984.946 434.77Z" fill="#9BD6EA"/>
<path d="M950 421.357L950.357 432.847L966.444 444.087L966.087 432.597L950 421.357Z" fill="#9BD6EA"/>
</g>
<path d="M999.924 424.947L1000.28 436.438L1019.11 434.862L1018.76 423.371L999.924 424.947Z" fill="#E6F5FA"/>
<path d="M966.087 421.597L999.924 424.947L1018.76 423.371L1026.43 425.921L1038.69 422.752L1050.62 409.395L1013.38 399.728L973.729 400.96L950 410.357L966.087 421.597Z" fill="white"/>
<path d="M988.616 423.827L993.437 417.766L984.946 423.77L988.616 423.827Z" fill="#9BD6EA"/>
<path d="M1038.69 422.752L1039.04 434.242L1050.98 420.885L1050.62 409.395L1038.69 422.752Z" fill="#E6F5FA"/>
<path d="M1026.43 425.921L1026.79 437.411L1039.04 434.242L1038.69 422.752L1026.43 425.921Z" fill="#BBE4F1"/>
<path d="M1018.76 423.371L1019.11 434.862L1026.79 437.411L1026.43 425.921L1018.76 423.371Z" fill="#9BD6EA"/>
<path d="M966.087 421.597L966.444 433.087L1000.28 436.438L999.924 424.947L966.087 421.597Z" fill="#BBE4F1"/>
<path d="M984.946 423.77L985.241 432.503L988.616 423.827L984.946 423.77Z" fill="#9BD6EA"/>
<path d="M950 410.357L950.357 421.847L966.444 433.087L966.087 421.597L950 410.357Z" fill="#9BD6EA"/>
<path d="M1000.02 416.706C1019.91 416.706 1036.03 414.651 1036.03 412.116C1036.03 409.581 1019.91 407.525 1000.02 407.525C980.125 407.525 964 409.581 964 412.116C964 414.651 980.125 416.706 1000.02 416.706Z" fill="#BAD2F1"/>
<g style="mix-blend-mode:luminosity" filter="url(#filter4_f_847_348)">
<path d="M1082.8 377.062L1083.02 384.38L1095.02 383.377L1094.79 376.058L1082.8 377.062Z" fill="#E6F5FA"/>
<path d="M1061.25 374.928L1082.8 377.062L1094.79 376.058L1099.68 377.682L1107.48 375.664L1115.08 367.157L1091.36 361L1066.11 361.785L1051 367.77L1061.25 374.928Z" fill="white"/>
<path d="M1075.59 376.348L1078.66 372.488L1073.26 376.312L1075.59 376.348Z" fill="#9BD6EA"/>
<path d="M1107.48 375.664L1107.71 382.982L1115.31 374.475L1115.08 367.157L1107.48 375.664Z" fill="#E6F5FA"/>
<path d="M1099.68 377.682L1099.91 385L1107.71 382.982L1107.48 375.664L1099.68 377.682Z" fill="#BBE4F1"/>
<path d="M1094.79 376.058L1095.02 383.377L1099.91 385L1099.68 377.682L1094.79 376.058Z" fill="#9BD6EA"/>
<path d="M1061.25 374.928L1061.47 382.246L1083.02 384.38L1082.8 377.062L1061.25 374.928Z" fill="#BBE4F1"/>
<path d="M1073.26 376.312L1073.44 381.874L1075.59 376.348L1073.26 376.312Z" fill="#9BD6EA"/>
<path d="M1051 367.77L1051.23 375.087L1061.47 382.246L1061.25 374.928L1051 367.77Z" fill="#9BD6EA"/>
</g>
<path d="M1082.8 370.062L1083.02 377.38L1095.02 376.377L1094.79 369.058L1082.8 370.062Z" fill="#E6F5FA"/>
<path d="M1061.25 367.928L1082.8 370.062L1094.79 369.058L1099.68 370.682L1107.48 368.664L1115.08 360.157L1091.36 354L1066.11 354.785L1051 360.77L1061.25 367.928Z" fill="white"/>
<path d="M1075.59 369.348L1078.66 365.488L1073.26 369.312L1075.59 369.348Z" fill="#9BD6EA"/>
<path d="M1107.48 368.664L1107.71 375.982L1115.31 367.475L1115.08 360.157L1107.48 368.664Z" fill="#E6F5FA"/>
<path d="M1099.68 370.682L1099.91 378L1107.71 375.982L1107.48 368.664L1099.68 370.682Z" fill="#BBE4F1"/>
<path d="M1094.79 369.058L1095.02 376.377L1099.91 378L1099.68 370.682L1094.79 369.058Z" fill="#9BD6EA"/>
<path d="M1061.25 367.928L1061.47 375.246L1083.02 377.38L1082.8 370.062L1061.25 367.928Z" fill="#BBE4F1"/>
<path d="M1073.26 369.312L1073.44 374.874L1075.59 369.348L1073.26 369.312Z" fill="#9BD6EA"/>
<path d="M1051 360.77L1051.23 368.087L1061.47 375.246L1061.25 367.928L1051 360.77Z" fill="#9BD6EA"/>
<path d="M1206 346.177L1231.64 275.788L1260.98 283.176L1287.71 235.586L1293.14 241.67L1277.5 346.177H1206Z" fill="#BDD2ED"/>
<path d="M1238.16 309.253L1222.95 346.177H1269.46L1257.72 322.074L1238.16 309.253Z" fill="#A4BDDE"/>
<path d="M1293.14 241.67L1332.69 276.222L1282.68 311.573L1293.14 241.67Z" fill="white"/>
<path d="M1365.29 303.386L1332.69 276.222L1282.68 311.574C1282.68 311.574 1277.75 344.464 1277.5 346.178H1361.59L1365.29 303.386Z" fill="#A4BDDE"/>
<path d="M1540.87 296.649L1565.21 346.177H1361.59L1365.29 303.386L1413.31 305.124L1433.52 333.809L1516.97 296.649L1526.53 303.386L1540.87 296.649Z" fill="#BDD2ED"/>
<path d="M1344.23 285.84L1342.25 304.037L1355.15 294.939L1344.23 285.84Z" fill="#BDD2ED"/>
<path d="M1413.31 305.124L1516.97 296.649L1433.52 333.809L1413.31 305.124Z" fill="#BDD2ED"/>
<path d="M1526.53 303.386L1507.84 327.29L1516.97 296.649L1526.53 303.386Z" fill="#A4BDDE"/>
<path d="M1496.14 298.352L1507.84 327.29L1516.97 296.649L1496.14 298.352Z" fill="white"/>
<path d="M1448.98 302.207L1433.52 333.809L1413.31 305.124L1448.98 302.207Z" fill="white"/>
<path d="M1565.21 253.839L1540.87 296.649L1565.21 346.177H1583.68L1585.42 281.655L1565.21 253.839Z" fill="#A4BDDE"/>
<path d="M1651.7 296.649L1585.42 281.655L1583.68 346.177H1645.83L1651.7 296.649Z" fill="#BDD2ED"/>
<path d="M1680.6 278.612L1651.7 296.649L1645.83 346.177H1680.6V278.612Z" fill="#A4BDDE"/>
<path d="M1699.07 346.177L1680.6 278.612V346.177H1699.07Z" fill="#BDD2ED"/>
<path d="M1611.72 312.395L1606.07 346.177H1617.69L1611.72 312.395Z" fill="#A4BDDE"/>
<path d="M1415.49 211.572L1287.71 235.586L1293.14 241.67L1332.69 276.222L1365.29 303.386L1413.31 305.124L1516.97 296.649L1526.53 303.386L1540.87 296.649L1565.21 253.839L1585.42 281.655L1651.7 296.649L1680.6 278.612L1673.97 261.771L1627.69 211.572L1590.53 186.148L1552.39 119L1481.33 253.839L1456.56 216.463L1414.83 253.839L1415.49 211.572Z" fill="white"/>
<path d="M1460.47 213.365L1456.56 216.463L1481.33 253.839L1486.22 244.57L1480.84 231.945L1460.47 213.365Z" fill="#D4E3FA"/>
<path d="M1421.35 209.78L1415.49 211.572L1414.83 253.839L1440.85 230.535L1427.84 220.048L1421.35 209.78Z" fill="#D4E3FA"/>
<path d="M1552.39 119L1609.11 164.743L1641.49 208.204L1673.97 261.771L1627.69 211.572L1590.53 186.148L1552.39 119Z" fill="#D4E3FA"/>
<path d="M1540.87 192.596L1516.97 246.156L1535.32 230.131L1540.87 192.596Z" fill="#D4E3FA"/>
<path d="M1516.97 246.156L1536.84 267.414L1535.32 230.131L1516.97 246.156Z" fill="#BDD2ED"/>
<path d="M1629.34 213.365L1641.49 208.204L1673.97 261.771L1629.34 213.365Z" fill="#BDD2ED"/>
<path d="M1480.84 231.945L1472.56 240.608L1481.33 253.839L1486.22 244.57L1480.84 231.945Z" fill="#BDD2ED"/>
<path d="M383 337.211L400.287 284.517L431.471 310.532L428.421 337.211H383Z" fill="#BDD2ED"/>
<path d="M452.699 307.99L431.471 310.532L428.421 337.211H443.928L452.699 307.99Z" fill="#A4BDDE"/>
<path d="M477.994 337.211L452.699 307.99L443.928 337.211H477.994Z" fill="#BDD2ED"/>
<path d="M503.501 295.194L498.077 337.211H519.093L538.244 273.162L503.501 295.194Z" fill="#BDD2ED"/>
<path d="M554.345 302.143L543.837 287.907L538.244 273.162L519.093 337.211H534.176L554.345 302.143Z" fill="#A4BDDE"/>
<path d="M594.003 320.108L554.345 302.143L534.176 337.211H598.41L594.003 320.108Z" fill="#BDD2ED"/>
<path d="M564.259 318.498L556.887 337.211H567.395L564.259 318.498Z" fill="#A4BDDE"/>
<path d="M400.287 284.517L428.421 278.755L483.841 232.614V158L528.075 197.658L531.634 215.708L542.566 222.826L558.327 257.909V266.552L594.003 320.108L554.345 302.143L543.837 287.907L538.244 273.162L503.501 295.194L498.077 337.211H477.994L452.699 307.99L431.471 310.532L400.287 284.517Z" fill="white"/>
<path d="M443.928 229.436L428.421 278.755L483.841 232.614V158L443.928 229.436Z" fill="#D4E3FA"/>
<path d="M528.075 197.658L547.65 215.708L558.327 257.909L542.566 222.826L531.634 215.708L528.075 197.658Z" fill="#D4E3FA"/>
<path d="M516.635 237.825L506.721 218.377L509.063 234.728L492.357 243.545L509.928 240.765L513.33 264.518L516.635 237.825Z" fill="#D4E3FA"/>
<path d="M492.357 243.545L509.928 240.765L513.33 264.518L492.357 243.545Z" fill="#BDD2ED"/>
<path d="M547.65 215.708L542.566 222.826L558.327 257.909L547.65 215.708Z" fill="#BDD2ED"/>
<path d="M443.928 229.436L483.841 232.614L428.421 278.755L443.928 229.436Z" fill="#BDD2ED"/>
<path d="M554.185 299.688L582.404 324.856L587.234 336.804H543L554.185 299.688Z" fill="#BDD2ED"/>
<path d="M603.504 282.655L597.403 336.804H605.029L611.131 299.688L603.504 282.655Z" fill="#BDD2ED"/>
<path d="M618.757 304.137L611.131 299.688L605.029 336.804H608.461L618.757 304.137Z" fill="#A4BDDE"/>
<path d="M621.808 336.804L655.365 290.027L656.721 336.804H621.808Z" fill="#BDD2ED"/>
<path d="M666.043 336.804L667.568 294.773L655.365 290.027L656.721 336.804H666.043Z" fill="#A4BDDE"/>
<path d="M693.329 289.349L688.075 336.804H666.043L667.568 294.773L693.329 289.349Z" fill="#BDD2ED"/>
<path d="M728.75 312.229L701.972 336.804H688.075L693.329 289.349L728.75 312.229Z" fill="#A4BDDE"/>
<path d="M733.835 336.804L728.75 312.229L701.972 336.804H733.835Z" fill="#BDD2ED"/>
<path d="M554.185 299.688L582.404 324.856L587.234 336.804H597.403L603.504 282.655L611.131 299.688L618.757 304.137L608.461 336.804H621.808L655.365 290.027L667.568 294.773L693.329 289.349L728.75 312.229L733.835 336.804H774.849L749.596 279.35L713.158 225.964L690.448 256.131L676.55 207.999L635.705 191.898L611.893 200.711L607.741 235.624L586.217 188L551.135 233.59L568.252 261.216L570.625 289.349L554.185 299.688Z" fill="white"/>
<path d="M676.55 207.999L694.685 214.27L713.158 225.964L690.448 256.131L676.55 207.999Z" fill="#D4E3FA"/>
<path d="M586.217 188L611.893 200.711L607.741 235.624L586.217 188Z" fill="#D4E3FA"/>
<path d="M551.135 233.59L566.807 291.75L570.625 289.349L568.252 261.216L551.135 233.59Z" fill="#BDD2ED"/>
<path d="M690.448 256.131L705.445 266.134L713.158 225.964L690.448 256.131Z" fill="#BDD2ED"/>
<path d="M639.265 221.299V243.189L621.808 257.694L651.115 254.267L639.265 221.299Z" fill="#D4E3FA"/>
<path d="M621.808 257.694L636.462 268.771L651.115 254.267L621.808 257.694Z" fill="#BDD2ED"/>
<path d="M785.148 310L756.606 353.412L752.253 389.568L730 401.913H843.198L824.331 385.465L811.27 360.794L805.465 323.545L785.148 310Z" fill="white"/>
<path d="M785.148 310L789.261 327.899L776.684 346.76L780.554 355.956L773.781 378.209L786.599 401.913L761.204 401.916L752.253 389.568L756.606 353.412L785.148 310Z" fill="#9BD6EA"/>
<path d="M789.261 327.899L784.424 346.76L786.843 355.958L773.781 378.209L780.554 355.956L776.684 346.76L789.261 327.899Z" fill="#BBE4F1"/>
<path d="M756.606 353.412L759.753 387.4L776.684 401.913L761.204 401.916L752.253 389.568L756.606 353.412Z" fill="#BBE4F1"/>
<path d="M805.465 323.545L795.066 327.899H803.774L810.869 358.22L805.465 323.545Z" fill="#E6F5FA"/>
<path d="M811.27 360.794L818.125 378.854L819.254 387.4L811.997 401.913L824.331 385.465L811.27 360.794Z" fill="#E6F5FA"/>
<path d="M786.599 401.913L811.27 360.794L797.485 389.819L808.128 390.303L811.998 401.913H786.599Z" fill="#BBE4F1"/>
<path d="M797.42 383.878L811.27 360.794L808.128 351.355L804.801 360.794L798.734 342.895L797.42 383.878Z" fill="#E6F5FA"/>
<g style="mix-blend-mode:luminosity" opacity="0.5" filter="url(#filter5_f_847_348)">
<path d="M785.148 489L756.606 447.91L752.253 413.688L730 402.003H843.198L824.331 417.571L811.27 440.923L805.465 476.179L785.148 489Z" fill="white"/>
<path d="M785.148 489L789.261 472.058L776.684 454.206L780.554 445.502L773.781 424.439L786.599 402.003L761.204 402L752.253 413.688L756.606 447.91L785.148 489Z" fill="#9BD6EA"/>
<path d="M789.261 472.058L784.424 454.206L786.843 445.5L773.781 424.439L780.554 445.502L776.684 454.206L789.261 472.058Z" fill="#BBE4F1"/>
<path d="M756.606 447.91L759.753 415.74L776.684 402.003L761.204 402L752.253 413.688L756.606 447.91Z" fill="#BBE4F1"/>
<path d="M805.465 476.179L795.066 472.058H803.774L810.869 443.359L805.465 476.179Z" fill="#E6F5FA"/>
<path d="M811.27 440.923L818.125 423.829L819.254 415.74L811.997 402.003L824.331 417.571L811.27 440.923Z" fill="#E6F5FA"/>
<path d="M786.599 402.003L811.27 440.923L797.485 413.45L808.128 412.992L811.998 402.003H786.599Z" fill="#BBE4F1"/>
<path d="M797.42 419.073L811.27 440.923L808.128 449.857L804.801 440.923L798.734 457.864L797.42 419.073Z" fill="#E6F5FA"/>
</g>
<path d="M1265.8 458.392H1114L1135.26 441.268L1159.48 432.701L1187.83 407L1204.37 422.958H1212.05L1226.22 434.769H1235.08L1246.9 452.785L1252.22 447.168L1265.8 458.392Z" fill="white"/>
<path d="M1215.42 458.392H1114L1135.26 441.268L1159.48 432.701L1187.83 407L1196.52 429.266L1209.12 432.208L1215.42 458.392Z" fill="#9BD6EA"/>
<path d="M1164.71 436.896L1171.98 458.394H1127.07L1114 458.392L1135.26 441.268L1164.71 436.896Z" fill="#BBE4F1"/>
<path d="M1159.48 432.701L1164.71 436.896L1135.26 441.268L1159.48 432.701Z" fill="#E6F5FA"/>
<path d="M1235.08 434.769L1237.51 458.394H1245.71L1246.9 452.785L1235.08 434.769Z" fill="#E6F5FA"/>
<path d="M1164.71 436.896L1174.96 453.094H1181.27L1177.2 444.995L1189.9 458.394H1171.98L1164.71 436.896Z" fill="#BBE4F1"/>
<path d="M1187.83 407L1182.59 426.347L1164.71 436.896L1159.48 432.701L1187.83 407Z" fill="#BBE4F1"/>
<path d="M1252.22 447.168L1259.18 458.394L1265.8 458.392L1252.22 447.168Z" fill="#E6F5FA"/>
<path d="M1226.22 434.769V458.394L1212.05 422.958L1226.22 434.769Z" fill="#E6F5FA"/>
<path d="M1196.52 429.266L1205.97 458.392H1215.42L1209.12 432.208L1196.52 429.266Z" fill="#BBE4F1"/>
<path d="M1135.26 441.268L1142.99 452.781H1147.77L1161.04 458.394L1114 458.392L1135.26 441.268Z" fill="#9BD6EA"/>
<path d="M1182.59 426.347L1187.83 446.582L1178.94 432.212L1173.65 434.769L1177.2 440.676L1164.71 436.896L1182.59 426.347Z" fill="#BBE4F1"/>
<g style="mix-blend-mode:luminosity" opacity="0.7" filter="url(#filter6_f_847_348)">
<path d="M1265.8 458.001H1114L1135.26 468.33L1159.48 473.498L1187.83 489L1204.37 479.374H1212.05L1226.22 472.25H1235.08L1246.9 461.383L1252.22 464.771L1265.8 458.001Z" fill="white"/>
<path d="M1215.42 458.001H1114L1135.26 468.33L1159.48 473.498L1187.83 489L1196.52 475.57L1209.12 473.795L1215.42 458.001Z" fill="#9BD6EA"/>
<path d="M1164.71 470.967L1171.98 458H1127.07L1114 458.001L1135.26 468.33L1164.71 470.967Z" fill="#BBE4F1"/>
<path d="M1159.48 473.498L1164.71 470.967L1135.26 468.33L1159.48 473.498Z" fill="#E6F5FA"/>
<path d="M1235.08 472.25L1237.51 458H1245.71L1246.9 461.383L1235.08 472.25Z" fill="#E6F5FA"/>
<path d="M1164.71 470.967L1174.96 461.197H1181.27L1177.2 466.082L1189.9 458H1171.98L1164.71 470.967Z" fill="#BBE4F1"/>
<path d="M1187.83 489L1182.59 477.33L1164.71 470.967L1159.48 473.498L1187.83 489Z" fill="#BBE4F1"/>
<path d="M1252.22 464.771L1259.18 458L1265.8 458.001L1252.22 464.771Z" fill="#E6F5FA"/>
<path d="M1226.22 472.25V458L1212.05 479.374L1226.22 472.25Z" fill="#E6F5FA"/>
<path d="M1196.52 475.57L1205.97 458.001H1215.42L1209.12 473.795L1196.52 475.57Z" fill="#BBE4F1"/>
<path d="M1135.26 468.33L1142.99 461.386H1147.77L1161.04 458L1114 458.001L1135.26 468.33Z" fill="#9BD6EA"/>
<path d="M1182.59 477.33L1187.83 465.125L1178.94 473.793L1173.65 472.25L1177.2 468.687L1164.71 470.967L1182.59 477.33Z" fill="#BBE4F1"/>
</g>
<path opacity="0.05" d="M1226 121C1253.61 121 1276 98.6142 1276 71C1276 43.3858 1253.61 21 1226 21C1198.39 21 1176 43.3858 1176 71C1176 98.6142 1198.39 121 1226 121Z" fill="black"/>
<path opacity="0.05" d="M1162 168C1179.67 168 1194 153.673 1194 136C1194 118.327 1179.67 104 1162 104C1144.33 104 1130 118.327 1130 136C1130 153.673 1144.33 168 1162 168Z" fill="black"/>
<path opacity="0.05" d="M1123 191C1131.84 191 1139 183.837 1139 175C1139 166.163 1131.84 159 1123 159C1114.16 159 1107 166.163 1107 175C1107 183.837 1114.16 191 1123 191Z" fill="black"/>
<path opacity="0.05" d="M1290 16C1294.42 16 1298 12.4183 1298 8C1298 3.58172 1294.42 0 1290 0C1285.58 0 1282 3.58172 1282 8C1282 12.4183 1285.58 16 1290 16Z" fill="black"/>
<path d="M1226 103C1243.67 103 1258 88.6731 1258 71C1258 53.3269 1243.67 39 1226 39C1208.33 39 1194 53.3269 1194 71C1194 88.6731 1208.33 103 1226 103Z" fill="#F7E7FF"/>
<path d="M988.377 376.181C988.377 376.181 983.435 376.112 982.623 373.362C981.812 370.612 982.214 366.643 982.153 364.14C982.089 361.482 981.447 355.193 974.881 357.017C968.316 358.84 970.425 367.665 971.69 373.082C973.499 380.826 978.883 384.583 986.775 383.839L988.377 376.181Z" fill="#F5F5F5"/>
<path d="M973.816 361.837C973.77 362.66 973.375 363.313 972.933 363.296C972.491 363.278 972.17 362.597 972.215 361.775C972.261 360.952 972.656 360.299 973.098 360.316C973.54 360.333 973.861 361.014 973.816 361.837Z" fill="#D5E1FF"/>
<path d="M976.485 360.556C976.43 361.562 975.923 362.36 975.355 362.337C974.786 362.315 974.37 361.481 974.426 360.475C974.481 359.469 974.988 358.672 975.556 358.694C976.125 358.716 976.541 359.55 976.485 360.556Z" fill="#D5E1FF"/>
<path d="M978.972 361.1C978.924 361.974 978.485 362.666 977.991 362.647C977.498 362.628 977.137 361.904 977.185 361.03C977.233 360.157 977.673 359.464 978.166 359.483C978.659 359.502 979.021 360.227 978.972 361.1Z" fill="#D5E1FF"/>
<path d="M978.953 366.546C979.136 368.458 977.859 370.144 976.102 370.312C974.345 370.479 972.772 369.066 972.59 367.154C972.407 365.242 973.684 363.556 975.441 363.388C977.198 363.22 978.771 364.634 978.953 366.546Z" fill="#D5E1FF"/>
<path d="M1006.94 346.804C1006.94 346.804 1009.13 338.233 1016.15 340.33C1026.28 343.356 1020.16 353.096 1015.61 353.552C1009.72 354.14 1006.94 346.804 1006.94 346.804Z" fill="white"/>
<path d="M1009.79 347.078C1009.79 347.078 1011.19 342.093 1015.2 343.978C1019.21 345.862 1016.42 351.819 1013.98 351.88C1011.55 351.941 1009.79 347.078 1009.79 347.078Z" fill="#D5E1FF"/>
<path d="M997.03 346.804C997.03 346.804 994.842 338.233 987.821 340.33C977.691 343.356 983.809 353.096 988.368 353.552C994.254 354.14 997.03 346.804 997.03 346.804Z" fill="white"/>
<path d="M993.393 347.078C993.393 347.078 991.995 342.093 987.983 343.978C983.971 345.862 986.767 351.819 989.199 351.88C991.63 351.941 993.393 347.078 993.393 347.078Z" fill="#D5E1FF"/>
<path d="M991.752 395.569C991.752 395.569 984.223 397.097 982.481 395.863C982.481 395.863 981.96 389.204 976.762 388.931C972.298 388.696 969.756 391.238 969.296 399.811C968.836 408.383 970.799 411.569 977.691 411.947C984.585 412.324 993.553 409.962 993.553 409.962L991.752 395.569Z" fill="#F5F5F5"/>
<path d="M1025.91 393.034C1025.91 393.034 1015.41 398.191 1013.67 396.957C1013.67 396.957 1013.14 390.298 1007.95 390.025C1003.48 389.79 1000.94 392.332 1000.48 400.905C1000.02 409.477 1001.98 412.663 1008.88 413.041C1015.77 413.418 1022.99 412 1022.99 412C1030.83 409.447 1032.84 398.414 1025.91 393.034Z" fill="#F5F5F5"/>
<path d="M984.695 359.57C984.695 359.57 984.695 346.531 995.91 343.431C1006.03 340.633 1018.61 347.351 1017.16 361.394C1016.4 368.686 1013.42 376.712 1021.99 386.104C1030.56 395.496 1024.54 405.617 1021.44 409.447C1018.34 413.276 994.816 415.738 987.886 408.079C980.956 400.42 988.468 371.722 986.245 367.594C984.33 364.038 984.695 359.57 984.695 359.57Z" fill="white"/>
<path d="M997.07 398.337C997.756 396.054 997.927 393.647 998.724 391.393C999.399 389.49 1000.55 387.977 1002.06 386.647C1003.77 385.131 1005.76 383.822 1007.87 382.79C1007.47 380.845 1006.85 379.144 1005.99 377.943C1002.19 372.7 992.811 375.268 992.811 375.268C992.811 375.268 992.811 378.239 989.677 386.012C987.996 390.181 986.229 402.216 993.068 405.271C994.197 403.824 996.27 400.998 997.07 398.337Z" fill="#D5E1FF"/>
<path d="M984.756 396.689C984.397 401.757 986.6 406.873 990.53 410.094C990.657 410.198 990.841 410.017 990.713 409.911C986.83 406.729 984.66 401.697 985.014 396.689C985.025 396.524 984.767 396.525 984.756 396.689Z" fill="#CCCCCC"/>
<path d="M997.948 394.018L994.01 405.106C994.01 405.106 989.561 405.922 987.055 408.726C985.506 410.458 985.934 413.423 987.428 414.243C988.922 415.064 998.653 414.517 1000.44 414.243C1002.24 413.97 1001.55 410.784 1001.55 410.784L997.948 394.018Z" fill="white"/>
<path d="M994.016 402.313C994.239 403.567 993.656 404.824 992.559 405.466C991.594 406.031 990.449 406.167 989.453 406.664C987.672 407.553 986.492 409.417 986.377 411.393C986.368 411.559 986.626 411.558 986.635 411.393C986.702 410.237 987.146 409.129 987.887 408.24C988.669 407.302 989.673 406.781 990.82 406.417C991.816 406.101 992.874 405.792 993.567 404.956C994.194 404.199 994.436 403.208 994.265 402.245C994.236 402.081 993.987 402.151 994.016 402.313Z" fill="#CCCCCC"/>
<path d="M992.777 405.67C994.169 406.084 995.297 407.073 995.9 408.392C995.968 408.543 996.191 408.412 996.122 408.261C995.493 406.885 994.295 405.852 992.845 405.421C992.686 405.374 992.618 405.623 992.777 405.67Z" fill="#CCCCCC"/>
<path d="M1001.28 365.09C999.577 367.17 996.823 367.215 995.05 365.193C992.804 362.629 990.248 359.4 990.614 358.339C991.037 357.113 993.629 356.211 995.332 355.741C996.209 355.499 997.105 355.37 998.006 355.355C998.906 355.34 999.806 355.439 1000.69 355.652C1002.41 356.066 1005.03 356.882 1005.49 358.093C1005.89 359.142 1003.44 362.454 1001.28 365.09Z" fill="#D5E1FF"/>
<path d="M1003.97 395.845C1003.82 396.837 1003.3 397.583 1002.8 397.511C1002.29 397.438 1002 396.576 1002.14 395.584C1002.28 394.592 1002.81 393.847 1003.31 393.919C1003.81 393.991 1004.11 394.853 1003.97 395.845Z" fill="#D5E1FF"/>
<path d="M1007.16 394.602C1006.99 395.814 1006.32 396.723 1005.67 396.63C1005.02 396.537 1004.64 395.479 1004.81 394.266C1004.99 393.053 1005.65 392.145 1006.3 392.238C1006.95 392.331 1007.33 393.388 1007.16 394.602Z" fill="#D5E1FF"/>
<path d="M1009.95 395.549C1009.8 396.602 1009.22 397.391 1008.65 397.31C1008.09 397.23 1007.76 396.311 1007.91 395.257C1008.06 394.204 1008.64 393.416 1009.2 393.496C1009.76 393.577 1010.1 394.496 1009.95 395.549Z" fill="#D5E1FF"/>
<path d="M1005.65 408.673C1007.68 408.673 1009.33 406.264 1009.33 403.293C1009.33 400.322 1007.68 397.913 1005.65 397.913C1003.63 397.913 1001.98 400.322 1001.98 403.293C1001.98 406.264 1003.63 408.673 1005.65 408.673Z" fill="#D5E1FF"/>
<path d="M1005.97 412.535C1002.52 411.722 1000.61 408.207 1000.24 404.91C1000.01 402.834 1000.24 400.739 1000.55 398.684C1000.8 397.014 1001.04 395.314 1001.63 393.723C1002.2 392.182 1003.17 390.754 1004.69 390.02C1006.33 389.222 1008.34 389.314 1009.92 390.214C1011.42 391.067 1012.43 392.496 1012.93 394.128C1013.34 395.493 1013.8 396.961 1015.47 397.054C1017.23 397.153 1019.03 396.173 1020.38 395.145C1021.13 394.572 1021.82 393.953 1022.68 393.54C1023.63 393.086 1024.72 392.826 1025.74 393.159C1025.9 393.211 1025.97 392.962 1025.81 392.91C1024.25 392.402 1022.51 393.153 1021.27 394.104C1020.55 394.659 1019.87 395.25 1019.09 395.714C1018.3 396.177 1017.44 396.509 1016.55 396.695C1015.5 396.914 1014.42 396.798 1013.83 395.807C1013.39 395.073 1013.26 394.199 1012.96 393.409C1012.38 391.907 1011.26 390.608 1009.83 389.87C1008.33 389.101 1006.52 389.004 1004.95 389.622C1003.44 390.221 1002.35 391.468 1001.68 392.925C1000.98 394.463 1000.68 396.149 1000.42 397.808C1000.09 399.912 999.787 402.048 999.919 404.184C1000.14 407.828 1002.04 411.876 1005.9 412.784C1006.06 412.822 1006.13 412.573 1005.97 412.535Z" fill="#CCCCCC"/>
<path d="M1017.52 374.848C1017.49 374.965 1017.45 375.077 1017.42 375.186C1017.09 376.229 1016.69 376.894 1016.69 376.894C1004.21 384.736 986.154 377.989 986.154 377.989C985.98 377.121 985.871 376.288 985.811 375.502C985.803 375.402 985.796 375.303 985.79 375.205C985.739 374.402 985.738 373.651 985.769 372.963C985.774 372.863 985.779 372.764 985.785 372.667C985.838 371.775 985.944 370.997 986.059 370.363C986.077 370.264 986.095 370.169 986.113 370.078C986.315 369.061 986.525 368.482 986.525 368.482C997.004 374.524 1016.7 368.506 1016.7 368.506C1016.86 368.745 1017 368.986 1017.13 369.227C1017.17 369.311 1017.21 369.394 1017.25 369.478C1017.58 370.206 1017.76 370.939 1017.83 371.645C1017.84 371.741 1017.85 371.835 1017.86 371.929C1017.93 373.014 1017.75 374.025 1017.52 374.848Z" fill="#191970"/>
<path d="M993.701 402.142C993.588 403.509 993.845 404.837 994.4 406.088C994.613 406.569 995.32 406.153 995.108 405.674C994.613 404.557 994.421 403.358 994.521 402.142C994.565 401.615 993.745 401.618 993.701 402.142Z" fill="#292C93"/>
<path d="M995.774 402.372C995.64 403.788 995.926 405.172 996.548 406.445C996.78 406.92 997.487 406.504 997.256 406.031C996.696 404.884 996.474 403.642 996.594 402.372C996.644 401.847 995.823 401.85 995.774 402.372Z" fill="#292C93"/>
<path d="M998.038 402.644C997.912 404.02 998.196 405.364 998.807 406.599C999.041 407.073 999.749 406.657 999.515 406.185C998.967 405.076 998.746 403.875 998.858 402.644C998.907 402.118 998.086 402.121 998.038 402.644Z" fill="#292C93"/>
<path d="M1000.44 402.461C1000.32 403.957 1000.61 405.415 1001.22 406.779C1001.44 407.259 1002.15 406.842 1001.93 406.364C1001.38 405.133 1001.15 403.806 1001.26 402.461C1001.31 401.935 1000.49 401.937 1000.44 402.461Z" fill="#292C93"/>
<path d="M1002.76 402.825C1002.69 404.145 1002.92 405.449 1003.42 406.673C1003.61 407.156 1004.41 406.945 1004.21 406.455C1003.74 405.292 1003.52 404.08 1003.58 402.825C1003.6 402.297 1002.78 402.299 1002.76 402.825Z" fill="#292C93"/>
<path d="M1012.99 382.57V382.571C1012.97 382.683 1012.95 382.794 1012.92 382.904C1012.54 384.685 1011.81 386.228 1010.79 387.652C1010.73 387.732 1010.67 387.811 1010.61 387.89C1009.96 388.772 1009.19 389.609 1008.33 390.432C1008.26 390.498 1008.19 390.564 1008.11 390.63C1007.74 390.977 1007.35 391.322 1006.94 391.666C1006.93 391.682 1006.91 391.697 1006.89 391.713C1006.82 391.773 1006.75 391.835 1006.68 391.898C1004.62 393.845 1003.98 396.974 1003.87 399.652C1003.87 399.781 1003.87 399.91 1003.86 400.037C1003.84 400.825 1003.87 401.565 1003.91 402.213C1003.92 402.405 1003.94 402.589 1003.95 402.763C1004.06 403.942 1004.21 404.705 1004.21 404.705L999.867 404.275L999.596 404.247L992.972 403.591L992.821 403.575C992.794 403.487 992.769 403.398 992.746 403.309C992.183 401.204 992.365 399.045 993.016 396.943C993.047 396.842 993.08 396.739 993.114 396.638C993.384 395.823 993.723 395.017 994.116 394.227C994.158 394.143 994.2 394.059 994.243 393.976C995.52 391.483 997.311 389.155 999.102 387.198C1000.37 385.808 1001.18 384.274 1001.66 382.723C1001.7 382.595 1001.74 382.469 1001.77 382.341C1001.95 381.71 1002.07 381.078 1002.15 380.452C1002.17 380.299 1002.19 380.146 1002.2 379.995C1002.66 375.307 1000.83 371.15 1000.83 371.15C1002.03 370.615 1003.26 370.235 1004.53 369.99C1004.62 369.973 1004.71 369.957 1004.8 369.941C1006 369.728 1007.22 369.634 1008.48 369.644C1008.57 369.644 1008.66 369.646 1008.75 369.648C1009.58 369.663 1010.43 369.723 1011.29 369.825C1013.14 375.312 1013.61 379.334 1012.99 382.57Z" fill="#191970"/>
<path d="M973.181 395.898C973.039 396.89 972.515 397.636 972.012 397.564C971.508 397.491 971.214 396.629 971.356 395.637C971.498 394.645 972.021 393.9 972.525 393.972C973.029 394.044 973.322 394.906 973.181 395.898Z" fill="#D5E1FF"/>
<path d="M976.374 394.654C976.201 395.867 975.534 396.776 974.886 396.683C974.238 396.59 973.854 395.531 974.027 394.319C974.2 393.106 974.866 392.197 975.515 392.29C976.163 392.383 976.548 393.441 976.374 394.654Z" fill="#D5E1FF"/>
<path d="M979.161 395.602C979.01 396.655 978.432 397.444 977.869 397.363C977.306 397.283 976.972 396.364 977.123 395.31C977.274 394.257 977.852 393.469 978.415 393.549C978.977 393.63 979.312 394.549 979.161 395.602Z" fill="#D5E1FF"/>
<path d="M974.871 408.726C976.9 408.726 978.544 406.317 978.544 403.346C978.544 400.375 976.9 397.966 974.871 397.966C972.842 397.966 971.197 400.375 971.197 403.346C971.197 406.317 972.842 408.726 974.871 408.726Z" fill="#D5E1FF"/>
<path d="M995.127 356.591C995.127 356.591 996.126 355.986 997.639 355.961C999.152 355.936 1000.09 356.509 1000.09 356.509C1000.09 356.509 998.707 359.559 997.614 359.577C996.656 359.593 995.127 356.591 995.127 356.591Z" fill="#25173C"/>
<path d="M1001.64 355.094C1002.31 354.411 1003.28 354.282 1004.1 354.765C1004.56 355.033 1004.97 354.324 1004.52 354.057C1003.38 353.388 1001.99 353.57 1001.06 354.514C1000.69 354.891 1001.27 355.472 1001.64 355.094Z" fill="#25173C"/>
<path d="M994.43 354.624C993.476 353.715 992.084 353.557 990.964 354.265C990.519 354.546 990.93 355.257 991.378 354.974C992.184 354.464 993.155 354.542 993.85 355.205C994.232 355.569 994.813 354.99 994.43 354.624Z" fill="#25173C"/>
<path d="M997.358 358.067C997.641 359.217 997.033 360.564 995.867 360.93C994.791 361.267 993.276 360.827 992.905 359.674C992.803 359.359 992.305 359.494 992.407 359.811C992.867 361.24 994.639 361.841 996.004 361.427C997.446 360.99 998.204 359.349 997.855 357.93C997.776 357.607 997.278 357.744 997.358 358.067Z" fill="#25173C"/>
<path d="M997.38 357.93C997.068 359.396 997.934 361.003 999.426 361.374C1000.82 361.719 1002.64 361.115 1003.08 359.644C1003.18 359.324 1002.68 359.188 1002.58 359.506C1002.23 360.699 1000.67 361.151 999.563 360.876C998.354 360.576 997.622 359.266 997.878 358.067C997.946 357.743 997.449 357.604 997.38 357.93Z" fill="#25173C"/>
<path d="M985.911 379.036C985.756 380.601 985.6 382.166 985.445 383.731C985.429 383.896 985.687 383.895 985.703 383.731C985.858 382.166 986.014 380.601 986.169 379.036C986.185 378.871 985.927 378.872 985.911 379.036Z" fill="#CCCCCC"/>
<path d="M1000.71 371.184C1001.85 374.239 1002.21 377.453 1001.81 380.687C1001.79 380.852 1002.05 380.85 1002.07 380.687C1002.47 377.431 1002.11 374.191 1000.96 371.116C1000.9 370.962 1000.65 371.028 1000.71 371.184Z" fill="#292C93"/>
<path d="M1011.16 370.096C1012.55 372.751 1013.24 375.63 1013.22 378.628C1013.22 378.794 1013.47 378.794 1013.48 378.628C1013.5 375.586 1012.79 372.661 1011.38 369.966C1011.31 369.818 1011.08 369.948 1011.16 370.096Z" fill="#292C93"/>
<path d="M905.574 361.927H860.437L859 359.488L861.3 345.563L870.625 340.279H882.394L903.492 336L904.641 351.744L907.943 361.209L905.574 361.927Z" fill="white"/>
<path d="M903.492 336L900.12 341.835L888.927 343.412L885.913 341.979L882.969 344.418L872.276 343.412L867.829 348.29L861.3 345.563L870.625 340.279H882.394L903.492 336Z" fill="#BBE4F1"/>
<path d="M888.926 343.412L887.347 353.889L885.912 341.979L888.926 343.412Z" fill="#9BD6EA"/>
<path d="M882.969 344.418L887.347 353.889L885.913 341.979L882.969 344.418Z" fill="#E6F5FA"/>
<path d="M867.829 348.29L867.111 361.927H861.514L861.3 353.889H862.375L861.3 345.563L867.829 348.29Z" fill="#9BD6EA"/>
<path d="M861.3 345.563L862.375 353.889H861.3L861.514 361.927H860.437L859 359.488L861.3 345.563Z" fill="#E6F5FA"/>
<path d="M867.829 348.29L864.564 361.927H862.375L864.564 346.927L867.829 348.29Z" fill="#BBE4F1"/>
<path d="M900.12 341.835L904.641 351.744L905.574 361.927L901.556 351.019L900.12 341.835Z" fill="#E6F5FA"/>
<path d="M895.619 342.469L899.116 361.927H895.619V353.889L896.676 354.427L895.619 342.469Z" fill="#BBE4F1"/>
<path d="M888.926 343.412L892.37 361.927H887.419L887.347 353.889L888.926 343.412Z" fill="#BBE4F1"/>
<path d="M882.395 361.927L880.888 352.355V358.322L877.444 350.591L876.153 359.02L872.708 345.563L874.43 361.927H882.395Z" fill="#E6F5FA"/>
<path d="M870.625 340.279L872.276 343.412L867.829 348.29L866.537 342.596L870.625 340.279Z" fill="#9BD6EA"/>
<path d="M882.394 340.279L885.912 341.979L882.968 344.418L882.394 340.279Z" fill="#9BD6EA"/>
<g style="mix-blend-mode:luminosity" filter="url(#filter7_f_847_348)">
<path d="M905.574 362H860.437L859 364.439L861.3 378.364L870.625 383.648H882.394L903.492 387.927L904.641 372.183L907.943 362.718L905.574 362Z" fill="white"/>
<path d="M903.492 387.927L900.12 382.092L888.927 380.515L885.913 381.948L882.969 379.509L872.276 380.515L867.829 375.637L861.3 378.364L870.625 383.648H882.394L903.492 387.927Z" fill="#BBE4F1"/>
<path d="M888.926 380.515L887.347 370.038L885.912 381.948L888.926 380.515Z" fill="#9BD6EA"/>
<path d="M882.969 379.509L887.347 370.038L885.913 381.948L882.969 379.509Z" fill="#E6F5FA"/>
<path d="M867.829 375.637L867.111 362H861.514L861.3 370.038H862.375L861.3 378.364L867.829 375.637Z" fill="#9BD6EA"/>
<path d="M861.3 378.364L862.375 370.038H861.3L861.514 362H860.437L859 364.439L861.3 378.364Z" fill="#E6F5FA"/>
<path d="M867.829 375.637L864.564 362H862.375L864.564 377L867.829 375.637Z" fill="#BBE4F1"/>
<path d="M900.12 382.092L904.641 372.183L905.574 362L901.556 372.908L900.12 382.092Z" fill="#E6F5FA"/>
<path d="M895.619 381.458L899.116 362H895.619V370.038L896.676 369.5L895.619 381.458Z" fill="#BBE4F1"/>
<path d="M888.926 380.515L892.37 362H887.419L887.347 370.038L888.926 380.515Z" fill="#BBE4F1"/>
<path d="M882.395 362L880.888 371.572V365.605L877.444 373.336L876.153 364.907L872.708 378.364L874.43 362H882.395Z" fill="#E6F5FA"/>
<path d="M870.625 383.648L872.276 380.515L867.829 375.637L866.537 381.331L870.625 383.648Z" fill="#9BD6EA"/>
<path d="M882.394 383.648L885.912 381.948L882.968 379.509L882.394 383.648Z" fill="#9BD6EA"/>
</g>
<path d="M1096.94 364.403C1102.43 364.403 1106.89 363.765 1106.89 362.978C1106.89 362.191 1102.43 361.553 1096.94 361.553C1091.45 361.553 1087 362.191 1087 362.978C1087 363.765 1091.45 364.403 1096.94 364.403Z" fill="#BAD2F1"/>
<path d="M1094.7 362.827C1092.82 363.771 1091.31 364.076 1091.31 364.076C1091.31 364.076 1091.93 363.519 1091.35 363.242C1091.34 363.236 1091.32 363.231 1091.31 363.225C1090.5 362.885 1089.48 363.602 1089.45 363.62C1089.47 363.598 1090.07 362.969 1089.48 362.555C1088.92 362.165 1087.97 362.875 1087.95 362.882C1088.98 361.608 1090.78 360.954 1091.83 360.873C1092.25 360.84 1092.53 360.847 1092.53 360.847C1092.53 360.847 1094.68 361.12 1094.7 361.758C1094.73 362.396 1094.7 362.827 1094.7 362.827Z" fill="#F38350"/>
<path d="M1094.7 362.827C1092.82 363.771 1091.31 364.076 1091.31 364.076C1091.31 364.076 1091.93 363.519 1091.35 363.242C1092.06 363.025 1092.94 362.646 1092.89 362.104C1092.83 361.498 1092.22 361.082 1091.83 360.873C1092.25 360.84 1092.53 360.847 1092.53 360.847C1092.53 360.847 1094.68 361.12 1094.7 361.758C1094.73 362.396 1094.7 362.827 1094.7 362.827Z" fill="#E8563E"/>
<path d="M1099.03 362.827C1100.91 363.771 1102.42 364.076 1102.42 364.076C1102.42 364.076 1101.8 363.519 1102.38 363.242C1102.39 363.236 1102.41 363.231 1102.42 363.225C1103.23 362.885 1104.25 363.602 1104.28 363.62C1104.25 363.598 1103.65 362.969 1104.25 362.555C1104.81 362.165 1105.76 362.875 1105.78 362.882C1104.75 361.608 1102.95 360.954 1101.9 360.873C1101.47 360.84 1101.2 360.847 1101.2 360.847C1101.2 360.847 1099.05 361.12 1099.03 361.758C1099 362.396 1099.03 362.827 1099.03 362.827Z" fill="#F38350"/>
<path d="M1099.03 362.827C1100.91 363.771 1102.42 364.076 1102.42 364.076C1102.42 364.076 1101.8 363.519 1102.38 363.242C1101.67 363.025 1100.79 362.646 1100.84 362.104C1100.9 361.498 1101.51 361.082 1101.9 360.873C1101.47 360.84 1101.2 360.847 1101.2 360.847C1101.2 360.847 1099.05 361.12 1099.03 361.758C1099 362.396 1099.03 362.827 1099.03 362.827Z" fill="#E8563E"/>
<path d="M1096.88 362.705C1092.57 362.748 1088.76 358.798 1089.82 352.566C1090.57 348.225 1092.88 344.803 1094.22 343.126C1094.78 342.425 1095.81 341.998 1096.92 342C1098.03 342.003 1099.06 342.435 1099.62 343.138C1100.95 344.821 1103.25 348.253 1103.97 352.597C1105.01 358.834 1101.18 362.767 1096.88 362.705Z" fill="#25173C"/>
<path d="M1097.15 361.784C1096.97 361.782 1096.79 361.781 1096.61 361.783C1094.5 361.801 1090.94 359.972 1091.07 354.413C1091.07 354.395 1091.07 354.377 1091.07 354.358C1091.07 354.305 1091.07 354.253 1091.08 354.2C1091.2 351.831 1092.81 349.72 1094.63 348.979C1093.41 348.131 1093.08 345.584 1093.85 344.749C1094.83 343.672 1096.89 344.471 1096.89 344.471C1096.89 344.471 1098.99 343.681 1099.97 344.763C1100.72 345.592 1100.38 347.93 1099.41 348.99C1101.27 349.709 1102.6 351.813 1102.72 354.222C1102.72 354.276 1102.72 354.33 1102.72 354.384C1102.72 354.403 1102.72 354.421 1102.72 354.439C1102.82 359.998 1099.26 361.811 1097.15 361.784Z" fill="white"/>
<path d="M1098.03 346.323C1098.24 346.111 1098.54 346.07 1098.8 346.221C1098.94 346.304 1099.07 346.084 1098.93 346.001C1098.57 345.793 1098.14 345.85 1097.85 346.143C1097.74 346.26 1097.92 346.44 1098.03 346.323Z" fill="#25173C"/>
<path d="M1095.8 346.177C1095.5 345.895 1095.07 345.846 1094.72 346.065C1094.58 346.153 1094.71 346.373 1094.85 346.285C1095.1 346.127 1095.4 346.151 1095.62 346.357C1095.73 346.47 1095.91 346.29 1095.8 346.177Z" fill="#25173C"/>
<path d="M1097.15 361.784C1096.97 361.782 1096.79 361.781 1096.61 361.783C1094.5 361.801 1090.94 359.972 1091.07 354.413C1091.07 354.395 1091.07 354.377 1091.07 354.358C1091.07 354.305 1091.07 354.253 1091.08 354.2C1091.21 354.787 1092.71 360.983 1096.84 360.992C1100.98 361.001 1102.58 354.786 1102.72 354.222C1102.72 354.276 1102.72 354.33 1102.72 354.384C1102.72 354.403 1102.72 354.421 1102.72 354.439C1102.82 359.998 1099.26 361.811 1097.15 361.784Z" fill="#25173C"/>
<path d="M1098.35 347.437L1096.88 347.938L1095.41 347.43C1095.49 347.23 1095.6 347.046 1095.72 346.88C1096.19 346.251 1096.88 345.877 1096.88 345.877C1096.88 345.877 1097.6 346.27 1098.07 346.926C1098.18 347.082 1098.28 347.253 1098.35 347.437Z" fill="#F38350"/>
<path d="M1098.35 347.437L1096.88 347.938L1095.41 347.43C1095.49 347.23 1095.6 347.046 1095.72 346.88C1095.95 347.181 1096.36 347.585 1096.88 347.586C1097.38 347.587 1097.81 347.22 1098.07 346.926C1098.18 347.082 1098.28 347.253 1098.35 347.437Z" fill="#E8563E"/>
<path d="M1096.64 346.832C1096.64 346.832 1096.34 347.13 1096.42 347.243C1096.48 347.331 1096.7 347.109 1096.64 346.832Z" fill="#E8563E"/>
<path d="M1097.13 346.833C1097.13 346.833 1097.42 347.132 1097.35 347.245C1097.29 347.333 1097.06 347.11 1097.13 346.833Z" fill="#E8563E"/>
<path d="M1090.14 351.098C1090.14 351.098 1087.96 352.571 1088.67 355.712C1089.22 358.165 1092.29 357.899 1094.06 357.527C1094.5 357.434 1094.6 356.843 1094.21 356.615C1092.81 355.804 1090.61 354.233 1090.8 352.494L1090.14 351.098Z" fill="#25173C"/>
<path d="M1103.61 350.955C1103.61 350.955 1105.83 352.362 1105.22 355.523C1104.74 357.991 1101.66 357.818 1099.88 357.499C1099.44 357.419 1099.32 356.831 1099.71 356.592C1101.08 355.739 1103.24 354.103 1102.99 352.37L1103.61 350.955Z" fill="#25173C"/>
<path d="M1103.17 349.499C1103.17 349.499 1102.79 349.827 1101.92 350.207C1101.87 350.232 1101.81 350.257 1101.75 350.281C1101.28 350.474 1100.7 350.675 1099.98 350.85C1099.92 350.863 1099.87 350.876 1099.81 350.889C1099.21 351.028 1098.51 351.149 1097.72 351.231C1097.7 351.233 1097.68 351.235 1097.66 351.236C1097.61 351.242 1097.56 351.246 1097.51 351.251C1096.83 351.308 1096.18 351.305 1095.56 351.263C1095.52 351.26 1095.47 351.257 1095.43 351.254C1094.92 351.214 1094.43 351.148 1093.98 351.065C1093.94 351.058 1093.9 351.051 1093.86 351.044C1091.84 350.664 1090.47 349.987 1090.47 349.987C1090.47 349.931 1090.47 349.875 1090.48 349.82C1090.48 349.782 1090.49 349.746 1090.49 349.709C1090.65 348.221 1091.56 347.262 1091.56 347.262C1091.56 347.262 1091.94 347.538 1092.8 347.775C1092.83 347.783 1092.86 347.792 1092.89 347.8C1093.52 347.967 1094.4 348.108 1095.54 348.108C1096.03 348.108 1096.49 348.09 1096.92 348.059C1096.96 348.056 1097 348.053 1097.03 348.05C1097.67 348.001 1098.25 347.923 1098.78 347.831C1098.82 347.824 1098.86 347.817 1098.91 347.809C1099.77 347.653 1100.49 347.459 1101.01 347.291C1101.05 347.277 1101.09 347.264 1101.13 347.251C1101.72 347.057 1102.04 346.907 1102.04 346.907C1102.22 347.063 1102.37 347.22 1102.49 347.378C1102.51 347.403 1102.53 347.427 1102.55 347.451C1102.81 347.787 1102.96 348.118 1103.05 348.412C1103.07 348.45 1103.08 348.488 1103.09 348.525C1103.24 349.092 1103.17 349.499 1103.17 349.499Z" fill="#4682B4"/>
<path d="M1098.35 357.802C1098.39 358.226 1098.31 358.638 1098.13 359.026C1098.07 359.176 1097.85 359.046 1097.91 358.898C1098.07 358.551 1098.13 358.179 1098.1 357.801C1098.08 357.638 1098.34 357.639 1098.35 357.802Z" fill="#004C44"/>
<path d="M1097.71 357.873C1097.75 358.312 1097.66 358.742 1097.47 359.138C1097.4 359.285 1097.18 359.156 1097.25 359.009C1097.42 358.653 1097.49 358.267 1097.45 357.873C1097.44 357.71 1097.69 357.711 1097.71 357.873Z" fill="#004C44"/>
<path d="M1097 357.957C1097.04 358.385 1096.96 358.802 1096.77 359.185C1096.69 359.332 1096.47 359.203 1096.55 359.057C1096.72 358.712 1096.78 358.34 1096.75 357.957C1096.73 357.794 1096.99 357.795 1097 357.957Z" fill="#004C44"/>
<path d="M1096.26 357.901C1096.3 358.365 1096.21 358.818 1096.02 359.241C1095.95 359.39 1095.73 359.261 1095.8 359.112C1095.97 358.73 1096.04 358.318 1096 357.901C1095.99 357.737 1096.24 357.738 1096.26 357.901Z" fill="#004C44"/>
<path d="M1095.54 358.014C1095.56 358.423 1095.49 358.828 1095.34 359.208C1095.27 359.358 1095.03 359.292 1095.09 359.14C1095.24 358.779 1095.3 358.403 1095.29 358.014C1095.28 357.85 1095.53 357.85 1095.54 358.014Z" fill="#004C44"/>
<path d="M1092.36 351.726C1092.37 351.761 1092.38 351.796 1092.38 351.83C1092.51 352.383 1092.73 352.862 1093.05 353.304C1093.07 353.329 1093.08 353.353 1093.1 353.378C1093.31 353.652 1093.54 353.911 1093.81 354.167C1093.83 354.187 1093.86 354.208 1093.88 354.228C1093.99 354.336 1094.11 354.443 1094.24 354.55C1094.25 354.555 1094.25 354.56 1094.26 354.565C1094.28 354.583 1094.3 354.602 1094.32 354.622C1094.96 355.226 1095.16 356.198 1095.19 357.029C1095.2 357.069 1095.2 357.109 1095.2 357.148C1095.2 357.393 1095.2 357.622 1095.18 357.824C1095.18 357.883 1095.17 357.94 1095.17 357.994C1095.14 358.36 1095.09 358.597 1095.09 358.597L1096.44 358.464L1096.52 358.455L1098.58 358.251L1098.62 358.246C1098.63 358.219 1098.64 358.191 1098.65 358.164C1098.82 357.511 1098.77 356.84 1098.56 356.188C1098.55 356.156 1098.54 356.125 1098.53 356.093C1098.45 355.84 1098.34 355.59 1098.22 355.345C1098.21 355.318 1098.2 355.292 1098.18 355.267C1097.79 354.493 1097.23 353.77 1096.67 353.163C1096.28 352.731 1096.03 352.255 1095.88 351.774C1095.87 351.734 1095.86 351.695 1095.85 351.655C1095.79 351.459 1095.75 351.263 1095.73 351.069C1095.72 351.021 1095.72 350.974 1095.71 350.927C1095.57 349.472 1096.14 348.182 1096.14 348.182C1095.77 348.016 1095.38 347.898 1094.99 347.822C1094.96 347.816 1094.93 347.811 1094.91 347.806C1094.54 347.74 1094.15 347.711 1093.77 347.714C1093.74 347.714 1093.71 347.715 1093.68 347.715C1093.42 347.72 1093.16 347.739 1092.89 347.771C1092.32 349.474 1092.17 350.722 1092.36 351.726Z" fill="#4682B4"/>
<path d="M1095.88 348.078C1095.61 349.114 1095.51 350.191 1095.67 351.252C1095.68 351.306 1095.76 351.283 1095.75 351.23C1095.6 350.184 1095.69 349.121 1095.96 348.101C1095.97 348.048 1095.89 348.025 1095.88 348.078Z" fill="#004C44"/>
<path d="M1092.74 347.767C1092.35 348.693 1092.17 349.647 1092.21 350.652C1092.21 350.706 1092.29 350.707 1092.29 350.652C1092.26 349.664 1092.43 348.721 1092.81 347.81C1092.83 347.76 1092.76 347.717 1092.74 347.767Z" fill="#004C44"/>
<path d="M1082.83 363.63C1084.95 363.63 1086.66 363.385 1086.66 363.081C1086.66 362.778 1084.95 362.532 1082.83 362.532C1080.71 362.532 1079 362.778 1079 363.081C1079 363.385 1080.71 363.63 1082.83 363.63Z" fill="#BAD2F1"/>
<path d="M1081.97 363.023C1081.24 363.387 1080.66 363.504 1080.66 363.504C1080.66 363.504 1080.9 363.29 1080.68 363.183C1080.67 363.181 1080.67 363.179 1080.66 363.177C1080.35 363.045 1079.95 363.322 1079.95 363.329C1079.95 363.32 1080.18 363.078 1079.96 362.918C1079.74 362.768 1079.37 363.042 1079.37 363.045C1079.76 362.554 1080.46 362.302 1080.86 362.27C1081.02 362.258 1081.13 362.26 1081.13 362.26C1081.13 362.26 1081.96 362.366 1081.97 362.611C1081.98 362.857 1081.97 363.023 1081.97 363.023Z" fill="#F38350"/>
<path d="M1081.97 363.023C1081.24 363.387 1080.66 363.504 1080.66 363.504C1080.66 363.504 1080.9 363.29 1080.67 363.183C1080.95 363.1 1081.29 362.954 1081.27 362.745C1081.25 362.511 1081.01 362.351 1080.86 362.27C1081.02 362.258 1081.13 362.26 1081.13 362.26C1081.13 362.26 1081.96 362.366 1081.97 362.611C1081.98 362.857 1081.97 363.023 1081.97 363.023Z" fill="#E8563E"/>
<path d="M1083.63 363.023C1084.36 363.387 1084.94 363.504 1084.94 363.504C1084.94 363.504 1084.7 363.29 1084.93 363.183C1084.93 363.181 1084.93 363.179 1084.94 363.177C1085.25 363.045 1085.65 363.322 1085.66 363.329C1085.65 363.32 1085.42 363.078 1085.64 362.918C1085.86 362.768 1086.23 363.042 1086.23 363.045C1085.84 362.554 1085.15 362.302 1084.74 362.27C1084.58 362.258 1084.47 362.26 1084.47 362.26C1084.47 362.26 1083.64 362.366 1083.63 362.611C1083.62 362.857 1083.63 363.023 1083.63 363.023Z" fill="#F38350"/>
<path d="M1083.63 363.023C1084.36 363.387 1084.94 363.504 1084.94 363.504C1084.94 363.504 1084.7 363.29 1084.93 363.183C1084.65 363.1 1084.31 362.954 1084.33 362.745C1084.35 362.511 1084.59 362.351 1084.74 362.27C1084.58 362.258 1084.47 362.26 1084.47 362.26C1084.47 362.26 1083.64 362.366 1083.63 362.611C1083.62 362.857 1083.63 363.023 1083.63 363.023Z" fill="#E8563E"/>
<path d="M1082.8 362.976C1081.15 362.993 1079.68 361.471 1080.09 359.07C1080.37 357.398 1081.27 356.08 1081.78 355.434C1082 355.164 1082.39 354.999 1082.82 355C1083.25 355.001 1083.65 355.168 1083.86 355.438C1084.37 356.087 1085.26 357.409 1085.54 359.082C1085.94 361.485 1084.46 363 1082.8 362.976Z" fill="#25173C"/>
<path d="M1082.91 362.621C1082.84 362.62 1082.77 362.62 1082.7 362.621C1081.89 362.628 1080.52 361.923 1080.57 359.782C1080.57 359.775 1080.57 359.768 1080.57 359.761C1080.57 359.74 1080.57 359.72 1080.57 359.7C1080.62 358.787 1081.24 357.974 1081.94 357.688C1081.47 357.362 1081.34 356.381 1081.64 356.059C1082.02 355.644 1082.81 355.952 1082.81 355.952C1082.81 355.952 1083.62 355.648 1084 356.064C1084.29 356.384 1084.16 357.284 1083.78 357.693C1084.5 357.97 1085.01 358.78 1085.05 359.708C1085.06 359.729 1085.06 359.75 1085.06 359.771C1085.06 359.778 1085.06 359.785 1085.06 359.792C1085.1 361.933 1083.72 362.632 1082.91 362.621Z" fill="white"/>
<path d="M1083.25 356.665C1083.33 356.584 1083.45 356.568 1083.54 356.626C1083.6 356.658 1083.65 356.573 1083.59 356.541C1083.46 356.461 1083.29 356.483 1083.18 356.596C1083.14 356.641 1083.21 356.71 1083.25 356.665Z" fill="#25173C"/>
<path d="M1082.39 356.609C1082.27 356.5 1082.11 356.481 1081.97 356.566C1081.92 356.6 1081.97 356.685 1082.02 356.651C1082.12 356.59 1082.24 356.599 1082.32 356.678C1082.36 356.722 1082.43 356.653 1082.39 356.609Z" fill="#25173C"/>
<path d="M1082.91 362.621C1082.84 362.621 1082.77 362.62 1082.7 362.621C1081.89 362.628 1080.52 361.923 1080.57 359.782C1080.57 359.775 1080.57 359.768 1080.57 359.761C1080.57 359.74 1080.57 359.72 1080.57 359.7C1080.62 359.926 1081.2 362.313 1082.79 362.316C1084.38 362.32 1085 359.926 1085.05 359.708C1085.06 359.729 1085.06 359.75 1085.06 359.771C1085.06 359.778 1085.06 359.785 1085.06 359.792C1085.1 361.933 1083.72 362.632 1082.91 362.621Z" fill="#25173C"/>
<path d="M1083.37 357.094L1082.81 357.287L1082.24 357.092C1082.27 357.015 1082.31 356.944 1082.36 356.88C1082.54 356.637 1082.81 356.493 1082.81 356.493C1082.81 356.493 1083.09 356.645 1083.27 356.898C1083.31 356.958 1083.35 357.024 1083.37 357.094Z" fill="#F38350"/>
<path d="M1083.37 357.094L1082.81 357.287L1082.24 357.092C1082.27 357.015 1082.31 356.944 1082.36 356.88C1082.45 356.996 1082.61 357.152 1082.81 357.152C1083 357.152 1083.16 357.011 1083.27 356.898C1083.31 356.958 1083.35 357.024 1083.37 357.094Z" fill="#E8563E"/>
<path d="M1082.71 356.861C1082.71 356.861 1082.6 356.976 1082.63 357.02C1082.65 357.054 1082.74 356.968 1082.71 356.861Z" fill="#E8563E"/>
<path d="M1082.9 356.862C1082.9 356.862 1083.02 356.977 1082.99 357.021C1082.96 357.054 1082.88 356.968 1082.9 356.862Z" fill="#E8563E"/>
<path d="M1080.21 358.505C1080.21 358.505 1079.37 359.072 1079.64 360.282C1079.86 361.227 1081.04 361.125 1081.72 360.982C1081.89 360.946 1081.93 360.718 1081.78 360.63C1081.24 360.318 1080.39 359.713 1080.47 359.042L1080.21 358.505Z" fill="#25173C"/>
<path d="M1085.4 358.45C1085.4 358.45 1086.26 358.992 1086.02 360.209C1085.83 361.16 1084.65 361.093 1083.96 360.971C1083.79 360.94 1083.75 360.713 1083.89 360.621C1084.42 360.293 1085.25 359.662 1085.16 358.995L1085.4 358.45Z" fill="#25173C"/>
<g style="mix-blend-mode:luminosity" opacity="0.1" filter="url(#filter8_f_847_348)">
<path d="M1206 346.001L1231.64 390.308L1260.98 385.658L1287.71 415.614L1293.14 411.784L1277.5 346.001H1206Z" fill="#BDD2ED"/>
<path d="M1238.16 369.243L1222.95 346.001H1269.46L1257.72 361.173L1238.16 369.243Z" fill="#A4BDDE"/>
<path d="M1293.14 411.784L1332.69 390.034L1282.68 367.783L1293.14 411.784Z" fill="white"/>
<path d="M1365.29 372.936L1332.69 390.034L1282.68 367.782C1282.68 367.782 1277.75 347.079 1277.5 346H1361.59L1365.29 372.936Z" fill="#A4BDDE"/>
<path d="M1540.87 377.177L1565.21 346.001H1361.59L1365.29 372.936L1413.31 371.842L1433.52 353.786L1516.97 377.177L1526.53 372.936L1540.87 377.177Z" fill="#BDD2ED"/>
<path d="M1344.23 383.98L1342.25 372.526L1355.15 378.253L1344.23 383.98Z" fill="#BDD2ED"/>
<path d="M1413.31 371.842L1516.97 377.177L1433.52 353.786L1413.31 371.842Z" fill="#BDD2ED"/>
<path d="M1526.53 372.936L1507.84 357.889L1516.97 377.177L1526.53 372.936Z" fill="#A4BDDE"/>
<path d="M1496.14 376.105L1507.84 357.889L1516.97 377.177L1496.14 376.105Z" fill="white"/>
<path d="M1448.98 373.678L1433.52 353.786L1413.31 371.842L1448.98 373.678Z" fill="white"/>
<path d="M1565.21 404.124L1540.87 377.177L1565.21 346.001H1583.68L1585.42 386.615L1565.21 404.124Z" fill="#A4BDDE"/>
<path d="M1651.7 377.177L1585.42 386.615L1583.68 346.001H1645.83L1651.7 377.177Z" fill="#BDD2ED"/>
<path d="M1680.6 388.53L1651.7 377.177L1645.83 346.001H1680.6V388.53Z" fill="#A4BDDE"/>
<path d="M1699.07 346.001L1680.6 388.53V346.001H1699.07Z" fill="#BDD2ED"/>
<path d="M1611.72 367.265L1606.07 346.001H1617.69L1611.72 367.265Z" fill="#A4BDDE"/>
<path d="M1415.49 430.729L1287.71 415.614L1293.14 411.784L1332.69 390.034L1365.29 372.936L1413.31 371.842L1516.97 377.177L1526.53 372.936L1540.87 377.177L1565.21 404.124L1585.42 386.615L1651.7 377.177L1680.6 388.53L1673.97 399.131L1627.69 430.729L1590.53 446.733L1552.39 489L1481.33 404.124L1456.56 427.651L1414.83 404.124L1415.49 430.729Z" fill="white"/>
<path d="M1460.47 429.601L1456.56 427.651L1481.33 404.124L1486.22 409.958L1480.84 417.905L1460.47 429.601Z" fill="#D4E3FA"/>
<path d="M1421.35 431.857L1415.49 430.729L1414.83 404.124L1440.85 418.793L1427.84 425.394L1421.35 431.857Z" fill="#D4E3FA"/>
<path d="M1552.39 489L1609.11 460.207L1641.49 432.849L1673.97 399.131L1627.69 430.729L1590.53 446.733L1552.39 489Z" fill="#D4E3FA"/>
<path d="M1540.87 442.674L1516.97 408.96L1535.32 419.047L1540.87 442.674Z" fill="#D4E3FA"/>
<path d="M1516.97 408.96L1536.84 395.579L1535.32 419.047L1516.97 408.96Z" fill="#BDD2ED"/>
<path d="M1629.34 429.601L1641.49 432.849L1673.97 399.131L1629.34 429.601Z" fill="#BDD2ED"/>
<path d="M1480.84 417.905L1472.56 412.452L1481.33 404.124L1486.22 409.958L1480.84 417.905Z" fill="#BDD2ED"/>
</g>
</g>
<defs>
<filter id="filter0_i_847_348" x="0.0146484" y="323" width="2000" height="174" filterUnits="userSpaceOnUse" color-interpolation-filters="sRGB">
<feFlood flood-opacity="0" result="BackgroundImageFix"/>
<feBlend mode="normal" in="SourceGraphic" in2="BackgroundImageFix" result="shape"/>
<feColorMatrix in="SourceAlpha" type="matrix" values="0 0 0 0 0 0 0 0 0 0 0 0 0 0 0 0 0 0 127 0" result="hardAlpha"/>
<feOffset dy="4"/>
<feGaussianBlur stdDeviation="10"/>
<feComposite in2="hardAlpha" operator="arithmetic" k2="-1" k3="1"/>
<feColorMatrix type="matrix" values="0 0 0 0 0 0 0 0 0 0 0 0 0 0 0 0 0 0 1 0"/>
<feBlend mode="normal" in2="shape" result="effect1_innerShadow_847_348"/>
</filter>
<filter id="filter1_f_847_348" x="381" y="335" width="219.41" height="156" filterUnits="userSpaceOnUse" color-interpolation-filters="sRGB">
<feFlood flood-opacity="0" result="BackgroundImageFix"/>
<feBlend mode="normal" in="SourceGraphic" in2="BackgroundImageFix" result="shape"/>
<feGaussianBlur stdDeviation="1" result="effect1_foregroundBlur_847_348"/>
</filter>
<filter id="filter2_f_847_348" x="541" y="335.407" width="235.849" height="152.804" filterUnits="userSpaceOnUse" color-interpolation-filters="sRGB">
<feFlood flood-opacity="0" result="BackgroundImageFix"/>
<feBlend mode="normal" in="SourceGraphic" in2="BackgroundImageFix" result="shape"/>
<feGaussianBlur stdDeviation="1" result="effect1_foregroundBlur_847_348"/>
</filter>
<filter id="filter3_f_847_348" x="948" y="408.728" width="104.979" height="41.683" filterUnits="userSpaceOnUse" color-interpolation-filters="sRGB">
<feFlood flood-opacity="0" result="BackgroundImageFix"/>
<feBlend mode="normal" in="SourceGraphic" in2="BackgroundImageFix" result="shape"/>
<feGaussianBlur stdDeviation="1" result="effect1_foregroundBlur_847_348"/>
</filter>
<filter id="filter4_f_847_348" x="1049" y="359" width="68.3105" height="28" filterUnits="userSpaceOnUse" color-interpolation-filters="sRGB">
<feFlood flood-opacity="0" result="BackgroundImageFix"/>
<feBlend mode="normal" in="SourceGraphic" in2="BackgroundImageFix" result="shape"/>
<feGaussianBlur stdDeviation="1" result="effect1_foregroundBlur_847_348"/>
</filter>
<filter id="filter5_f_847_348" x="728" y="400" width="117.198" height="91" filterUnits="userSpaceOnUse" color-interpolation-filters="sRGB">
<feFlood flood-opacity="0" result="BackgroundImageFix"/>
<feBlend mode="normal" in="SourceGraphic" in2="BackgroundImageFix" result="shape"/>
<feGaussianBlur stdDeviation="1" result="effect1_foregroundBlur_847_348"/>
</filter>
<filter id="filter6_f_847_348" x="1112" y="456" width="155.8" height="35" filterUnits="userSpaceOnUse" color-interpolation-filters="sRGB">
<feFlood flood-opacity="0" result="BackgroundImageFix"/>
<feBlend mode="normal" in="SourceGraphic" in2="BackgroundImageFix" result="shape"/>
<feGaussianBlur stdDeviation="1" result="effect1_foregroundBlur_847_348"/>
</filter>
<filter id="filter7_f_847_348" x="857" y="360" width="52.9434" height="29.927" filterUnits="userSpaceOnUse" color-interpolation-filters="sRGB">
<feFlood flood-opacity="0" result="BackgroundImageFix"/>
<feBlend mode="normal" in="SourceGraphic" in2="BackgroundImageFix" result="shape"/>
<feGaussianBlur stdDeviation="1" result="effect1_foregroundBlur_847_348"/>
</filter>
<filter id="filter8_f_847_348" x="1204" y="344" width="497.07" height="147" filterUnits="userSpaceOnUse" color-interpolation-filters="sRGB">
<feFlood flood-opacity="0" result="BackgroundImageFix"/>
<feBlend mode="normal" in="SourceGraphic" in2="BackgroundImageFix" result="shape"/>
<feGaussianBlur stdDeviation="1" result="effect1_foregroundBlur_847_348"/>
</filter>
<linearGradient id="paint0_linear_847_348" x1="1000.01" y1="323" x2="1000.01" y2="493" gradientUnits="userSpaceOnUse">
<stop stop-color="#F7B7FD"/>
<stop offset="1" stop-color="#92CAFF"/>
</linearGradient>
<clipPath id="clip0_847_348">
<rect width="2000" height="493" fill="white"/>
</clipPath>
</defs>
</svg>
