<svg width="16" height="16" viewBox="0 0 16 16" fill="none" xmlns="http://www.w3.org/2000/svg">
<path d="M8.05115 1.99854C8.05684 1.99855 8.06298 1.99856 8.06955 1.99858L8.14035 1.9988C8.96214 2.00182 13.1273 2.03201 14.2503 2.33392C14.9387 2.51856 15.4808 3.06272 15.6648 3.75345C15.7661 4.13295 15.8367 4.63735 15.8859 5.1561L15.8954 5.26001C15.9032 5.3467 15.9103 5.4336 15.9169 5.52017L15.9246 5.62387C15.9904 6.53798 15.998 7.39338 15.9989 7.58053L15.999 7.60578C15.999 7.60785 15.999 7.61123 15.999 7.61123V7.6254C15.999 7.6254 15.999 7.62878 15.999 7.63085L15.9989 7.65609C15.998 7.85032 15.9898 8.76421 15.9169 9.71651L15.9087 9.82052L15.9 9.92464C15.8505 10.4972 15.7762 11.0658 15.6648 11.4832C15.4808 12.1739 14.9387 12.7182 14.2503 12.9027C13.0898 13.2148 8.68109 13.2366 8.06955 13.2382L8.02246 13.2383C8.0186 13.2383 8.0152 13.2383 8.01228 13.2383L7.99307 13.2383C7.99307 13.2383 7.98866 13.2383 7.98573 13.2383L7.92846 13.2382C7.61941 13.2374 6.34057 13.2314 5.0013 13.1855L4.83007 13.1794C4.8015 13.1783 4.77292 13.1772 4.74434 13.1761L4.57291 13.1694L4.40188 13.1621C3.29238 13.1134 2.23452 13.0336 1.74789 12.9027C1.05947 12.7182 0.517371 12.1739 0.333379 11.4832C0.221913 11.0658 0.147602 10.4972 0.0980616 9.92464L0.0893244 9.82052L0.0811165 9.71651C0.0109033 8.79884 0.000711116 7.91683 -0.000768403 7.6801L-0.000945201 7.64622C-0.000957608 7.64317 -0.000967947 7.64036 -0.000976562 7.63779V7.59883C-0.000967947 7.59627 -0.000957608 7.59346 -0.000945201 7.59041L-0.000768403 7.55652C0.000571538 7.34214 0.00905783 6.5985 0.0628044 5.77842L0.0697612 5.67554C0.0709608 5.65834 0.0721808 5.64112 0.0734215 5.62387L0.0811165 5.52017C0.0877404 5.4336 0.0948985 5.3467 0.102634 5.26001L0.112196 5.1561C0.16142 4.63735 0.232046 4.13295 0.333379 3.75345C0.517371 3.06272 1.05947 2.51856 1.74789 2.33392C2.23452 2.20309 3.29238 2.12329 4.40188 2.0746L4.57291 2.06736L4.74434 2.06059C4.77292 2.0595 4.8015 2.05843 4.83007 2.05737L5.0013 2.05128C6.25508 2.00824 7.45591 2.00027 7.85767 1.9988L7.92846 1.99858C7.93504 1.99856 7.94117 1.99855 7.94686 1.99854H8.05115ZM6.39905 5.20973V10.0269L10.5558 7.61844L6.39905 5.20973Z" fill="#CCCCCC"/>
</svg>
