<svg width="246" height="60" viewBox="0 0 246 60" fill="none" xmlns="http://www.w3.org/2000/svg">
<path d="M59.265 48V14.112H66.801V48H59.265ZM83.9355 48.528C81.5355 48.528 79.3595 48 77.4075 46.944C75.4555 45.888 73.9195 44.432 72.7995 42.576C71.6795 40.72 71.1195 38.64 71.1195 36.336C71.1195 34 71.6795 31.92 72.7995 30.096C73.9515 28.24 75.5035 26.784 77.4555 25.728C79.4075 24.672 81.5995 24.144 84.0315 24.144C85.8555 24.144 87.5195 24.464 89.0235 25.104C90.5595 25.712 91.9195 26.64 93.1035 27.888L88.3995 32.592C87.8555 31.984 87.2155 31.536 86.4795 31.248C85.7755 30.96 84.9595 30.816 84.0315 30.816C82.9755 30.816 82.0315 31.056 81.1995 31.536C80.3995 31.984 79.7595 32.624 79.2795 33.456C78.8315 34.256 78.6075 35.2 78.6075 36.288C78.6075 37.376 78.8315 38.336 79.2795 39.168C79.7595 40 80.4155 40.656 81.2475 41.136C82.0795 41.616 83.0075 41.856 84.0315 41.856C84.9915 41.856 85.8395 41.696 86.5755 41.376C87.3435 41.024 87.9995 40.544 88.5435 39.936L93.1995 44.64C91.9835 45.92 90.6075 46.896 89.0715 47.568C87.5355 48.208 85.8235 48.528 83.9355 48.528ZM107.425 48.528C104.897 48.528 102.641 48.016 100.657 46.992C98.7055 45.936 97.1695 44.48 96.0495 42.624C94.9295 40.768 94.3695 38.672 94.3695 36.336C94.3695 34 94.9135 31.92 96.0015 30.096C97.1215 28.24 98.6255 26.784 100.513 25.728C102.401 24.672 104.529 24.144 106.897 24.144C109.201 24.144 111.233 24.64 112.993 25.632C114.753 26.624 116.129 28 117.121 29.76C118.145 31.52 118.657 33.536 118.657 35.808C118.657 36.224 118.625 36.672 118.561 37.152C118.529 37.6 118.449 38.128 118.321 38.736L98.2095 38.784V33.744L115.201 33.696L112.033 35.808C112.001 34.464 111.793 33.36 111.409 32.496C111.025 31.6 110.449 30.928 109.681 30.48C108.945 30 108.033 29.76 106.945 29.76C105.793 29.76 104.785 30.032 103.921 30.576C103.089 31.088 102.433 31.824 101.953 32.784C101.505 33.744 101.281 34.912 101.281 36.288C101.281 37.664 101.521 38.848 102.001 39.84C102.513 40.8 103.217 41.552 104.113 42.096C105.041 42.608 106.129 42.864 107.377 42.864C108.529 42.864 109.569 42.672 110.497 42.288C111.425 41.872 112.241 41.264 112.945 40.464L116.977 44.496C115.825 45.84 114.433 46.848 112.801 47.52C111.169 48.192 109.377 48.528 107.425 48.528ZM124.999 48V15.024H132.343V48H124.999ZM119.719 30.912V24.672H137.623V30.912H119.719ZM151.91 48.528C149.382 48.528 147.126 48.016 145.142 46.992C143.19 45.936 141.654 44.48 140.534 42.624C139.414 40.768 138.854 38.672 138.854 36.336C138.854 34 139.398 31.92 140.486 30.096C141.606 28.24 143.11 26.784 144.998 25.728C146.886 24.672 149.014 24.144 151.382 24.144C153.686 24.144 155.718 24.64 157.478 25.632C159.238 26.624 160.614 28 161.606 29.76C162.63 31.52 163.142 33.536 163.142 35.808C163.142 36.224 163.11 36.672 163.046 37.152C163.014 37.6 162.934 38.128 162.806 38.736L142.694 38.784V33.744L159.686 33.696L156.518 35.808C156.486 34.464 156.278 33.36 155.894 32.496C155.51 31.6 154.934 30.928 154.166 30.48C153.43 30 152.518 29.76 151.43 29.76C150.278 29.76 149.27 30.032 148.406 30.576C147.574 31.088 146.918 31.824 146.438 32.784C145.99 33.744 145.766 34.912 145.766 36.288C145.766 37.664 146.006 38.848 146.486 39.84C146.998 40.8 147.702 41.552 148.598 42.096C149.526 42.608 150.614 42.864 151.862 42.864C153.014 42.864 154.054 42.672 154.982 42.288C155.91 41.872 156.726 41.264 157.43 40.464L161.462 44.496C160.31 45.84 158.918 46.848 157.286 47.52C155.654 48.192 153.862 48.528 151.91 48.528ZM166.687 48V24.672H174.031V48H166.687ZM174.031 35.184L170.959 32.784C171.567 30.064 172.591 27.952 174.031 26.448C175.471 24.944 177.471 24.192 180.031 24.192C181.151 24.192 182.127 24.368 182.959 24.72C183.823 25.04 184.575 25.552 185.215 26.256L180.847 31.776C180.527 31.424 180.127 31.152 179.647 30.96C179.167 30.768 178.623 30.672 178.015 30.672C176.799 30.672 175.823 31.056 175.087 31.824C174.383 32.56 174.031 33.68 174.031 35.184ZM187.171 48V24.672H194.515V48H187.171ZM190.867 21.456C189.715 21.456 188.755 21.072 187.987 20.304C187.251 19.504 186.883 18.544 186.883 17.424C186.883 16.272 187.251 15.312 187.987 14.544C188.755 13.776 189.715 13.392 190.867 13.392C192.019 13.392 192.963 13.776 193.699 14.544C194.435 15.312 194.803 16.272 194.803 17.424C194.803 18.544 194.435 19.504 193.699 20.304C192.963 21.072 192.019 21.456 190.867 21.456ZM208.183 48.576C206.807 48.576 205.447 48.4 204.103 48.048C202.791 47.696 201.559 47.2 200.407 46.56C199.287 45.888 198.327 45.12 197.527 44.256L201.703 40.032C202.471 40.864 203.383 41.52 204.439 42C205.495 42.448 206.647 42.672 207.895 42.672C208.759 42.672 209.415 42.544 209.863 42.288C210.343 42.032 210.583 41.68 210.583 41.232C210.583 40.656 210.295 40.224 209.719 39.936C209.175 39.616 208.471 39.344 207.607 39.12C206.743 38.864 205.831 38.592 204.871 38.304C203.911 38.016 202.999 37.616 202.135 37.104C201.271 36.592 200.567 35.888 200.023 34.992C199.479 34.064 199.207 32.896 199.207 31.488C199.207 29.984 199.591 28.688 200.359 27.6C201.127 26.48 202.215 25.6 203.623 24.96C205.031 24.32 206.679 24 208.567 24C210.551 24 212.375 24.352 214.039 25.056C215.735 25.728 217.111 26.736 218.167 28.08L213.991 32.304C213.255 31.44 212.423 30.832 211.495 30.48C210.599 30.128 209.719 29.952 208.855 29.952C208.023 29.952 207.399 30.08 206.983 30.336C206.567 30.56 206.359 30.896 206.359 31.344C206.359 31.824 206.631 32.208 207.175 32.496C207.719 32.784 208.423 33.04 209.287 33.264C210.151 33.488 211.063 33.76 212.023 34.08C212.983 34.4 213.895 34.832 214.759 35.376C215.623 35.92 216.327 36.656 216.871 37.584C217.415 38.48 217.687 39.664 217.687 41.136C217.687 43.408 216.823 45.216 215.095 46.56C213.399 47.904 211.095 48.576 208.183 48.576ZM236.599 48L228.439 35.904L236.551 24.672H244.759L234.967 37.296L235.207 34.272L245.239 48H236.599ZM221.671 48V13.152H229.015V48H221.671Z" fill="#1E1E1E"/>
<path fill-rule="evenodd" clip-rule="evenodd" d="M24 6C10.7452 6 0 16.7452 0 30C0 43.2548 10.7452 54 24 54C37.2548 54 48 43.2548 48 30C48 16.7452 37.2548 6 24 6ZM23.9914 10C21.23 10 18.9914 12.2386 18.9914 15V21.3396L13.5012 18.1698C11.1098 16.7891 8.05181 17.6085 6.6711 20C5.29039 22.3914 6.10977 25.4494 8.50123 26.8301L13.9915 29.9999L8.50084 33.1699C6.10937 34.5506 5.29 37.6086 6.67071 40C8.05142 42.3915 11.1094 43.2109 13.5008 41.8302L18.9914 38.6602V45C18.9914 47.7614 21.23 50 23.9914 50C26.7528 50 28.9914 47.7614 28.9914 45V38.6601L34.482 41.8301C36.8735 43.2108 39.9314 42.3914 41.3121 40C42.6928 37.6085 41.8735 34.5505 39.482 33.1698L33.9915 29.9999L39.4816 26.8302C41.8731 25.4495 42.6924 22.3915 41.3117 20C39.931 17.6086 36.8731 16.7892 34.4816 18.1699L28.9914 21.3397V15C28.9914 12.2386 26.7528 10 23.9914 10Z" fill="#0077CE"/>
</svg>
