<svg width="234" height="60" viewBox="0 0 234 60" fill="none" xmlns="http://www.w3.org/2000/svg">
<path d="M47.265 48V14.112H54.801V48H47.265ZM71.9355 48.528C69.5355 48.528 67.3595 48 65.4075 46.944C63.4555 45.888 61.9195 44.432 60.7995 42.576C59.6795 40.72 59.1195 38.64 59.1195 36.336C59.1195 34 59.6795 31.92 60.7995 30.096C61.9515 28.24 63.5035 26.784 65.4555 25.728C67.4075 24.672 69.5995 24.144 72.0315 24.144C73.8555 24.144 75.5195 24.464 77.0235 25.104C78.5595 25.712 79.9195 26.64 81.1035 27.888L76.3995 32.592C75.8555 31.984 75.2155 31.536 74.4795 31.248C73.7755 30.96 72.9595 30.816 72.0315 30.816C70.9755 30.816 70.0315 31.056 69.1995 31.536C68.3995 31.984 67.7595 32.624 67.2795 33.456C66.8315 34.256 66.6075 35.2 66.6075 36.288C66.6075 37.376 66.8315 38.336 67.2795 39.168C67.7595 40 68.4155 40.656 69.2475 41.136C70.0795 41.616 71.0075 41.856 72.0315 41.856C72.9915 41.856 73.8395 41.696 74.5755 41.376C75.3435 41.024 75.9995 40.544 76.5435 39.936L81.1995 44.64C79.9835 45.92 78.6075 46.896 77.0715 47.568C75.5355 48.208 73.8235 48.528 71.9355 48.528ZM95.4255 48.528C92.8975 48.528 90.6415 48.016 88.6575 46.992C86.7055 45.936 85.1695 44.48 84.0495 42.624C82.9295 40.768 82.3695 38.672 82.3695 36.336C82.3695 34 82.9135 31.92 84.0015 30.096C85.1215 28.24 86.6255 26.784 88.5135 25.728C90.4015 24.672 92.5295 24.144 94.8975 24.144C97.2015 24.144 99.2335 24.64 100.993 25.632C102.753 26.624 104.129 28 105.121 29.76C106.145 31.52 106.657 33.536 106.657 35.808C106.657 36.224 106.625 36.672 106.561 37.152C106.529 37.6 106.449 38.128 106.321 38.736L86.2095 38.784V33.744L103.201 33.696L100.033 35.808C100.001 34.464 99.7935 33.36 99.4095 32.496C99.0255 31.6 98.4495 30.928 97.6815 30.48C96.9455 30 96.0335 29.76 94.9455 29.76C93.7935 29.76 92.7855 30.032 91.9215 30.576C91.0895 31.088 90.4335 31.824 89.9535 32.784C89.5055 33.744 89.2815 34.912 89.2815 36.288C89.2815 37.664 89.5215 38.848 90.0015 39.84C90.5135 40.8 91.2175 41.552 92.1135 42.096C93.0415 42.608 94.1295 42.864 95.3775 42.864C96.5295 42.864 97.5695 42.672 98.4975 42.288C99.4255 41.872 100.241 41.264 100.945 40.464L104.977 44.496C103.825 45.84 102.433 46.848 100.801 47.52C99.1695 48.192 97.3775 48.528 95.4255 48.528ZM112.999 48V15.024H120.343V48H112.999ZM107.719 30.912V24.672H125.623V30.912H107.719ZM139.91 48.528C137.382 48.528 135.126 48.016 133.142 46.992C131.19 45.936 129.654 44.48 128.534 42.624C127.414 40.768 126.854 38.672 126.854 36.336C126.854 34 127.398 31.92 128.486 30.096C129.606 28.24 131.11 26.784 132.998 25.728C134.886 24.672 137.014 24.144 139.382 24.144C141.686 24.144 143.718 24.64 145.478 25.632C147.238 26.624 148.614 28 149.606 29.76C150.63 31.52 151.142 33.536 151.142 35.808C151.142 36.224 151.11 36.672 151.046 37.152C151.014 37.6 150.934 38.128 150.806 38.736L130.694 38.784V33.744L147.686 33.696L144.518 35.808C144.486 34.464 144.278 33.36 143.894 32.496C143.51 31.6 142.934 30.928 142.166 30.48C141.43 30 140.518 29.76 139.43 29.76C138.278 29.76 137.27 30.032 136.406 30.576C135.574 31.088 134.918 31.824 134.438 32.784C133.99 33.744 133.766 34.912 133.766 36.288C133.766 37.664 134.006 38.848 134.486 39.84C134.998 40.8 135.702 41.552 136.598 42.096C137.526 42.608 138.614 42.864 139.862 42.864C141.014 42.864 142.054 42.672 142.982 42.288C143.91 41.872 144.726 41.264 145.43 40.464L149.462 44.496C148.31 45.84 146.918 46.848 145.286 47.52C143.654 48.192 141.862 48.528 139.91 48.528ZM154.687 48V24.672H162.031V48H154.687ZM162.031 35.184L158.959 32.784C159.567 30.064 160.591 27.952 162.031 26.448C163.471 24.944 165.471 24.192 168.031 24.192C169.151 24.192 170.127 24.368 170.959 24.72C171.823 25.04 172.575 25.552 173.215 26.256L168.847 31.776C168.527 31.424 168.127 31.152 167.647 30.96C167.167 30.768 166.623 30.672 166.015 30.672C164.799 30.672 163.823 31.056 163.087 31.824C162.383 32.56 162.031 33.68 162.031 35.184ZM175.171 48V24.672H182.515V48H175.171ZM178.867 21.456C177.715 21.456 176.755 21.072 175.987 20.304C175.251 19.504 174.883 18.544 174.883 17.424C174.883 16.272 175.251 15.312 175.987 14.544C176.755 13.776 177.715 13.392 178.867 13.392C180.019 13.392 180.963 13.776 181.699 14.544C182.435 15.312 182.803 16.272 182.803 17.424C182.803 18.544 182.435 19.504 181.699 20.304C180.963 21.072 180.019 21.456 178.867 21.456ZM196.183 48.576C194.807 48.576 193.447 48.4 192.103 48.048C190.791 47.696 189.559 47.2 188.407 46.56C187.287 45.888 186.327 45.12 185.527 44.256L189.703 40.032C190.471 40.864 191.383 41.52 192.439 42C193.495 42.448 194.647 42.672 195.895 42.672C196.759 42.672 197.415 42.544 197.863 42.288C198.343 42.032 198.583 41.68 198.583 41.232C198.583 40.656 198.295 40.224 197.719 39.936C197.175 39.616 196.471 39.344 195.607 39.12C194.743 38.864 193.831 38.592 192.871 38.304C191.911 38.016 190.999 37.616 190.135 37.104C189.271 36.592 188.567 35.888 188.023 34.992C187.479 34.064 187.207 32.896 187.207 31.488C187.207 29.984 187.591 28.688 188.359 27.6C189.127 26.48 190.215 25.6 191.623 24.96C193.031 24.32 194.679 24 196.567 24C198.551 24 200.375 24.352 202.039 25.056C203.735 25.728 205.111 26.736 206.167 28.08L201.991 32.304C201.255 31.44 200.423 30.832 199.495 30.48C198.599 30.128 197.719 29.952 196.855 29.952C196.023 29.952 195.399 30.08 194.983 30.336C194.567 30.56 194.359 30.896 194.359 31.344C194.359 31.824 194.631 32.208 195.175 32.496C195.719 32.784 196.423 33.04 197.287 33.264C198.151 33.488 199.063 33.76 200.023 34.08C200.983 34.4 201.895 34.832 202.759 35.376C203.623 35.92 204.327 36.656 204.871 37.584C205.415 38.48 205.687 39.664 205.687 41.136C205.687 43.408 204.823 45.216 203.095 46.56C201.399 47.904 199.095 48.576 196.183 48.576ZM224.599 48L216.439 35.904L224.551 24.672H232.759L222.967 37.296L223.207 34.272L233.239 48H224.599ZM209.671 48V13.152H217.015V48H209.671Z" fill="white"/>
<path fill-rule="evenodd" clip-rule="evenodd" d="M12.9914 15C12.9914 12.2386 15.23 10 17.9914 10C20.7528 10 22.9914 12.2386 22.9914 15V21.3397L28.4816 18.1699C30.8731 16.7892 33.931 17.6086 35.3117 20C36.6924 22.3915 35.8731 25.4495 33.4816 26.8302L27.9915 29.9999L33.482 33.1698C35.8735 34.5505 36.6928 37.6085 35.3121 40C33.9314 42.3914 30.8735 43.2108 28.482 41.8301L22.9914 38.6601V45C22.9914 47.7614 20.7528 50 17.9914 50C15.23 50 12.9914 47.7614 12.9914 45V38.6602L7.50083 41.8302C5.10937 43.2109 2.05142 42.3915 0.670708 40C-0.710004 37.6086 0.109372 34.5506 2.50084 33.1699L7.9915 29.9999L2.50123 26.8301C0.109767 25.4494 -0.709609 22.3914 0.671102 20C2.05181 17.6085 5.10977 16.7891 7.50123 18.1698L12.9914 21.3396V15Z" fill="white"/>
</svg>
