<svg width="240" height="60" viewBox="0 0 240 60" fill="none" xmlns="http://www.w3.org/2000/svg">
<rect y="6" width="48" height="48" rx="24" fill="#0077CE"/>
<path d="M53.265 48V14.112H60.801V48H53.265ZM77.9355 48.528C75.5355 48.528 73.3595 48 71.4075 46.944C69.4555 45.888 67.9195 44.432 66.7995 42.576C65.6795 40.72 65.1195 38.64 65.1195 36.336C65.1195 34 65.6795 31.92 66.7995 30.096C67.9515 28.24 69.5035 26.784 71.4555 25.728C73.4075 24.672 75.5995 24.144 78.0315 24.144C79.8555 24.144 81.5195 24.464 83.0235 25.104C84.5595 25.712 85.9195 26.64 87.1035 27.888L82.3995 32.592C81.8555 31.984 81.2155 31.536 80.4795 31.248C79.7755 30.96 78.9595 30.816 78.0315 30.816C76.9755 30.816 76.0315 31.056 75.1995 31.536C74.3995 31.984 73.7595 32.624 73.2795 33.456C72.8315 34.256 72.6075 35.2 72.6075 36.288C72.6075 37.376 72.8315 38.336 73.2795 39.168C73.7595 40 74.4155 40.656 75.2475 41.136C76.0795 41.616 77.0075 41.856 78.0315 41.856C78.9915 41.856 79.8395 41.696 80.5755 41.376C81.3435 41.024 81.9995 40.544 82.5435 39.936L87.1995 44.64C85.9835 45.92 84.6075 46.896 83.0715 47.568C81.5355 48.208 79.8235 48.528 77.9355 48.528ZM101.425 48.528C98.8975 48.528 96.6415 48.016 94.6575 46.992C92.7055 45.936 91.1695 44.48 90.0495 42.624C88.9295 40.768 88.3695 38.672 88.3695 36.336C88.3695 34 88.9135 31.92 90.0015 30.096C91.1215 28.24 92.6255 26.784 94.5135 25.728C96.4015 24.672 98.5295 24.144 100.897 24.144C103.201 24.144 105.233 24.64 106.993 25.632C108.753 26.624 110.129 28 111.121 29.76C112.145 31.52 112.657 33.536 112.657 35.808C112.657 36.224 112.625 36.672 112.561 37.152C112.529 37.6 112.449 38.128 112.321 38.736L92.2095 38.784V33.744L109.201 33.696L106.033 35.808C106.001 34.464 105.793 33.36 105.409 32.496C105.025 31.6 104.449 30.928 103.681 30.48C102.945 30 102.033 29.76 100.945 29.76C99.7935 29.76 98.7855 30.032 97.9215 30.576C97.0895 31.088 96.4335 31.824 95.9535 32.784C95.5055 33.744 95.2815 34.912 95.2815 36.288C95.2815 37.664 95.5215 38.848 96.0015 39.84C96.5135 40.8 97.2175 41.552 98.1135 42.096C99.0415 42.608 100.129 42.864 101.377 42.864C102.529 42.864 103.569 42.672 104.497 42.288C105.425 41.872 106.241 41.264 106.945 40.464L110.977 44.496C109.825 45.84 108.433 46.848 106.801 47.52C105.169 48.192 103.377 48.528 101.425 48.528ZM118.999 48V15.024H126.343V48H118.999ZM113.719 30.912V24.672H131.623V30.912H113.719ZM145.91 48.528C143.382 48.528 141.126 48.016 139.142 46.992C137.19 45.936 135.654 44.48 134.534 42.624C133.414 40.768 132.854 38.672 132.854 36.336C132.854 34 133.398 31.92 134.486 30.096C135.606 28.24 137.11 26.784 138.998 25.728C140.886 24.672 143.014 24.144 145.382 24.144C147.686 24.144 149.718 24.64 151.478 25.632C153.238 26.624 154.614 28 155.606 29.76C156.63 31.52 157.142 33.536 157.142 35.808C157.142 36.224 157.11 36.672 157.046 37.152C157.014 37.6 156.934 38.128 156.806 38.736L136.694 38.784V33.744L153.686 33.696L150.518 35.808C150.486 34.464 150.278 33.36 149.894 32.496C149.51 31.6 148.934 30.928 148.166 30.48C147.43 30 146.518 29.76 145.43 29.76C144.278 29.76 143.27 30.032 142.406 30.576C141.574 31.088 140.918 31.824 140.438 32.784C139.99 33.744 139.766 34.912 139.766 36.288C139.766 37.664 140.006 38.848 140.486 39.84C140.998 40.8 141.702 41.552 142.598 42.096C143.526 42.608 144.614 42.864 145.862 42.864C147.014 42.864 148.054 42.672 148.982 42.288C149.91 41.872 150.726 41.264 151.43 40.464L155.462 44.496C154.31 45.84 152.918 46.848 151.286 47.52C149.654 48.192 147.862 48.528 145.91 48.528ZM160.687 48V24.672H168.031V48H160.687ZM168.031 35.184L164.959 32.784C165.567 30.064 166.591 27.952 168.031 26.448C169.471 24.944 171.471 24.192 174.031 24.192C175.151 24.192 176.127 24.368 176.959 24.72C177.823 25.04 178.575 25.552 179.215 26.256L174.847 31.776C174.527 31.424 174.127 31.152 173.647 30.96C173.167 30.768 172.623 30.672 172.015 30.672C170.799 30.672 169.823 31.056 169.087 31.824C168.383 32.56 168.031 33.68 168.031 35.184ZM181.171 48V24.672H188.515V48H181.171ZM184.867 21.456C183.715 21.456 182.755 21.072 181.987 20.304C181.251 19.504 180.883 18.544 180.883 17.424C180.883 16.272 181.251 15.312 181.987 14.544C182.755 13.776 183.715 13.392 184.867 13.392C186.019 13.392 186.963 13.776 187.699 14.544C188.435 15.312 188.803 16.272 188.803 17.424C188.803 18.544 188.435 19.504 187.699 20.304C186.963 21.072 186.019 21.456 184.867 21.456ZM202.183 48.576C200.807 48.576 199.447 48.4 198.103 48.048C196.791 47.696 195.559 47.2 194.407 46.56C193.287 45.888 192.327 45.12 191.527 44.256L195.703 40.032C196.471 40.864 197.383 41.52 198.439 42C199.495 42.448 200.647 42.672 201.895 42.672C202.759 42.672 203.415 42.544 203.863 42.288C204.343 42.032 204.583 41.68 204.583 41.232C204.583 40.656 204.295 40.224 203.719 39.936C203.175 39.616 202.471 39.344 201.607 39.12C200.743 38.864 199.831 38.592 198.871 38.304C197.911 38.016 196.999 37.616 196.135 37.104C195.271 36.592 194.567 35.888 194.023 34.992C193.479 34.064 193.207 32.896 193.207 31.488C193.207 29.984 193.591 28.688 194.359 27.6C195.127 26.48 196.215 25.6 197.623 24.96C199.031 24.32 200.679 24 202.567 24C204.551 24 206.375 24.352 208.039 25.056C209.735 25.728 211.111 26.736 212.167 28.08L207.991 32.304C207.255 31.44 206.423 30.832 205.495 30.48C204.599 30.128 203.719 29.952 202.855 29.952C202.023 29.952 201.399 30.08 200.983 30.336C200.567 30.56 200.359 30.896 200.359 31.344C200.359 31.824 200.631 32.208 201.175 32.496C201.719 32.784 202.423 33.04 203.287 33.264C204.151 33.488 205.063 33.76 206.023 34.08C206.983 34.4 207.895 34.832 208.759 35.376C209.623 35.92 210.327 36.656 210.871 37.584C211.415 38.48 211.687 39.664 211.687 41.136C211.687 43.408 210.823 45.216 209.095 46.56C207.399 47.904 205.095 48.576 202.183 48.576ZM230.599 48L222.439 35.904L230.551 24.672H238.759L228.967 37.296L229.207 34.272L239.239 48H230.599ZM215.671 48V13.152H223.015V48H215.671Z" fill="#1E1E1E"/>
<path fill-rule="evenodd" clip-rule="evenodd" d="M18.9914 15C18.9914 12.2386 21.23 10 23.9914 10C26.7528 10 28.9914 12.2386 28.9914 15V21.3397L34.4816 18.1699C36.8731 16.7892 39.931 17.6086 41.3117 20C42.6924 22.3915 41.8731 25.4495 39.4816 26.8302L33.9915 29.9999L39.482 33.1698C41.8735 34.5505 42.6928 37.6085 41.3121 40C39.9314 42.3914 36.8735 43.2108 34.482 41.8301L28.9914 38.6601V45C28.9914 47.7614 26.7528 50 23.9914 50C21.23 50 18.9914 47.7614 18.9914 45V38.6602L13.5008 41.8302C11.1094 43.2109 8.05142 42.3915 6.67071 40C5.29 37.6086 6.10937 34.5506 8.50084 33.1699L13.9915 29.9999L8.50123 26.8301C6.10977 25.4494 5.29039 22.3914 6.6711 20C8.05181 17.6085 11.1098 16.7891 13.5012 18.1698L18.9914 21.3396V15Z" fill="white"/>
</svg>
