<svg width="48" height="48" viewBox="0 0 48 48" fill="none" xmlns="http://www.w3.org/2000/svg">
<rect width="48" height="48" rx="24" fill="#0077CE"/>
<path fill-rule="evenodd" clip-rule="evenodd" d="M18.9914 9C18.9914 6.23858 21.23 4 23.9914 4C26.7528 4 28.9914 6.23858 28.9914 9V15.3397L34.4816 12.1699C36.8731 10.7892 39.931 11.6086 41.3117 14C42.6924 16.3915 41.8731 19.4495 39.4816 20.8302L33.9915 23.9999L39.482 27.1698C41.8735 28.5505 42.6928 31.6085 41.3121 34C39.9314 36.3914 36.8735 37.2108 34.482 35.8301L28.9914 32.6601V39C28.9914 41.7614 26.7528 44 23.9914 44C21.23 44 18.9914 41.7614 18.9914 39V32.6602L13.5008 35.8302C11.1094 37.2109 8.05142 36.3915 6.67071 34C5.29 31.6086 6.10937 28.5506 8.50084 27.1699L13.9915 23.9999L8.50123 20.8301C6.10977 19.4494 5.29039 16.3914 6.6711 14C8.05181 11.6085 11.1098 10.7891 13.5012 12.1698L18.9914 15.3396V9Z" fill="white"/>
</svg>
